{
.appVersion = "3217";
.formatVersion = 3;
axes = (
{
name = Width;
tag = wdth;
},
{
name = Weight;
tag = wght;
}
);
classes = (
{
automatic = 1;
code = "A Aacute Abreve Acircumflex Adieresis Agrave Amacron Aogonek Aring Atilde AE B C Cacute Ccaron Ccedilla D Eth Dcaron Dcroat E Eacute Ecaron Ecircumflex Edieresis Edotaccent Egrave Emacron Eogonek F G Gbreve Gcommaaccent H I Iacute Icircumflex Idieresis Idotaccent Igrave Imacron Iogonek J K Kcommaaccent L Lacute Lcaron Lcommaaccent Lslash M N Nacute Ncaron Ncommaaccent Ntilde O Oacute Ocircumflex Odieresis Ograve Ohungarumlaut Omacron Oslash Otilde OE P Thorn Q R Racute Rcaron Rcommaaccent S Sacute Scaron Scedilla Scommaaccent T Tcaron Tcedilla Tcommaaccent U Uacute Ucircumflex Udieresis Ugrave Uhungarumlaut Umacron Uogonek Uring V W X Y Yacute Ydieresis Z Zacute Zcaron Zdotaccent";
name = Uppercase;
}
);
customParameters = (
{
name = "Use Typo Metrics";
value = 1;
},
{
name = fsType;
value = (
);
}
);
date = "2020-01-08 09:24:53 +0000";
familyName = Sprat;
featurePrefixes = (
{
automatic = 1;
code = "languagesystem DFLT dflt;

languagesystem latn dflt;
languagesystem latn AZE;
languagesystem latn CRT;
languagesystem latn KAZ;
languagesystem latn TAT;
languagesystem latn TRK;
languagesystem latn ROM;
languagesystem latn MOL;
";
name = Languagesystems;
}
);
features = (
{
automatic = 1;
code = "feature locl;
feature sups;
feature frac;
feature ordn;
feature case;
";
tag = aalt;
},
{
automatic = 1;
code = "lookup ccmp_Other_1 {
	@CombiningTopAccents = [acutecomb brevecomb caroncomb circumflexcomb commaturnedabovecomb dieresiscomb dotaccentcomb gravecomb hungarumlautcomb macroncomb ringcomb tildecomb];
	lookupflag UseMarkFilteringSet @CombiningTopAccents;
	sub i' @CombiningTopAccents by idotless;
	sub j' @CombiningTopAccents by jdotless;
} ccmp_Other_1;

lookup ccmp_Other_2 {

glyphs = (
{
glyphname = A;
kernLeft = A;
kernRight = A;
lastChange = "2022-04-10 11:59:59 +0000";
layers = (
{
anchors = (
{
name = bottom;
pos = (318,0);
},
{
name = ogonek;
pos = (572,10);
},
{
name = top;
pos = (307,686);
}
);
layerId = "B6803316-6B37-45A2-910F-F0CA711B465A";
shapes = (
{
closed = 1;
nodes = (
(245,0,l),
(245,10,l),
(182,17,o),
(154,33,o),
(166,80,cs),
(186,157,l),
(369,157,l),
(391,84,ls),
(406,33,o),
(381,17,o),
(316,10,c),
(316,0,l),
(617,0,l),
(617,10,l),
(554,17,o),
(508,31,o),
(494,79,cs),
(309,715,l),
(304,715,l),
(139,82,ls),
(127,36,o),
(82,17,o),
(18,10,c),
(18,0,l)
);
},
{
closed = 1;
nodes = (
(273,489,l),
(362,182,l),
(193,182,l)
);
}
);
width = 635;
},
{
associatedMasterId = "B6803316-6B37-45A2-910F-F0CA711B465A";
layerId = "207B1338-1A9E-41C6-9A2A-66741B296B47";
name = "Feb 10 19, 17:59";
shapes = (
{
closed = 1;
nodes = (
(499,0,l),
(287,716,l),
(240,504,l),
(390,0,l)
);
},
{
closed = 1;
nodes = (
(367,157,l),
(367,182,l),
(152,182,l),
(152,157,l)
);
},
{
closed = 1;
nodes = (
(127,0,l),
(300,658,l),
(287,716,l),
(100,0,l)
);
},
{
closed = 1;
nodes = (
(127,0,l),
(227,0,l),
(227,10,l),
(162,17,o),
(136,34,o),
(149,84,c)
);
},
{
closed = 1;
nodes = (
(380,33,o),
(355,17,o),
(290,10,c),
(290,0,l),
(390,0,l),
(365,84,l)
);
},
{
closed = 1;
nodes = (
(499,0,l),
(599,0,l),
(599,10,l),
(534,17,o),
(489,33,o),
(474,84,c)
);
},
{
closed = 1;
nodes = (
(109,37,o),
(65,17,o),
(0,10,c),
(0,0,l),
(100,0,l),
(122,84,l)
);
}
);
width = 599;
},
{
anchors = (
{
name = bottom;
pos = (609,0);
},
{
name = ogonek;
pos = (1095,10);
},
{
name = top;
pos = (609,700);
}
);
layerId = "1127FDDC-7967-4E0A-BDB2-81E1CCE90981";
shapes = (
{
closed = 1;
nodes = (
(401,0,l),
(401,10,l),
(319,17,o),
(237,36,o),
(283,118,cs),
(332,200,l),
(801,200,l),
(852,117,ls),
(895,40,o),
(815,17,o),
(733,10,c),
(733,0,l),
(1199,0,l),
(1199,10,l),
(1116,17,o),
(1013,45,o),
(965,124,cs),
(610,715,l),
(605,715,l),
(249,118,ls),
(198,33,o),
(101,17,o),
(18,10,c),
(18,0,l)
);
},
{
closed = 1;
nodes = (
(566,592,l),
(786,225,l),
(347,225,l)
);
}
);
width = 1217;
},
{
associatedMasterId = "1127FDDC-7967-4E0A-BDB2-81E1CCE90981";
layerId = "BEAF720D-B44D-440D-A0F5-7A4B4E0C9663";
name = "Feb 10 19, 15:23";
shapes = (
{
closed = 1;
nodes = (
(1058,0,l),
(623,715,l),
(571,599,l),
(935,0,l)
);
},
{
closed = 1;
nodes = (
(190,0,l),
(264,122,l),
(211,35,o),
(84,17,o),
(0,10,c),
(0,0,l)
);
},
{
closed = 1;
nodes = (
(413,0,l),
(413,10,l),
(329,17,o),
(245,37,o),
(298,124,c),
(223,0,l)
);
},
{
closed = 1;
nodes = (
(223,0,l),
(632,675,l),
(623,715,l),
(190,0,l)
);
},
{
closed = 1;
nodes = (
(829,200,l),
(829,225,l),
(338,225,l),
(338,200,l)
);
},
{
closed = 1;
nodes = (
(935,0,l),
(861,122,l),
(910,41,o),
(829,17,o),
(745,10,c),
(745,0,l)
);
},
{
closed = 1;
nodes = (
(1247,0,l),
(1247,10,l),
(1163,17,o),
(1029,48,o),
(980,128,c),
(1058,0,l)
);
}
);
width = 1247;
},
{
associatedMasterId = "1127FDDC-7967-4E0A-BDB2-81E1CCE90981";
backgroundImage = {
imagePath = "Type Design/Library/CloudStorage/GoogleDrive-collletttivo@gmail.com/Il mio Drive/Progetti/_Archivio/Squarespace/Final Handover/Sprat/SCANS/Image005.jpg";
locked = 1;
pos = (-1615,-4820);
scale = (6.909,6.909);
};
layerId = "4920576D-CC1E-42BD-A1E6-DD2F5C005B13";
name = "Feb 9 19, 16:29";
shapes = (
{
closed = 1;
nodes = (
(1058,0,l),
(623,715,l),
(571,599,l),
(935,0,l)
);
},
{
closed = 1;
nodes = (
(223,0,l),
(632,675,l),
(623,715,l),
(190,0,l)
);
},
{
closed = 1;
nodes = (
(338,200,l),
(829,200,l),
(829,225,l),
(338,225,l)
);
},
{
closed = 1;
nodes = (
(910,41,o),
(829,17,o),
(745,10,c),
(745,0,l),
(935,0,l),
(861,122,l)
);
},
{
closed = 1;
nodes = (
(1058,0,l),
(1247,0,l),
(1247,10,l),
(1163,17,o),
(1029,48,o),
(980,128,c)
);
},
{
closed = 1;
nodes = (
(211,35,o),
(84,17,o),
(0,10,c),
(0,0,l),
(190,0,l),
(264,122,l)
);
},
{
closed = 1;
nodes = (
(223,0,l),
(413,0,l),
(413,10,l),
(329,17,o),
(245,37,o),
(298,124,c)
);
}
);
width = 1247;
},
{
anchors = (
{
name = bottom;
pos = (331,0);
},
{
name = ogonek;
pos = (596,10);
},
{
name = top;
pos = (318,684);
}
);
layerId = "ECEC25EE-2268-427F-924A-A8A033D1E43A";
shapes = (
{
closed = 1;
nodes = (
(249,0,l),
(249,10,l),
(177,17,o),
(155,21,o),
(166,64,cs),
(193,167,l),
(434,167,l),
(466,62,ls),
(479,21,o),
(446,17,o),
(384,10,c),
(384,0,l),
(631,0,l),
(631,10,l),
(558,17,o),
(525,18,o),
(512,63,cs),
(321,725,l),
(316,725,l),
(148,63,ls),
(137,21,o),
(93,17,o),
(31,10,c),
(31,0,l)
);
},
{
closed = 1;
nodes = (
(306,613,l),
(430,182,l),
(197,182,l)
);
}
);
width = 662;
},
{
anchors = (
{
name = bottom;
pos = (320,0);
},
{
name = ogonek;
pos = (576,10);
},
{
name = top;
pos = (316,720);
}
);
layerId = "52EA2D2A-A4E3-47AA-B963-53B6A9E26FA1";
shapes = (
{
closed = 1;
nodes = (
(158,0,l),
(158,20,l),
(134,22,o),
(107,24,o),
(125,75,cs),
(147,137,l),
(295,137,l),
(316,77,ls),
(334,26,o),
(308,22,o),
(284,20,c),
(284,0,l),
(639,0,l),
(639,20,l),
(615,21,o),
(569,23,o),
(550,79,cs),
(322,745,l),
(312,745,l),
(87,73,ls),
(70,21,o),
(25,22,o),
(1,20,c),
(1,0,l)
);
},
{
closed = 1;
nodes = (
(220,347,l),
(282,172,l),
(160,172,l)
);
}
);
width = 640;
},
{
anchors = (
{
name = bottom;
pos = (603,0);
},
{
name = ogonek;
pos = (1085,10);
},
{
name = top;
pos = (603,730);
}
);
layerId = "C70D92E6-6044-4AAB-ADF3-B84826DC9CB7";
shapes = (
{
closed = 1;
nodes = (
(358,0,l),
(358,10,l),
(262,17,o),
(200,18,o),
(251,103,cs),
(315,210,l),
(857,210,l),
(924,99,ls),
(972,19,o),
(908,17,o),
(814,10,c),
(814,0,l),
(1187,0,l),
(1187,10,l),
(1094,17,o),
(1033,17,o),
(979,96,c),
(605,715,l),
(600,715,l),
(232,103,ls),
(180,17,o),
(115,17,o),
(19,10,c),
(19,0,l)
);
},
{
closed = 1;
nodes = (
(586,660,l),
(847,225,l),
(324,225,l)
);
}
);
width = 1206;
},
{
anchors = (
{
name = bottom;
pos = (617,0);
},
{
name = ogonek;
pos = (1110,10);
},
{
name = top;
pos = (617,670);
}
);
layerId = "92782D03-6C32-4A0E-AEF4-B0D65DFAA275";
shapes = (
{
closed = 1;
nodes = (
(362,0,l),
(362,24,l),
(280,28,o),
(229,24,o),
(286,114,cs),
(334,189,l),
(637,189,l),
(679,119,ls),
(736,24,o),
(687,31,o),
(604,24,c),
(604,0,l),
(1213,0,l),
(1213,24,l),
(1130,31,o),
(1069,20,o),
(1009,117,cs),
(638,715,l),
(628,715,l),
(249,122,ls),
(186,23,o),
(104,31,o),
(20,24,c),
(20,0,l)
);
},
{
closed = 1;
nodes = (
(485,429,l),
(615,224,l),
(357,224,l)
);
}
);
width = 1233;
},
{
associatedMasterId = "ECEC25EE-2268-427F-924A-A8A033D1E43A";
layerId = "6E277FCC-2194-437D-A9D2-5E56334D9C1E";
name = "Mar 26 19, 14:50";
shapes = (
{
closed = 1;
nodes = (
(500,0,l),
(288,716,l),
(270,616,l),
(453,0,l)
);
},
{
closed = 1;
nodes = (
(418,167,l),
(418,182,l),
(153,182,l),
(153,167,l)
);
},
{
closed = 1;
nodes = (
(118,0,l),
(291,658,l),
(288,716,l),
(101,0,l)
);
},
{
closed = 1;
nodes = (
(101,0,l),
(119,69,l),
(106,21,o),
(65,17,o),
(0,10,c),
(0,0,l)
);
},
{
closed = 1;
nodes = (
(218,0,l),
(218,10,l),
(143,17,o),
(124,21,o),
(136,69,c),
(118,0,l)
);
},
{
closed = 1;
nodes = (
(453,0,l),
(433,68,l),
(447,20,o),
(418,17,o),
(353,10,c),
(353,0,l)
);
},
{
closed = 1;
nodes = (
(600,0,l),
(600,10,l),
(525,17,o),
(495,19,o),
(480,67,c),
(500,0,l)
);
}
);
width = 600;
},
{
associatedMasterId = "52EA2D2A-A4E3-47AA-B963-53B6A9E26FA1";
layerId = "9773FB00-406F-44E7-A742-218BE6593DAA";
name = "Mar 26 19, 14:51";
shapes = (
{
closed = 1;
nodes = (
(579,0,l),
(317,716,l),
(209,372,l),
(343,0,l)
);
},
{
closed = 1;
nodes = (
(367,137,l),
(367,172,l),
(122,172,l),
(122,137,l)
);
},
{
closed = 1;
nodes = (
(97,0,l),
(334,658,l),
(317,716,l),
(60,0,l)
);
},
{
closed = 1;
nodes = (
(579,0,l),
(639,0,l),
(639,10,l),
(614,17,o),
(571,26,o),
(548,84,c)
);
},
{
closed = 1;
nodes = (
(97,0,l),
(157,0,l),
(157,10,l),
(132,17,o),
(106,24,o),
(126,81,c)
);
},
{
closed = 1;
nodes = (
(68,23,o),
(25,17,o),
(0,10,c),
(0,0,l),
(60,0,l),
(89,80,l)
);
},
{
closed = 1;
nodes = (
(333,26,o),
(308,17,o),
(283,10,c),
(283,0,l),
(343,0,l),
(313,84,l)
);
}
);
width = 639;
},
{
associatedMasterId = "C70D92E6-6044-4AAB-ADF3-B84826DC9CB7";
layerId = "CB1E6052-97A0-4F68-866C-30D5F3EC08A6";
name = "Mar 27 19, 14:03";
shapes = (
{
closed = 1;
nodes = (
(1038,0,l),
(603,715,l),
(585,659,l),
(985,0,l)
);
},
{
closed = 1;
nodes = (
(189,0,l),
(598,675,l),
(603,715,l),
(170,0,l)
);
},
{
closed = 1;
nodes = (
(889,210,l),
(889,225,l),
(318,225,l),
(318,210,l)
);
},
{
closed = 1;
nodes = (
(973,18,o),
(911,17,o),
(815,10,c),
(815,0,l),
(985,0,l),
(922,104,l)
);
},
{
closed = 1;
nodes = (
(179,18,o),
(96,17,o),
(0,10,c),
(0,0,l),
(170,0,l),
(233,104,l)
);
},
{
closed = 1;
nodes = (
(189,0,l),
(359,0,l),
(359,10,l),
(263,17,o),
(202,18,o),
(252,104,c)
);
},
{
closed = 1;
nodes = (
(1038,0,l),
(1208,0,l),
(1208,10,l),
(1112,17,o),
(1029,17,o),
(975,103,c)
);
}
);
width = 1208;
},
{
associatedMasterId = "92782D03-6C32-4A0E-AEF4-B0D65DFAA275";
layerId = "7EA9026A-0693-42D0-A483-BCA20D652A2F";
name = "Mar 27 19, 15:54";
shapes = (
{
closed = 1;
nodes = (
(314,189,l),
(887,189,l),
(887,224,l),
(314,224,l)
);
},
{
closed = 1;
nodes = (
(231,125,l),
(165,25,o),
(85,21,o),
(0,14,c),
(0,0,l),
(150,0,l)
);
},
{
closed = 1;
nodes = (
(1194,0,l),
(1194,14,l),
(1109,21,o),
(1051,24,o),
(985,124,c),
(1063,0,l)
);
},
{
closed = 1;
nodes = (
(342,0,l),
(342,14,l),
(257,18,o),
(208,23,o),
(272,124,c),
(192,0,l)
);
},
{
closed = 1;
nodes = (
(192,0,l),
(611,647,l),
(613,715,l),
(150,0,l)
);
},
{
closed = 1;
nodes = (
(654,124,l),
(716,24,o),
(667,21,o),
(582,14,c),
(582,0,l),
(732,0,l)
);
},
{
closed = 1;
nodes = (
(1063,0,l),
(613,715,l),
(458,435,l),
(732,0,l)
);
}
);
width = 1194;
}
);
unicode = 65;
},
{
glyphname = AE;
kernLeft = A;
kernRight = E;
lastChange = "2022-01-30 14:40:57 +0000";
layers = (
{
anchors = (
{
name = bottom;
pos = (450,0);
},
{
name = top;
pos = (450,700);
}
);
layerId = "B6803316-6B37-45A2-910F-F0CA711B465A";
shapes = (
{
closed = 1;
nodes = (
(820,0,l),
(820,225,l),
(810,225,l),
(803,126,o),
(760,25,o),
(667,25,cs),
(558,25,l),
(558,675,l),
(667,675,ls),
(760,675,o),
(803,574,o),
(810,475,c),
(820,475,l),
(820,700,l),
(358,700,l),
(358,690,l),
(423,683,o),
(458,664,o),
(458,616,cs),
(458,84,ls),
(458,36,o),
(423,17,o),
(358,10,c),
(358,0,l)
);
},
{
closed = 1;
nodes = (
(248,0,l),
(248,10,l),
(186,17,o),
(166,35,o),
(187,77,cs),
(466,632,l),
(459,681,l),
(157,80,ls),
(136,37,o),
(81,17,o),
(18,10,c),
(18,0,l)
);
},
{
closed = 1;
nodes = (
(757,190,l),
(652,500,l),
(642,497,l),
(664,416,o),
(647,380,o),
(567,380,cs),
(310,380,l),
(310,355,l),
(567,355,ls),
(638,355,o),
(718,261,o),
(747,187,c)
);
}
);
width = 900;
},
{
anchors = (
{
name = bottom;
pos = (790,0);
},
{
name = top;
pos = (790,700);
}
);
layerId = "1127FDDC-7967-4E0A-BDB2-81E1CCE90981";
shapes = (
{
closed = 1;
nodes = (
(1476,0,l),
(1476,245,l),
(1466,245,l),
(1459,125,o),
(1400,25,o),
(1263,25,cs),
(894,25,l),
(894,675,l),
(1263,675,ls),
(1400,675,o),
(1459,574,o),
(1466,455,c),
(1476,455,l),
(1476,700,l),
(604,700,l),
(604,690,l),
(687,683,o),
(794,663,o),
(794,576,cs),
(794,124,ls),
(794,37,o),
(688,17,o),
(604,10,c),
(604,0,l)
);
},
{
closed = 1;
nodes = (
(450,0,l),
(450,10,l),
(368,17,o),
(269,48,o),
(332,118,cs),
(834,675,l),
(819,700,l),
(295,118,ls),
(227,43,o),
(127,17,o),
(44,10,c),
(44,0,l)
);
},
{
closed = 1;
nodes = (
(1352,207,l),
(1238,550,l),
(1228,547,l),
(1246,466,o),
(1224,430,o),
(1143,430,cs),
(589,430,l),
(589,405,l),
(1143,405,ls),
(1218,405,o),
(1285,345,o),
(1342,204,c)
);
}
);
width = 1579;
},
{
associatedMasterId = "1127FDDC-7967-4E0A-BDB2-81E1CCE90981";
layerId = "CB880602-B7F3-4A4D-9A0F-330DC9B57DE9";
name = "Feb 26 19, 12:12";
shapes = (
{
closed = 1;
nodes = (
(482,335,l),
(1099,335,ls),
(1174,335,o),
(1241,275,o),
(1298,134,c),
(1308,137,l),
(1194,480,l),
(1184,477,l),
(1202,396,o),
(1180,360,o),
(1099,360,cs),
(482,360,l)
);
},
{
closed = 1;
nodes = (
(790,675,l),
(775,700,l),
(251,118,ls),
(183,43,o),
(83,17,o),
(0,10,c),
(0,0,l),
(403,0,l),
(403,10,l),
(321,17,o),
(239,36,o),
(285,118,c)
);
},
{
closed = 1;
nodes = (
(850,675,l),
(1219,675,ls),
(1356,675,o),
(1415,574,o),
(1422,455,c),
(1432,455,l),
(1432,700,l),
(560,700,l),
(560,690,l),
(643,683,o),
(750,663,o),
(750,576,cs),
(750,124,ls),
(750,37,o),
(644,17,o),
(560,10,c),
(560,0,l),
(1432,0,l),
(1432,245,l),
(1422,245,l),
(1415,125,o),
(1356,25,o),
(1219,25,cs),
(850,25,l)
);
}
);
width = 1582;
},
{
associatedMasterId = "B6803316-6B37-45A2-910F-F0CA711B465A";
layerId = "F86BDDF6-300B-495C-90D6-1594323B0FC1";
name = "Mar 4 19, 14:45";
shapes = (
{
closed = 1;
nodes = (
(802,0,l),
(802,225,l),
(792,225,l),
(785,126,o),
(742,25,o),
(649,25,cs),
(540,25,l),
(540,675,l),
(649,675,ls),
(742,675,o),
(785,574,o),
(792,475,c),
(802,475,l),
(802,700,l),
(340,700,l),
(340,690,l),
(405,683,o),
(440,664,o),
(440,616,cs),
(440,84,ls),
(440,36,o),
(405,17,o),
(340,10,c),
(340,0,l)
);
},
{
closed = 1;
nodes = (
(230,0,l),
(230,10,l),
(168,17,o),
(148,35,o),
(169,77,cs),
(448,632,l),
(441,681,l),
(139,80,ls),
(118,37,o),
(63,17,o),
(0,10,c),
(0,0,l)
);
},
{
closed = 1;
nodes = (
(739,190,l),
(634,500,l),
(624,497,l),
(646,416,o),
(629,380,o),
(549,380,cs),
(289,380,l),
(289,355,l),
(549,355,ls),
(620,355,o),
(700,261,o),
(729,187,c)
);
}
);
width = 842;
},
{
anchors = (
{
name = bottom;
pos = (492,0);
},
{
name = top;
pos = (492,700);
}
);
layerId = "52EA2D2A-A4E3-47AA-B963-53B6A9E26FA1";
shapes = (
{
closed = 1;
nodes = (
(922,0,l),
(922,245,l),
(902,245,l),
(895,156,o),
(872,25,o),
(709,25,cs),
(660,25,l),
(660,675,l),
(709,675,ls),
(872,675,o),
(895,544,o),
(902,455,c),
(922,455,l),
(922,700,l),
(380,700,l),
(380,680,l),
(405,679,o),
(440,674,o),
(440,616,cs),
(440,84,ls),
(440,26,o),
(405,21,o),
(380,20,c),
(380,0,l)
);
},
{
closed = 1;
nodes = (
(160,0,l),
(160,20,l),
(136,22,o),
(101,31,o),
(127,75,cs),
(445,599,l),
(445,667,l),
(85,73,ls),
(57,26,o),
(23,22,o),
(-1,20,c),
(-1,0,l)
);
},
{
closed = 1;
nodes = (
(859,199,l),
(754,509,l),
(736,506,l),
(748,430,o),
(729,389,o),
(669,389,cs),
(299,389,l),
(286,354,l),
(669,354,ls),
(720,354,o),
(796,294,o),
(841,196,c)
);
}
);
width = 984;
},
{
anchors = (
{
name = bottom;
pos = (468,0);
},
{
name = top;
pos = (468,700);
}
);
layerId = "ECEC25EE-2268-427F-924A-A8A033D1E43A";
shapes = (
{
closed = 1;
nodes = (
(841,0,l),
(841,214,l),
(831,214,l),
(825,76,o),
(805,23,o),
(714,15,c),
(524,15,l),
(524,685,l),
(688,685,ls),
(801,685,o),
(824,635,o),
(831,485,c),
(841,485,l),
(841,700,l),
(379,700,l),
(379,690,l),
(445,683,o),
(479,679,o),
(479,631,cs),
(479,69,ls),
(479,21,o),
(444,17,o),
(379,10,c),
(379,0,l)
);
},
{
closed = 1;
nodes = (
(256,0,l),
(256,10,l),
(184,17,o),
(152,24,o),
(173,64,cs),
(482,653,l),
(482,686,l),
(155,63,ls),
(133,22,o),
(100,17,o),
(38,10,c),
(38,0,l)
);
},
{
closed = 1;
nodes = (
(778,180,l),
(673,490,l),
(663,487,l),
(690,370,o),
(673,370,o),
(533,370,cs),
(322,370,l),
(318,355,l),
(533,355,ls),
(674,355,o),
(699,348,o),
(768,177,c)
);
}
);
width = 935;
},
{
anchors = (
{
name = bottom;
pos = (817,0);
},
{
name = top;
pos = (817,700);
}
);
layerId = "92782D03-6C32-4A0E-AEF4-B0D65DFAA275";
shapes = (
{
closed = 1;
nodes = (
(1556,0,l),
(1556,245,l),
(1536,245,l),
(1529,125,o),
(1450,35,o),
(1283,35,cs),
(1054,35,l),
(1054,665,l),
(1283,665,ls),
(1450,665,o),
(1529,574,o),
(1536,455,c),
(1556,455,l),
(1556,700,l),
(624,700,l),
(624,676,l),
(710,669,o),
(774,676,o),
(774,576,cs),
(774,124,ls),
(774,24,o),
(710,31,o),
(624,24,c),
(624,0,l)
);
},
{
closed = 1;
nodes = (
(362,0,l),
(362,24,l),
(280,28,o),
(211,37,o),
(286,114,cs),
(792,635,l),
(771,668,l),
(249,122,ls),
(168,38,o),
(104,31,o),
(20,24,c),
(20,0,l)
);
},
{
closed = 1;
nodes = (
(1342,201,l),
(1228,544,l),
(1210,541,l),
(1220,469,o),
(1204,424,o),
(1121,424,cs),
(541,424,l),
(518,389,l),
(1121,389,ls),
(1198,389,o),
(1270,319,o),
(1324,198,c)
);
}
);
width = 1634;
},
{
anchors = (
{
name = bottom;
pos = (767,0);
},
{
name = top;
pos = (767,700);
}
);
layerId = "C70D92E6-6044-4AAB-ADF3-B84826DC9CB7";
shapes = (
{
closed = 1;
nodes = (
(1425,0,l),
(1425,244,l),
(1415,244,l),
(1409,106,o),
(1389,23,o),
(1298,15,c),
(737,15,l),
(737,685,l),
(1272,685,ls),
(1385,685,o),
(1408,605,o),
(1415,455,c),
(1425,455,l),
(1425,700,l),
(522,700,l),
(522,690,l),
(618,683,o),
(692,682,o),
(692,596,cs),
(692,104,ls),
(692,18,o),
(618,17,o),
(522,10,c),
(522,0,l)
);
},
{
closed = 1;
nodes = (
(339,0,l),
(339,10,l),
(243,17,o),
(163,30,o),
(232,103,cs),
(719,618,l),
(707,629,l),
(213,103,ls),
(143,29,o),
(96,17,o),
(0,10,c),
(0,0,l)
);
},
{
closed = 1;
nodes = (
(1202,200,l),
(1097,510,l),
(1087,507,l),
(1110,407,o),
(1101,390,o),
(1010,390,cs),
(484,390,l),
(475,375,l),
(1010,374,ls),
(1106,374,o),
(1132,343,o),
(1192,197,c)
);
}
);
width = 1533;
}
);
unicode = 198;
},
{
glyphname = B;
kernLeft = H;
kernRight = B;
lastChange = "2022-01-30 14:40:57 +0000";
layers = (
{
anchors = (
{
name = bottom;
pos = (280,0);
},
{
name = center;
pos = (280,350);
},
{
name = top;
pos = (280,700);
}
);
layerId = "B6803316-6B37-45A2-910F-F0CA711B465A";
shapes = (
{
closed = 1;
nodes = (
(405,497,o),
(460,534,o),
(460,588,cs),
(460,656,o),
(409,700,o),
(287,700,cs),
(25,700,l),
(25,690,l),
(90,683,o),
(125,664,o),
(125,616,cs),
(125,84,ls),
(125,36,o),
(90,17,o),
(25,10,c),
(25,0,l),
(276,0,ls),
(451,0,o),
(496,112,o),
(496,250,cs),
(496,360,o),
(441,475,o),
(335,487,c)
);
},
{
closed = 1;
nodes = (
(341,675,o),
(360,627,o),
(360,587,cs),
(360,547,o),
(344,500,o),
(251,500,cs),
(220,500,l),
(220,675,l),
(251,675,ls)
);
},
{
closed = 1;
nodes = (
(220,25,l),
(220,475,l),
(241,475,ls),
(383,475,o),
(396,352,o),
(396,243,cs),
(396,122,o),
(383,25,o),
(241,25,cs)
);
}
);
width = 560;
},
{
anchors = (
{
name = bottom;
pos = (347,0);
},
{
name = center;
pos = (347,350);
},
{
name = top;
pos = (347,700);
}
);
layerId = "52EA2D2A-A4E3-47AA-B963-53B6A9E26FA1";
shapes = (
{
closed = 1;
nodes = (
(586,491,o),
(627,522,o),
(627,581,cs),
(627,641,o),
(565,700,o),
(445,700,cs),
(25,700,l),
(25,680,l),
(50,679,o),
(85,674,o),
(85,616,cs),
(85,84,ls),
(85,26,o),
(50,21,o),
(25,20,c),
(25,0,l),
(415,0,ls),
(579,0,o),
(660,125,o),
(660,250,cs),
(660,356,o),
(602,451,o),
(510,476,c)
);
},
{
closed = 1;
nodes = (
(376,665,o),
(401,625,o),
(401,584,cs),
(401,542,o),
(375,500,o),
(324,500,cs),
(305,500,l),
(305,665,l),
(324,665,ls)
);
},
{
closed = 1;
nodes = (
(305,25,l),
(305,464,l),
(314,464,ls),
(393,464,o),
(435,352,o),
(435,240,cs),
(435,132,o),
(395,25,o),
(314,25,cs)
);
}
);
width = 694;
},
{
anchors = (
{
name = bottom;
pos = (306,0);
},
{
name = center;
pos = (306,350);
},
{
name = top;
pos = (306,700);
}
);
layerId = "ECEC25EE-2268-427F-924A-A8A033D1E43A";
shapes = (
{
closed = 1;
nodes = (
(440,498,o),
(501,545,o),
(501,592,cs),
(501,646,o),
(445,700,o),
(336,700,cs),
(44,700,l),
(44,690,l),
(120,683,o),
(144,679,o),
(144,631,cs),
(144,69,ls),
(144,21,o),
(119,17,o),
(44,10,c),
(44,0,l),
(294,0,ls),
(486,0,o),
(539,127,o),
(539,253,cs),
(539,354,o),
(467,461,o),
(359,487,c)
);
},
{
closed = 1;
nodes = (
(410,685,o),
(454,636,o),
(454,589,cs),
(454,544,o),
(410,500,o),
(306,500,cs),
(189,500,l),
(189,685,l),
(296,685,ls)
);
},
{
closed = 1;
nodes = (
(189,15,l),
(189,485,l),
(271,485,ls),
(415,485,o),
(489,365,o),
(489,247,cs),
(489,130,o),
(448,15,o),
(271,15,cs)
);
}
);
width = 612;
},
{
anchors = (
{
name = bottom;
pos = (557,0);
},
{
name = center;
pos = (557,350);
},
{
name = top;
pos = (557,700);
}
);
layerId = "C70D92E6-6044-4AAB-ADF3-B84826DC9CB7";
shapes = (
{
closed = 1;
nodes = (
(934,420,o),
(1008,477,o),
(1008,555,cs),
(1008,643,o),
(903,700,o),
(773,700,cs),
(54,700,l),
(54,690,l),
(150,683,o),
(224,682,o),
(224,596,cs),
(224,104,ls),
(224,18,o),
(150,17,o),
(54,10,c),
(54,0,l),
(762,1,ls),
(946,1,o),
(1034,111,o),
(1034,218,cs),
(1034,314,o),
(964,407,o),
(819,421,c)
);
},
{
closed = 1;
nodes = (
(892,685,o),
(958,630,o),
(958,556,cs),
(958,482,o),
(894,429,o),
(761,429,cs),
(269,429,l),
(269,685,l),
(761,685,ls)
);
},
{
closed = 1;
nodes = (
(269,15,l),
(269,414,l),
(741,414,ls),
(902,414,o),
(984,335,o),
(984,215,cs),
(984,96,o),
(902,16,o),
(741,16,cs)
);
}
);
width = 1113;
},
{
anchors = (
{
name = bottom;
pos = (542,0);
},
{
name = center;
pos = (542,350);
},
{
name = top;
pos = (542,700);
}
);
layerId = "92782D03-6C32-4A0E-AEF4-B0D65DFAA275";
shapes = (
{
closed = 1;
nodes = (
(916,429,o),
(1000,471,o),
(1000,558,cs),
(1000,629,o),
(947,700,o),
(716,700,cs),
(27,700,l),
(27,676,l),
(113,669,o),
(177,676,o),
(177,576,cs),
(177,124,ls),
(177,24,o),
(113,31,o),
(27,24,c),
(27,0,l),
(729,1,ls),
(979,2,o),
(1038,96,o),
(1038,211,cs),
(1038,326,o),
(927,420,o),
(794,421,c)
);
},
{
closed = 1;
nodes = (
(661,665,o),
(715,609,o),
(715,552,cs),
(715,495,o),
(660,438,o),
(551,438,cs),
(457,438,l),
(457,665,l),
(551,665,ls)
);
},
{
closed = 1;
nodes = (
(457,35,l),
(457,403,l),
(490,403,ls),
(659,403,o),
(753,332,o),
(753,221,cs),
(753,110,o),
(659,35,o),
(490,35,cs)
);
}
);
width = 1084;
},
{
associatedMasterId = "B6803316-6B37-45A2-910F-F0CA711B465A";
layerId = "C1D90355-4D85-471B-809B-E2522710E599";
name = "Mar 28 19, 14:27";
shapes = (
{
closed = 1;
nodes = (
(291,0,ls),
(466,0,o),
(516,112,o),
(516,250,cs),
(516,361,o),
(457,477,o),
(350,487,c),
(420,497,o),
(480,534,o),
(480,588,cs),
(480,656,o),
(424,700,o),
(302,700,cs),
(224,700,l),
(224,675,l),
(266,675,ls),
(356,675,o),
(375,627,o),
(375,587,cs),
(375,547,o),
(359,500,o),
(266,500,cs),
(214,500,l),
(214,475,l),
(256,475,ls),
(398,475,o),
(411,352,o),
(411,243,cs),
(411,122,o),
(398,25,o),
(256,25,cs),
(219,25,l),
(219,0,l)
);
},
{
closed = 1;
nodes = (
(140,0,l),
(140,84,l),
(140,36,o),
(105,17,o),
(40,10,c),
(40,0,l)
);
},
{
closed = 1;
nodes = (
(240,0,l),
(240,700,l),
(140,700,l),
(140,0,l)
);
},
{
closed = 1;
nodes = (
(140,700,l),
(40,700,l),
(40,690,l),
(105,683,o),
(140,664,o),
(140,616,c)
);
}
);
width = 556;
},
{
associatedMasterId = "ECEC25EE-2268-427F-924A-A8A033D1E43A";
layerId = "473445BB-1801-4E6C-AA8D-7E3221CBDC00";
name = "Mar 28 19, 14:30";
shapes = (
{
closed = 1;
nodes = (
(50,700,l),
(50,690,l),
(126,683,o),
(150,679,o),
(150,631,cs),
(150,69,ls),
(150,21,o),
(125,17,o),
(50,10,c),
(50,0,l),
(195,0,l),
(195,485,l),
(342,485,ls),
(451,485,o),
(507,538,o),
(507,592,cs),
(507,646,o),
(451,700,o),
(342,700,cs)
);
},
{
closed = 1;
nodes = (
(416,685,o),
(460,636,o),
(460,589,cs),
(460,544,o),
(416,500,o),
(312,500,cs),
(195,500,l),
(195,685,l),
(302,685,ls)
);
},
{
closed = 1;
nodes = (
(300,0,ls),
(492,0,o),
(545,127,o),
(545,253,cs),
(545,377,o),
(464,500,o),
(300,500,cs),
(185,500,l),
(185,485,l),
(277,485,ls),
(421,485,o),
(495,365,o),
(495,247,cs),
(495,130,o),
(454,15,o),
(277,15,cs),
(190,15,l),
(190,0,l)
);
}
);
width = 600;
},
{
associatedMasterId = "52EA2D2A-A4E3-47AA-B963-53B6A9E26FA1";
layerId = "82AAAEB2-262F-4C5B-8EB9-6D51530B4646";
name = "Mar 28 19, 14:51";
shapes = (
{
closed = 1;
nodes = (
(15,700,l),
(15,690,l),
(40,683,o),
(75,674,o),
(75,616,cs),
(75,84,ls),
(75,26,o),
(40,17,o),
(15,10,c),
(15,0,l),
(295,0,l),
(295,464,l),
(435,464,ls),
(566,464,o),
(617,523,o),
(617,581,cs),
(617,641,o),
(555,700,o),
(435,700,cs)
);
},
{
closed = 1;
nodes = (
(366,665,o),
(391,625,o),
(391,584,cs),
(391,542,o),
(365,500,o),
(314,500,cs),
(295,500,l),
(295,665,l),
(314,665,ls)
);
},
{
closed = 1;
nodes = (
(405,0,ls),
(569,0,o),
(650,125,o),
(650,250,cs),
(650,375,o),
(569,499,o),
(405,499,cs),
(286,499,l),
(286,464,l),
(304,464,ls),
(383,464,o),
(425,352,o),
(425,240,cs),
(425,132,o),
(385,25,o),
(304,25,cs),
(285,25,l),
(285,0,l)
);
}
);
width = 690;
},
{
associatedMasterId = "92782D03-6C32-4A0E-AEF4-B0D65DFAA275";
layerId = "168ED5E1-BF96-4F59-ADC2-AF20C6EAC0B9";
name = "Mar 28 19, 15:09";
shapes = (
{
closed = 1;
nodes = (
(450,700,l),
(20,700,l),
(20,686,l),
(106,679,o),
(170,676,o),
(170,576,cs),
(170,124,ls),
(170,24,o),
(106,21,o),
(20,14,c),
(20,0,l),
(450,0,l)
);
},
{
closed = 1;
nodes = (
(722,1,ls),
(972,2,o),
(1031,104,o),
(1031,209,cs),
(1031,327,o),
(920,420,o),
(787,421,c),
(909,429,o),
(993,471,o),
(993,558,cs),
(993,629,o),
(940,700,o),
(709,700,cs),
(404,700,l),
(404,665,l),
(544,665,ls),
(654,665,o),
(708,609,o),
(708,552,cs),
(708,495,o),
(653,438,o),
(544,438,cs),
(394,438,l),
(394,403,l),
(483,403,ls),
(652,403,o),
(746,332,o),
(746,221,cs),
(746,110,o),
(652,35,o),
(483,35,cs),
(394,35,l),
(394,0,l)
);
}
);
width = 1081;
},
{
associatedMasterId = "C70D92E6-6044-4AAB-ADF3-B84826DC9CB7";
layerId = "9CCFDAE1-A62F-4256-8583-B2C2625E7BEA";
name = "Mar 28 19, 15:09";
shapes = (
{
closed = 1;
nodes = (
(265,700,l),
(50,700,l),
(50,690,l),
(146,683,o),
(220,682,o),
(220,596,cs),
(220,104,ls),
(220,18,o),
(146,17,o),
(50,10,c),
(50,0,l),
(265,0,l)
);
},
{
closed = 1;
nodes = (
(758,1,ls),
(942,1,o),
(1030,111,o),
(1030,218,cs),
(1030,314,o),
(960,407,o),
(815,421,c),
(930,420,o),
(1004,477,o),
(1004,555,cs),
(1004,643,o),
(899,700,o),
(769,700,cs),
(244,700,l),
(244,685,l),
(757,685,ls),
(888,685,o),
(954,630,o),
(954,556,cs),
(954,482,o),
(890,429,o),
(757,429,cs),
(234,429,l),
(234,414,l),
(737,414,ls),
(898,414,o),
(980,335,o),
(980,215,cs),
(980,96,o),
(898,16,o),
(737,16,cs),
(234,15,l),
(234,0,l)
);
}
);
width = 1120;
},
{
associatedMasterId = "1127FDDC-7967-4E0A-BDB2-81E1CCE90981";
layerId = "4CBAC4AD-CFC5-437A-BA16-ED3534FA3977";
name = "Mar 28 19, 15:10";
shapes = (
{
closed = 1;
nodes = (
(732,1,ls),
(929,2,o),
(1041,97,o),
(1041,217,cs),
(1041,314,o),
(963,387,o),
(807,421,c),
(914,430,o),
(998,481,o),
(998,554,cs),
(998,626,o),
(943,700,o),
(719,700,cs),
(314,700,l),
(314,675,l),
(657,675,ls),
(855,675,o),
(894,616,o),
(894,556,cs),
(894,496,o),
(854,436,o),
(657,436,cs),
(304,436,l),
(304,411,l),
(673,411,ls),
(846,411,o),
(931,315,o),
(931,218,cs),
(931,123,o),
(846,27,o),
(673,26,cs),
(304,25,l),
(304,0,l)
);
},
{
closed = 1;
nodes = (
(230,0,l),
(230,124,l),
(230,37,o),
(124,17,o),
(40,10,c),
(40,0,l)
);
},
{
closed = 1;
nodes = (
(330,0,l),
(330,700,l),
(230,700,l),
(230,0,l)
);
},
{
closed = 1;
nodes = (
(230,700,l),
(40,700,l),
(40,690,l),
(124,683,o),
(230,663,o),
(230,576,c)
);
}
);
width = 1101;
},
{
associatedMasterId = "1127FDDC-7967-4E0A-BDB2-81E1CCE90981";
layerId = "15A2FA70-C509-4BA9-B677-305654A27081";
name = "May 18 19, 18:00";
shapes = (
{
closed = 1;
nodes = (
(914,430,o),
(998,481,o),
(998,554,cs),
(998,626,o),
(943,700,o),
(719,700,cs),
(40,700,l),
(40,690,l),
(124,683,o),
(230,663,o),
(230,576,cs),
(230,124,ls),
(230,37,o),
(124,17,o),
(40,10,c),
(40,0,l),
(732,1,ls),
(929,2,o),
(1041,97,o),
(1041,217,cs),
(1041,314,o),
(963,387,o),
(807,421,c)
);
},
{
closed = 1;
nodes = (
(855,675,o),
(894,616,o),
(894,556,cs),
(894,496,o),
(854,436,o),
(657,436,cs),
(330,436,l),
(330,675,l),
(657,675,ls)
);
},
{
closed = 1;
nodes = (
(330,25,l),
(330,411,l),
(673,411,ls),
(846,411,o),
(931,315,o),
(931,218,cs),
(931,123,o),
(846,27,o),
(673,26,cs)
);
}
);
width = 1101;
},
{
anchors = (
{
name = bottom;
pos = (569,0);
},
{
name = center;
pos = (569,350);
},
{
name = top;
pos = (569,700);
}
);
layerId = "1127FDDC-7967-4E0A-BDB2-81E1CCE90981";
shapes = (
{
closed = 1;
nodes = (
(861,432,o),
(1007,467,o),
(1007,561,cs),
(1007,644,o),
(932,700,o),
(708,700,cs),
(49,700,l),
(49,690,l),
(133,683,o),
(239,663,o),
(239,576,cs),
(239,124,ls),
(239,37,o),
(133,17,o),
(49,10,c),
(49,0,l),
(711,0,ls),
(908,0,o),
(1050,79,o),
(1050,219,cs),
(1050,336,o),
(927,419,o),
(785,429,c)
);
},
{
closed = 1;
nodes = (
(864,675,o),
(903,617,o),
(903,556,cs),
(903,497,o),
(853,436,o),
(661,436,cs),
(339,436,l),
(339,675,l),
(661,675,ls)
);
},
{
closed = 1;
nodes = (
(339,25,l),
(339,411,l),
(672,411,ls),
(845,411,o),
(940,327,o),
(940,220,cs),
(940,115,o),
(845,25,o),
(672,25,cs)
);
}
);
width = 1137;
}
);
unicode = 66;
},
{
glyphname = C;
kernLeft = O;
kernRight = C;
lastChange = "2022-04-09 17:37:10 +0000";
layers = (
{
anchors = (
{
name = bottom;
pos = (606,0);
},
{
name = top;
pos = (606,700);
}
);
layerId = "1127FDDC-7967-4E0A-BDB2-81E1CCE90981";
shapes = (
{
closed = 1;
nodes = (
(355,715,o),
(66,578,o),
(66,345,cs),
(66,143,o),
(331,-15,o),
(651,-15,cs),
(782,-15,o),
(989,0,o),
(1145,127,c),
(1131,148,l),
(985,30,o),
(793,10,o),
(651,10,cs),
(368,10,o),
(186,150,o),
(186,345,cs),
(186,566,o),
(417,690,o),
(656,690,cs),
(850,690,o),
(1047,621,o),
(1123,470,c),
(1133,470,l),
(1106,637,l),
(981,690,o),
(821,715,o),
(671,715,cs)
);
}
);
width = 1211;
},
{
anchors = (
{
name = bottom;
pos = (305,0);
},
{
name = top;
pos = (305,700);
}
);
layerId = "B6803316-6B37-45A2-910F-F0CA711B465A";
shapes = (
{
closed = 1;
nodes = (
(183,715,o),
(60,574,o),
(60,345,cs),
(60,143,o),
(166,-15,o),
(341,-13,cs),
(451,-12,o),
(523,76,o),
(558,179,c),
(536,191,l),
(498,79,o),
(425,10,o),
(340,12,cs),
(228,14,o),
(160,142,o),
(160,345,cs),
(160,565,o),
(243,690,o),
(344,690,cs),
(420,690,o),
(492,619,o),
(538,470,c),
(548,470,l),
(527,637,l),
(496,679,o),
(433,715,o),
(333,715,cs)
);
}
);
width = 609;
},
{
associatedMasterId = "1127FDDC-7967-4E0A-BDB2-81E1CCE90981";
layerId = "6E4D13E0-BE61-4882-9688-5E3D56BC5952";
name = "Feb 9 19, 17:53";
shapes = (
{
closed = 1;
nodes = (
(844,176,l),
(771,71,o),
(629,10,o),
(503,10,cs),
(309,10,o),
(175,150,o),
(175,350,cs),
(175,549,o),
(310,690,o),
(491,690,cs),
(643,690,o),
(739,620,o),
(811,470,c),
(821,470,l),
(794,637,l),
(717,687,o),
(613,715,o),
(503,715,cs),
(259,715,o),
(60,546,o),
(60,350,cs),
(60,143,o),
(259,-15,o),
(503,-15,cs),
(648,-15,o),
(787,55,o),
(864,161,c)
);
}
);
width = 914;
},
{
associatedMasterId = "1127FDDC-7967-4E0A-BDB2-81E1CCE90981";
layerId = "A9A59328-D1D9-479B-8982-C7B5E6AB17F1";
name = "Feb 18 19, 14:29";
shapes = (
{
closed = 1;
nodes = (
(784,-15,o),
(947,8,o),
(1048,60,c),
(1048,88,l),
(945,33,o),
(798,10,o),
(656,10,cs),
(373,10,o),
(170,150,o),
(170,345,cs),
(170,549,o),
(373,690,o),
(674,690,cs),
(858,690,o),
(1036,633,o),
(1114,470,c),
(1124,470,l),
(1097,637,l),
(957,694,o),
(832,715,o),
(674,715,cs),
(334,715,o),
(60,546,o),
(60,345,cs),
(60,143,o),
(334,-15,o),
(656,-15,cs)
);
}
);
width = 1164;
},
{
anchors = (
{
name = bottom;
pos = (336,0);
},
{
name = top;
pos = (376,700);
}
);
layerId = "52EA2D2A-A4E3-47AA-B963-53B6A9E26FA1";
shapes = (
{
closed = 1;
nodes = (
(179,715,o),
(42,574,o),
(42,345,cs),
(42,107,o),
(220,-14,o),
(399,-14,cs),
(583,-14,o),
(632,107,o),
(641,172,c),
(606,179,l),
(583,102,o),
(530,62,o),
(467,62,cs),
(338,62,o),
(264,189,o),
(264,373,cs),
(264,563,o),
(313,680,o),
(407,680,cs),
(480,680,o),
(544,619,o),
(590,470,c),
(630,470,l),
(609,637,l),
(585,671,o),
(512,715,o),
(384,715,cs)
);
}
);
width = 671;
},
{
anchors = (
{
name = bottom;
pos = (324,0);
},
{
name = top;
pos = (324,700);
}
);
layerId = "ECEC25EE-2268-427F-924A-A8A033D1E43A";
shapes = (
{
closed = 1;
nodes = (
(201,715,o),
(78,574,o),
(78,345,cs),
(78,143,o),
(197,-15,o),
(349,-15,cs),
(522,-15,o),
(565,121,o),
(576,179,c),
(562,184,l),
(543,98,o),
(493,0,o),
(349,0,cs),
(201,0,o),
(128,179,o),
(128,344,cs),
(128,516,o),
(207,700,o),
(362,700,cs),
(438,700,o),
(525,619,o),
(556,470,c),
(566,470,l),
(545,637,l),
(514,679,o),
(451,715,o),
(351,715,cs)
);
}
);
width = 647;
},
{
anchors = (
{
name = bottom;
pos = (612,0);
},
{
name = top;
pos = (612,700);
}
);
layerId = "C70D92E6-6044-4AAB-ADF3-B84826DC9CB7";
shapes = (
{
closed = 1;
nodes = (
(362,715,o),
(73,578,o),
(73,345,cs),
(73,143,o),
(338,-15,o),
(658,-15,cs),
(929,-15,o),
(1077,58,o),
(1152,127,c),
(1144,140,l),
(1079,80,o),
(940,0,o),
(658,0,cs),
(298,0,o),
(123,171,o),
(123,343,cs),
(123,521,o),
(307,700,o),
(663,700,cs),
(897,700,o),
(1085,647,o),
(1130,470,c),
(1140,470,l),
(1113,637,l),
(988,690,o),
(828,715,o),
(678,715,cs)
);
}
);
width = 1223;
},
{
associatedMasterId = "ECEC25EE-2268-427F-924A-A8A033D1E43A";
layerId = "B4E5BBCC-0FA4-4CD9-8AF9-181B86EDFE20";
name = "Mar 26 19, 14:11";
shapes = (
{
closed = 1;
nodes = (
(445,-15,o),
(513,76,o),
(548,179,c),
(534,184,l),
(488,76,o),
(415,0,o),
(321,0,cs),
(173,0,o),
(100,179,o),
(100,344,cs),
(100,516,o),
(179,700,o),
(334,700,cs),
(410,700,o),
(497,619,o),
(528,470,c),
(538,470,l),
(517,637,l),
(486,679,o),
(423,715,o),
(323,715,cs),
(173,715,o),
(50,574,o),
(50,345,cs),
(50,143,o),
(169,-15,o),
(321,-15,cs)
);
}
);
width = 600;
},
{
associatedMasterId = "C70D92E6-6044-4AAB-ADF3-B84826DC9CB7";
layerId = "87E3277C-7F4B-44FF-8158-981FE226DE29";
name = "Mar 27 19, 14:12";
shapes = (
{
closed = 1;
nodes = (
(776,-15,o),
(978,6,o),
(1139,127,c),
(1131,140,l),
(979,30,o),
(787,0,o),
(645,0,cs),
(285,0,o),
(110,171,o),
(110,343,cs),
(110,521,o),
(294,700,o),
(650,700,cs),
(884,700,o),
(1072,647,o),
(1117,470,c),
(1127,470,l),
(1100,637,l),
(975,690,o),
(815,715,o),
(665,715,cs),
(349,715,o),
(60,578,o),
(60,345,cs),
(60,143,o),
(325,-15,o),
(645,-15,cs)
);
}
);
width = 1169;
},
{
anchors = (
{
name = bottom;
pos = (567,0);
},
{
name = top;
pos = (567,700);
}
);
layerId = "92782D03-6C32-4A0E-AEF4-B0D65DFAA275";
shapes = (
{
closed = 1;
nodes = (
(335,715,o),
(44,578,o),
(44,345,cs),
(44,82,o),
(335,-15,o),
(677,-15,cs),
(921,-15,o),
(1050,78,o),
(1093,127,c),
(1067,151,l),
(1022,102,o),
(915,46,o),
(748,46,cs),
(482,46,o),
(324,179,o),
(324,378,cs),
(324,519,o),
(437,680,o),
(677,680,cs),
(800,680,o),
(957,621,o),
(1051,470,c),
(1081,470,l),
(1054,637,l),
(929,690,o),
(769,715,o),
(649,715,cs)
);
}
);
width = 1134;
},
{
associatedMasterId = "52EA2D2A-A4E3-47AA-B963-53B6A9E26FA1";
layerId = "77F6607D-948F-46AD-AFAD-B1EF918C7F51";
name = "May 5 19, 16:37";
shapes = (
{
closed = 1;
nodes = (
(187,715,o),
(50,574,o),
(50,345,cs),
(50,143,o),
(169,-15,o),
(429,-15,cs),
(610,-15,o),
(636,118,o),
(649,172,c),
(614,179,l),
(598,93,o),
(549,21,o),
(453,21,cs),
(334,21,o),
(274,183,o),
(274,347,cs),
(274,513,o),
(335,680,o),
(423,680,cs),
(498,680,o),
(552,619,o),
(598,470,c),
(638,470,l),
(617,637,l),
(586,679,o),
(535,715,o),
(415,715,cs)
);
}
);
width = 688;
},
{
associatedMasterId = "92782D03-6C32-4A0E-AEF4-B0D65DFAA275";
layerId = "3DA4A995-1573-42F8-B7A7-DC2D80CF5DD7";
name = "May 5 19, 16:56";
shapes = (
{
closed = 1;
nodes = (
(329,715,o),
(40,578,o),
(40,345,cs),
(40,117,o),
(332,-15,o),
(673,-15,cs),
(900,-15,o),
(1023,53,o),
(1089,127,c),
(1063,151,l),
(978,49,o),
(804,20,o),
(711,20,cs),
(474,20,o),
(325,140,o),
(325,341,cs),
(325,509,o),
(430,680,o),
(681,680,cs),
(788,680,o),
(953,621,o),
(1047,470,c),
(1077,470,l),
(1050,637,l),
(925,690,o),
(765,715,o),
(645,715,cs)
);
}
);
width = 1119;
}
);
metricLeft = O;
unicode = 67;
},
{
glyphname = D;
kernLeft = H;
kernRight = O;
lastChange = "2022-01-30 14:40:57 +0000";
layers = (
{
anchors = (
{
name = bottom;
pos = (595,0);
},
{
name = center;
pos = (595,350);
},
{
name = top;
pos = (595,700);
}
);
layerId = "1127FDDC-7967-4E0A-BDB2-81E1CCE90981";
shapes = (
{
closed = 1;
nodes = (
(49,700,l),
(49,690,l),
(115,684,o),
(150,665,o),
(149,616,cs),
(149,84,ls),
(149,36,o),
(114,17,o),
(49,10,c),
(49,0,l),
(662,0,ls),
(953,0,o),
(1115,133,o),
(1115,345,cs),
(1115,581,o),
(938,700,o),
(649,700,cs)
);
},
{
closed = 1;
nodes = (
(249,25,l),
(249,675,l),
(631,675,ls),
(888,675,o),
(1005,562,o),
(1005,345,cs),
(1005,150,o),
(889,25,o),
(646,25,cs)
);
}
);
width = 1189;
},
{
anchors = (
{
name = bottom;
pos = (339,0);
},
{
name = center;
pos = (339,350);
},
{
name = top;
pos = (339,700);
}
);
layerId = "B6803316-6B37-45A2-910F-F0CA711B465A";
shapes = (
{
closed = 1;
nodes = (
(25,700,l),
(25,690,l),
(91,684,o),
(126,665,o),
(125,616,cs),
(125,84,ls),
(125,36,o),
(90,17,o),
(25,10,c),
(25,0,l),
(296,0,ls),
(503,0,o),
(618,140,o),
(618,346,cs),
(618,565,o),
(511,700,o),
(287,700,cs)
);
},
{
closed = 1;
nodes = (
(220,25,l),
(220,675,l),
(251,675,ls),
(461,675,o),
(518,537,o),
(518,346,cs),
(518,157,o),
(467,25,o),
(251,25,cs)
);
}
);
width = 677;
},
{
anchors = (
{
name = bottom;
pos = (357,0);
},
{
name = center;
pos = (357,350);
},
{
name = top;
pos = (357,700);
}
);
layerId = "52EA2D2A-A4E3-47AA-B963-53B6A9E26FA1";
shapes = (
{
closed = 1;
nodes = (
(25,700,l),
(25,680,l),
(50,679,o),
(85,674,o),
(85,616,cs),
(85,84,ls),
(85,26,o),
(50,21,o),
(25,20,c),
(25,0,l),
(368,0,ls),
(576,0,o),
(680,175,o),
(680,350,cs),
(680,525,o),
(576,700,o),
(368,700,cs)
);
},
{
closed = 1;
nodes = (
(305,35,l),
(305,665,l),
(316,665,ls),
(411,665,o),
(454,504,o),
(454,345,cs),
(454,189,o),
(413,35,o),
(316,35,cs)
);
}
);
width = 714;
},
{
anchors = (
{
name = bottom;
pos = (356,0);
},
{
name = center;
pos = (356,350);
},
{
name = top;
pos = (356,700);
}
);
layerId = "ECEC25EE-2268-427F-924A-A8A033D1E43A";
shapes = (
{
closed = 1;
nodes = (
(44,700,l),
(44,690,l),
(120,683,o),
(144,679,o),
(144,631,cs),
(144,69,ls),
(144,21,o),
(119,17,o),
(44,10,c),
(44,0,l),
(311,0,ls),
(549,0,o),
(637,175,o),
(637,350,cs),
(637,525,o),
(549,700,o),
(311,700,cs)
);
},
{
closed = 1;
nodes = (
(189,15,l),
(189,685,l),
(270,685,ls),
(499,685,o),
(587,525,o),
(587,346,cs),
(587,170,o),
(503,15,o),
(270,15,cs)
);
}
);
width = 712;
},
{
anchors = (
{
name = bottom;
pos = (585,0);
},
{
name = center;
pos = (585,350);
},
{
name = top;
pos = (585,700);
}
);
layerId = "92782D03-6C32-4A0E-AEF4-B0D65DFAA275";
shapes = (
{
closed = 1;
nodes = (
(27,700,l),
(27,676,l),
(113,669,o),
(177,676,o),
(177,576,cs),
(177,124,ls),
(177,24,o),
(113,31,o),
(27,24,c),
(27,0,l),
(680,0,ls),
(994,0,o),
(1123,174,o),
(1123,348,cs),
(1123,524,o),
(992,700,o),
(667,700,cs)
);
},
{
closed = 1;
nodes = (
(457,25,l),
(457,675,l),
(549,675,ls),
(742,675,o),
(838,509,o),
(838,344,cs),
(838,184,o),
(746,25,o),
(564,25,cs)
);
}
);
width = 1170;
},
{
anchors = (
{
name = bottom;
pos = (598,0);
},
{
name = center;
pos = (598,350);
},
{
name = top;
pos = (598,700);
}
);
layerId = "C70D92E6-6044-4AAB-ADF3-B84826DC9CB7";
shapes = (
{
closed = 1;
nodes = (
(54,700,l),
(54,690,l),
(150,683,o),
(224,682,o),
(224,596,cs),
(224,104,ls),
(224,18,o),
(150,17,o),
(54,10,c),
(54,0,l),
(677,0,ls),
(971,0,o),
(1120,164,o),
(1120,348,cs),
(1120,534,o),
(969,700,o),
(664,700,cs)
);
},
{
closed = 1;
nodes = (
(269,15,l),
(269,685,l),
(646,685,ls),
(929,685,o),
(1070,525,o),
(1070,346,cs),
(1070,170,o),
(933,15,o),
(661,15,cs)
);
}
);
width = 1196;
},
{
associatedMasterId = "B6803316-6B37-45A2-910F-F0CA711B465A";
layerId = "0AC782C4-2677-410D-A218-D459D801D44E";
name = "Mar 28 19, 13:59";
shapes = (
{
closed = 1;
nodes = (
(311,0,ls),
(518,0,o),
(633,140,o),
(633,346,cs),
(633,565,o),
(526,700,o),
(302,700,cs),
(141,700,l),
(141,675,l),
(266,675,ls),
(476,675,o),
(523,537,o),
(523,346,cs),
(523,157,o),
(482,25,o),
(266,25,cs),
(141,25,l),
(141,0,l)
);
},
{
closed = 1;
nodes = (
(140,0,l),
(140,84,l),
(140,36,o),
(105,17,o),
(40,10,c),
(40,0,l)
);
},
{
closed = 1;
nodes = (
(240,0,l),
(240,700,l),
(140,700,l),
(140,0,l)
);
},
{
closed = 1;
nodes = (
(140,700,l),
(40,700,l),
(40,690,l),
(106,684,o),
(141,665,o),
(140,616,c)
);
}
);
width = 678;
},
{
associatedMasterId = "ECEC25EE-2268-427F-924A-A8A033D1E43A";
layerId = "2BB6A533-9BCA-4B87-A4D7-B6D976DCD735";
name = "Mar 28 19, 14:05";
shapes = (
{
closed = 1;
nodes = (
(307,0,ls),
(545,0,o),
(633,175,o),
(633,350,cs),
(633,525,o),
(545,700,o),
(307,700,cs),
(141,700,l),
(141,685,l),
(266,685,ls),
(495,685,o),
(583,525,o),
(583,346,cs),
(583,170,o),
(499,15,o),
(266,15,cs),
(141,15,l),
(141,0,l)
);
},
{
closed = 1;
nodes = (
(140,0,l),
(140,69,l),
(140,21,o),
(115,17,o),
(40,10,c),
(40,0,l)
);
},
{
closed = 1;
nodes = (
(185,0,l),
(185,700,l),
(140,700,l),
(140,0,l)
);
},
{
closed = 1;
nodes = (
(140,700,l),
(40,700,l),
(40,690,l),
(116,683,o),
(140,679,o),
(140,631,c)
);
}
);
width = 693;
},
{
associatedMasterId = "52EA2D2A-A4E3-47AA-B963-53B6A9E26FA1";
layerId = "B3D268A9-B9B9-48F1-87B2-DBB8D47D0067";
name = "Mar 28 19, 14:06";
shapes = (
{
closed = 1;
nodes = (
(290,700,l),
(10,700,l),
(10,690,l),
(35,683,o),
(70,674,o),
(70,616,cs),
(70,84,ls),
(70,26,o),
(35,17,o),
(10,10,c),
(10,0,l),
(290,0,l)
);
},
{
closed = 1;
nodes = (
(353,0,ls),
(561,0,o),
(665,175,o),
(665,350,cs),
(665,525,o),
(561,700,o),
(353,700,cs),
(147,700,l),
(147,665,l),
(301,665,ls),
(396,665,o),
(439,504,o),
(439,345,cs),
(439,189,o),
(398,35,o),
(301,35,cs),
(147,35,l),
(147,0,l)
);
}
);
width = 679;
},
{
associatedMasterId = "C70D92E6-6044-4AAB-ADF3-B84826DC9CB7";
layerId = "FD1859C0-6D14-4BB0-ADA9-0A4BAAF2E60E";
name = "Mar 28 19, 14:08";
shapes = (
{
closed = 1;
nodes = (
(265,700,l),
(50,700,l),
(50,690,l),
(146,683,o),
(220,682,o),
(220,596,cs),
(220,104,ls),
(220,18,o),
(146,17,o),
(50,10,c),
(50,0,l),
(265,0,l)
);
},
{
closed = 1;
nodes = (
(673,0,ls),
(967,0,o),
(1116,164,o),
(1116,348,cs),
(1116,534,o),
(965,700,o),
(660,700,cs),
(230,700,l),
(230,685,l),
(642,685,ls),
(925,685,o),
(1066,525,o),
(1066,346,cs),
(1066,170,o),
(929,15,o),
(657,15,cs),
(230,15,l),
(230,0,l)
);
}
);
width = 1196;
},
{
associatedMasterId = "1127FDDC-7967-4E0A-BDB2-81E1CCE90981";
layerId = "15C7B122-761B-4850-A82C-11B5199D4849";
name = "Mar 28 19, 14:08";
shapes = (
{
closed = 1;
nodes = (
(553,0,ls),
(884,0,o),
(1076,123,o),
(1076,345,cs),
(1076,591,o),
(869,700,o),
(540,700,cs),
(230,700,l),
(230,675,l),
(532,675,ls),
(849,675,o),
(966,572,o),
(966,345,cs),
(966,140,o),
(850,25,o),
(547,25,cs),
(230,25,l),
(230,0,l)
);
},
{
closed = 1;
nodes = (
(140,0,l),
(140,84,l),
(140,36,o),
(105,17,o),
(40,10,c),
(40,0,l)
);
},
{
closed = 1;
nodes = (
(240,0,l),
(240,700,l),
(140,700,l),
(140,0,l)
);
},
{
closed = 1;
nodes = (
(140,700,l),
(40,700,l),
(40,690,l),
(106,684,o),
(141,665,o),
(140,616,c)
);
}
);
width = 1146;
},
{
associatedMasterId = "92782D03-6C32-4A0E-AEF4-B0D65DFAA275";
layerId = "BBA175DA-5296-42FC-B0A8-08758A9775C0";
name = "Mar 28 19, 14:26";
shapes = (
{
closed = 1;
nodes = (
(450,700,l),
(20,700,l),
(20,686,l),
(106,679,o),
(170,676,o),
(170,576,cs),
(170,124,ls),
(170,24,o),
(106,21,o),
(20,14,c),
(20,0,l),
(450,0,l)
);
},
{
closed = 1;
nodes = (
(673,0,ls),
(987,0,o),
(1116,174,o),
(1116,348,cs),
(1116,524,o),
(985,700,o),
(660,700,cs),
(230,700,l),
(230,675,l),
(542,675,ls),
(735,675,o),
(831,509,o),
(831,344,cs),
(831,184,o),
(739,25,o),
(557,25,cs),
(230,25,l),
(230,0,l)
);
}
);
width = 1206;
}
);
unicode = 68;
},
{
glyphname = Eth;
lastChange = "2019-11-11 18:57:59 +0000";
layers = (
{
guides = (
{
pos = (674,350);
}
);
layerId = "ECEC25EE-2268-427F-924A-A8A033D1E43A";
shapes = (
{
closed = 1;
nodes = (
(30,342,l),
(342,342,l),
(342,358,l),
(30,358,l)
);
},
{
ref = D;
}
);
width = 712;
},
{
layerId = "B6803316-6B37-45A2-910F-F0CA711B465A";
shapes = (
{
closed = 1;
nodes = (
(30,337,l),
(342,337,l),
(342,363,l),
(30,363,l)
);
},
{
ref = D;
}
);
width = 677;
},
{
layerId = "52EA2D2A-A4E3-47AA-B963-53B6A9E26FA1";
shapes = (
{
closed = 1;
nodes = (
(30,332,l),
(372,332,l),
(372,368,l),
(30,368,l)
);
},
{
ref = D;
}
);
width = 714;
},
{
layerId = "C70D92E6-6044-4AAB-ADF3-B84826DC9CB7";
shapes = (
{
closed = 1;
nodes = (
(30,342,l),
(551,342,l),
(551,358,l),
(30,358,l)
);
},
{
ref = D;
}
);
width = 1196;
},
{
layerId = "1127FDDC-7967-4E0A-BDB2-81E1CCE90981";
shapes = (
{
closed = 1;
nodes = (
(30,337,l),
(562,337,l),
(562,363,l),
(30,363,l)
);
},
{
ref = D;
}
);
width = 1189;
},
{
layerId = "92782D03-6C32-4A0E-AEF4-B0D65DFAA275";
shapes = (
{
closed = 1;
nodes = (
(30,332,l),
(620,332,l),
(620,368,l),
(30,368,l)
);
},
{
ref = D;
}
);
width = 1170;
}
);
unicode = 208;
},
{
glyphname = E;
kernLeft = H;
kernRight = E;
lastChange = "2022-01-30 14:40:57 +0000";
layers = (
{
anchors = (
{
name = bottom;
pos = (285,0);
},
{
name = ogonek;
pos = (512,10);
},
{
name = top;
pos = (285,700);
},
{
name = topleft;
pos = (20,700);
}
);
layerId = "B6803316-6B37-45A2-910F-F0CA711B465A";
shapes = (
{
closed = 1;
nodes = (
(427,675,o),
(470,574,o),
(477,475,c),
(487,475,l),
(487,700,l),
(25,700,l),
(25,690,l),
(90,683,o),
(125,664,o),
(125,616,cs),
(125,84,ls),
(125,36,o),
(90,17,o),
(25,10,c),
(25,0,l),
(487,0,l),
(487,225,l),
(477,225,l),
(470,126,o),
(427,25,o),
(334,25,cs),
(220,25,l),
(220,475,l),
(234,475,ls),
(305,475,o),
(385,381,o),
(414,307,c),
(424,310,l),
(319,620,l),
(309,617,l),
(331,536,o),
(314,500,o),
(234,500,cs),
(220,500,l),
(220,675,l),
(334,675,ls)
);
}
);
width = 569;
},
{
associatedMasterId = "B6803316-6B37-45A2-910F-F0CA711B465A";
layerId = "215F09D6-0B66-4DB9-B491-307CC3E15E8E";
name = "Feb 10 19, 18:09";
shapes = (
{
closed = 1;
nodes = (
(240,0,l),
(240,700,l),
(140,700,l),
(140,0,l)
);
},
{
closed = 1;
nodes = (
(140,0,l),
(140,84,l),
(140,36,o),
(105,17,o),
(40,10,c),
(40,0,l)
);
},
{
closed = 1;
nodes = (
(502,0,l),
(502,25,l),
(209,25,l),
(209,0,l)
);
},
{
closed = 1;
nodes = (
(502,25,l),
(502,225,l),
(492,225,l),
(485,126,o),
(442,25,o),
(349,25,c)
);
},
{
closed = 1;
nodes = (
(140,700,l),
(40,700,l),
(40,690,l),
(105,683,o),
(140,664,o),
(140,616,c)
);
},
{
closed = 1;
nodes = (
(320,475,l),
(320,500,l),
(209,500,l),
(209,475,l)
);
},
{
closed = 1;
nodes = (
(439,310,l),
(334,620,l),
(324,617,l),
(346,536,o),
(329,500,o),
(249,500,c),
(249,475,l),
(320,475,o),
(400,381,o),
(429,307,c)
);
},
{
closed = 1;
nodes = (
(502,475,l),
(502,675,l),
(349,675,l),
(442,675,o),
(485,574,o),
(492,475,c)
);
},
{
closed = 1;
nodes = (
(502,675,l),
(502,700,l),
(220,700,l),
(220,675,l)
);
}
);
width = 552;
},
{
anchors = (
{
name = bottom;
pos = (537,0);
},
{
name = ogonek;
pos = (967,10);
},
{
name = top;
pos = (537,700);
},
{
name = topleft;
pos = (20,700);
}
);
layerId = "1127FDDC-7967-4E0A-BDB2-81E1CCE90981";
shapes = (
{
closed = 1;
nodes = (
(895,675,o),
(954,574,o),
(961,455,c),
(971,455,l),
(971,700,l),
(49,700,l),
(49,690,l),
(132,683,o),
(238,663,o),
(239,576,cs),
(239,124,ls),
(239,37,o),
(133,17,o),
(49,10,c),
(49,0,l),
(971,0,l),
(971,245,l),
(961,245,l),
(954,125,o),
(895,25,o),
(758,25,cs),
(339,25,l),
(339,475,l),
(548,475,ls),
(623,475,o),
(690,415,o),
(747,274,c),
(757,277,l),
(643,620,l),
(633,617,l),
(651,536,o),
(629,500,o),
(548,500,cs),
(339,500,l),
(339,675,l),
(758,675,ls)
);
}
);
width = 1074;
},
{
anchors = (
{
name = bottom;
pos = (315,0);
},
{
name = ogonek;
pos = (566,10);
},
{
name = top;
pos = (315,700);
},
{
name = topleft;
pos = (20,700);
}
);
layerId = "52EA2D2A-A4E3-47AA-B963-53B6A9E26FA1";
shapes = (
{
closed = 1;
nodes = (
(517,665,o),
(540,544,o),
(547,455,c),
(567,455,l),
(567,700,l),
(25,700,l),
(25,680,l),
(50,679,o),
(85,674,o),
(85,616,cs),
(85,84,ls),
(85,26,o),
(50,21,o),
(25,20,c),
(25,0,l),
(567,0,l),
(567,245,l),
(547,245,l),
(540,156,o),
(517,35,o),
(354,35,cs),
(305,35,l),
(305,465,l),
(314,465,ls),
(365,465,o),
(441,395,o),
(486,297,c),
(504,300,l),
(399,620,l),
(381,617,l),
(393,541,o),
(374,500,o),
(314,500,cs),
(305,500,l),
(305,665,l),
(354,665,ls)
);
}
);
width = 629;
},
{
anchors = (
{
name = bottom;
pos = (301,0);
},
{
name = ogonek;
pos = (541,10);
},
{
name = top;
pos = (301,700);
},
{
name = topleft;
pos = (20,700);
}
);
layerId = "ECEC25EE-2268-427F-924A-A8A033D1E43A";
shapes = (
{
closed = 1;
nodes = (
(466,685,o),
(489,635,o),
(496,485,c),
(506,485,l),
(506,700,l),
(44,700,l),
(44,690,l),
(110,683,o),
(144,679,o),
(144,631,cs),
(144,69,ls),
(144,21,o),
(109,17,o),
(44,10,c),
(44,0,l),
(506,0,l),
(506,214,l),
(496,214,l),
(490,76,o),
(470,15,o),
(379,15,cs),
(189,15,l),
(189,485,l),
(198,485,ls),
(339,485,o),
(364,478,o),
(433,307,c),
(443,310,l),
(338,620,l),
(328,617,l),
(355,500,o),
(338,500,o),
(198,500,cs),
(189,500,l),
(189,685,l),
(353,685,ls)
);
}
);
width = 601;
},
{
anchors = (
{
name = bottom;
pos = (519,0);
},
{
name = ogonek;
pos = (933,10);
},
{
name = top;
pos = (519,700);
},
{
name = topleft;
pos = (20,700);
}
);
layerId = "92782D03-6C32-4A0E-AEF4-B0D65DFAA275";
shapes = (
{
closed = 1;
nodes = (
(853,665,o),
(932,574,o),
(939,455,c),
(959,455,l),
(959,700,l),
(27,700,l),
(27,676,l),
(113,669,o),
(177,676,o),
(177,576,cs),
(177,124,ls),
(177,24,o),
(113,31,o),
(27,24,c),
(27,0,l),
(959,0,l),
(959,245,l),
(939,245,l),
(932,125,o),
(853,35,o),
(686,35,cs),
(457,35,l),
(457,465,l),
(524,465,ls),
(601,465,o),
(673,395,o),
(727,274,c),
(745,277,l),
(631,620,l),
(613,617,l),
(623,545,o),
(607,500,o),
(524,500,cs),
(457,500,l),
(457,665,l),
(686,665,ls)
);
}
);
width = 1037;
},
{
anchors = (
{
name = bottom;
pos = (533,0);
},
{
name = ogonek;
pos = (959,10);
},
{
name = top;
pos = (533,700);
},
{
name = topleft;
pos = (20,700);
}
);
layerId = "C70D92E6-6044-4AAB-ADF3-B84826DC9CB7";
shapes = (
{
closed = 1;
nodes = (
(917,685,o),
(940,605,o),
(947,455,c),
(957,455,l),
(957,700,l),
(54,700,l),
(54,690,l),
(150,683,o),
(224,682,o),
(224,596,cs),
(224,104,ls),
(224,18,o),
(150,17,o),
(54,10,c),
(54,0,l),
(957,0,l),
(957,244,l),
(947,244,l),
(941,106,o),
(921,15,o),
(830,15,cs),
(269,15,l),
(269,485,l),
(542,484,ls),
(638,484,o),
(664,453,o),
(724,307,c),
(734,310,l),
(629,620,l),
(619,617,l),
(642,517,o),
(633,500,o),
(542,500,cs),
(269,500,l),
(269,685,l),
(804,685,ls)
);
}
);
width = 1065;
},
{
associatedMasterId = "ECEC25EE-2268-427F-924A-A8A033D1E43A";
layerId = "B8EA55B3-ECF0-4351-B46B-76630A797EDD";
name = "Mar 26 19, 14:25";
shapes = (
{
closed = 1;
nodes = (
(185,0,l),
(185,700,l),
(140,700,l),
(140,0,l)
);
},
{
closed = 1;
nodes = (
(502,0,l),
(502,15,l),
(154,15,l),
(154,0,l)
);
},
{
closed = 1;
nodes = (
(502,485,l),
(502,685,l),
(349,685,l),
(462,685,o),
(485,635,o),
(492,485,c)
);
},
{
closed = 1;
nodes = (
(502,685,l),
(502,700,l),
(165,700,l),
(165,685,l)
);
},
{
closed = 1;
nodes = (
(140,0,l),
(140,69,l),
(140,21,o),
(105,17,o),
(40,10,c),
(40,0,l)
);
},
{
closed = 1;
nodes = (
(140,700,l),
(40,700,l),
(40,690,l),
(106,683,o),
(140,679,o),
(140,631,c)
);
},
{
closed = 1;
nodes = (
(194,485,ls),
(335,485,o),
(360,478,o),
(429,307,c),
(439,310,l),
(334,620,l),
(324,617,l),
(351,500,o),
(334,500,o),
(194,500,cs),
(154,500,l),
(154,485,l)
);
},
{
closed = 1;
nodes = (
(485,64,o),
(462,14,o),
(349,14,c),
(502,14,l),
(502,214,l),
(492,214,l)
);
}
);
width = 602;
},
{
associatedMasterId = "52EA2D2A-A4E3-47AA-B963-53B6A9E26FA1";
layerId = "1182D38C-F736-4F16-A06F-AD55AFF618D1";
name = "Mar 26 19, 14:56";
shapes = (
{
closed = 1;
nodes = (
(290,0,l),
(290,700,l),
(10,700,l),
(10,690,l),
(35,683,o),
(70,674,o),
(70,616,cs),
(70,84,ls),
(70,26,o),
(35,17,o),
(10,10,c),
(10,0,l)
);
},
{
closed = 1;
nodes = (
(552,0,l),
(552,25,l),
(259,25,l),
(259,0,l)
);
},
{
closed = 1;
nodes = (
(552,25,l),
(552,245,l),
(542,245,l),
(535,156,o),
(502,25,o),
(339,25,c)
);
},
{
closed = 1;
nodes = (
(552,455,l),
(552,675,l),
(339,675,l),
(502,675,o),
(535,544,o),
(542,455,c)
);
},
{
closed = 1;
nodes = (
(552,675,l),
(552,700,l),
(270,700,l),
(270,675,l)
);
},
{
closed = 1;
nodes = (
(299,475,ls),
(350,475,o),
(434,406,o),
(479,307,c),
(489,310,l),
(384,620,l),
(374,617,l),
(386,541,o),
(359,500,o),
(299,500,cs),
(259,500,l),
(259,475,l)
);
}
);
width = 600;
},
{
associatedMasterId = "C70D92E6-6044-4AAB-ADF3-B84826DC9CB7";
layerId = "94087BAE-AE4E-4478-9FF2-2534ED250D62";
name = "Mar 27 19, 13:53";
shapes = (
{
closed = 1;
nodes = (
(260,0,l),
(953,0,l),
(953,244,l),
(943,244,l),
(937,106,o),
(917,23,o),
(826,15,c),
(260,15,l)
);
},
{
closed = 1;
nodes = (
(260,485,l),
(538,484,ls),
(634,484,o),
(660,453,o),
(720,307,c),
(730,310,l),
(625,620,l),
(615,617,l),
(638,517,o),
(629,500,o),
(538,500,cs),
(260,500,l)
);
},
{
closed = 1;
nodes = (
(260,685,l),
(800,685,ls),
(913,685,o),
(936,605,o),
(943,455,c),
(953,455,l),
(953,700,l),
(260,700,l)
);
},
{
closed = 1;
nodes = (
(265,700,l),
(50,700,l),
(50,690,l),
(146,683,o),
(220,682,o),
(220,596,cs),
(220,104,ls),
(220,18,o),
(146,17,o),
(50,10,c),
(50,0,l),
(265,0,l)
);
}
);
width = 1103;
},
{
associatedMasterId = "1127FDDC-7967-4E0A-BDB2-81E1CCE90981";
layerId = "AEF2644C-09BC-42F1-9D7F-940D6476D831";
name = "Mar 27 19, 15:15";
shapes = (
{
closed = 1;
nodes = (
(330,0,l),
(962,0,l),
(962,245,l),
(952,245,l),
(945,125,o),
(886,25,o),
(749,25,cs),
(324,25,l)
);
},
{
closed = 1;
nodes = (
(324,675,l),
(749,675,ls),
(886,675,o),
(945,574,o),
(952,455,c),
(962,455,l),
(962,700,l),
(330,700,l)
);
},
{
closed = 1;
nodes = (
(324,475,l),
(539,475,ls),
(614,475,o),
(681,415,o),
(738,274,c),
(748,277,l),
(634,620,l),
(624,617,l),
(642,536,o),
(620,500,o),
(539,500,cs),
(324,500,l)
);
},
{
closed = 1;
nodes = (
(330,681,l),
(330,700,l),
(40,700,l),
(40,690,l),
(123,683,o),
(229,663,o),
(230,576,cs),
(230,124,ls),
(230,37,o),
(124,17,o),
(40,10,c),
(40,0,l),
(330,0,l),
(330,19,l)
);
}
);
width = 1112;
},
{
associatedMasterId = "92782D03-6C32-4A0E-AEF4-B0D65DFAA275";
layerId = "211E878B-43BF-4F51-847E-DC81DE24F448";
name = "Mar 27 19, 15:18";
shapes = (
{
closed = 1;
nodes = (
(460,700,l),
(30,700,l),
(30,686,l),
(116,679,o),
(180,676,o),
(180,576,cs),
(180,124,ls),
(180,24,o),
(116,21,o),
(30,14,c),
(30,0,l),
(460,0,l)
);
},
{
closed = 1;
nodes = (
(330,0,l),
(962,0,l),
(962,245,l),
(952,245,l),
(945,125,o),
(856,35,o),
(689,35,cs),
(324,35,l)
);
},
{
closed = 1;
nodes = (
(324,665,l),
(689,665,ls),
(856,665,o),
(945,574,o),
(952,455,c),
(962,455,l),
(962,700,l),
(330,700,l)
);
},
{
closed = 1;
nodes = (
(324,465,l),
(527,465,ls),
(604,465,o),
(684,395,o),
(738,274,c),
(748,277,l),
(634,620,l),
(624,617,l),
(634,545,o),
(610,500,o),
(527,500,cs),
(324,500,l)
);
}
);
width = 1092;
}
);
unicode = 69;
},
{
glyphname = F;
kernLeft = H;
kernRight = F;
lastChange = "2022-01-30 14:40:57 +0000";
layers = (
{
anchors = (
{
name = bottom;
pos = (521,0);
},
{
name = top;
pos = (521,700);
}
);
layerId = "1127FDDC-7967-4E0A-BDB2-81E1CCE90981";
shapes = (
{
closed = 1;
nodes = (
(49,700,l),
(49,690,l),
(132,683,o),
(238,663,o),
(239,576,cs),
(239,124,ls),
(239,39,o),
(133,19,o),
(49,10,c),
(49,0,l),
(529,0,l),
(529,10,l),
(445,19,o),
(339,39,o),
(339,124,cs),
(339,475,l),
(548,475,ls),
(623,475,o),
(690,415,o),
(747,274,c),
(757,277,l),
(643,620,l),
(633,617,l),
(651,536,o),
(629,500,o),
(548,500,cs),
(339,500,l),
(339,675,l),
(758,675,ls),
(895,675,o),
(954,574,o),
(961,455,c),
(971,455,l),
(971,700,l)
);
}
);
width = 1042;
},
{
anchors = (
{
name = bottom;
pos = (267,0);
},
{
name = top;
pos = (267,700);
}
);
layerId = "B6803316-6B37-45A2-910F-F0CA711B465A";
shapes = (
{
closed = 1;
nodes = (
(25,700,l),
(25,690,l),
(90,683,o),
(125,664,o),
(125,616,cs),
(125,84,ls),
(125,36,o),
(90,17,o),
(25,10,c),
(25,0,l),
(320,0,l),
(320,10,l),
(255,17,o),
(220,36,o),
(220,84,cs),
(220,475,l),
(234,475,ls),
(305,475,o),
(385,381,o),
(414,307,c),
(424,310,l),
(319,620,l),
(309,617,l),
(331,536,o),
(314,500,o),
(234,500,cs),
(220,500,l),
(220,675,l),
(334,675,ls),
(427,675,o),
(470,574,o),
(477,475,c),
(487,475,l),
(487,700,l)
);
}
);
width = 534;
},
{
associatedMasterId = "B6803316-6B37-45A2-910F-F0CA711B465A";
layerId = "2EDD9DE7-E8C5-4C5B-BF86-64CF10F2E998";
name = "Feb 10 19, 18:09";
shapes = (
{
closed = 1;
nodes = (
(240,0,l),
(240,700,l),
(140,700,l),
(140,0,l)
);
},
{
closed = 1;
nodes = (
(140,0,l),
(140,84,l),
(140,36,o),
(105,17,o),
(40,10,c),
(40,0,l)
);
},
{
closed = 1;
nodes = (
(340,0,l),
(340,10,l),
(275,17,o),
(240,36,o),
(240,84,c),
(240,0,l)
);
},
{
closed = 1;
nodes = (
(140,700,l),
(40,700,l),
(40,690,l),
(105,683,o),
(140,664,o),
(140,616,c)
);
},
{
closed = 1;
nodes = (
(330,475,l),
(330,500,l),
(209,500,l),
(209,475,l)
);
},
{
closed = 1;
nodes = (
(449,310,l),
(344,620,l),
(334,617,l),
(356,536,o),
(339,500,o),
(249,500,c),
(249,475,l),
(330,475,o),
(410,381,o),
(439,307,c)
);
},
{
closed = 1;
nodes = (
(512,475,l),
(512,675,l),
(359,675,l),
(452,675,o),
(495,574,o),
(502,475,c)
);
},
{
closed = 1;
nodes = (
(512,675,l),
(512,700,l),
(220,700,l),
(220,675,l)
);
}
);
width = 552;
},
{
associatedMasterId = "1127FDDC-7967-4E0A-BDB2-81E1CCE90981";
layerId = "3FA07D11-59D9-417A-A07F-45DB1DE548BE";
name = "Feb 10 19, 18:09";
shapes = (
{
closed = 1;
nodes = (
(758,277,l),
(644,620,l),
(634,617,l),
(652,536,o),
(630,500,o),
(549,500,c),
(549,475,l),
(624,475,o),
(691,415,o),
(748,274,c)
);
},
{
closed = 1;
nodes = (
(230,0,l),
(230,124,l),
(230,39,o),
(124,19,o),
(40,10,c),
(40,0,l)
);
},
{
closed = 1;
nodes = (
(520,0,l),
(520,10,l),
(436,19,o),
(330,39,o),
(330,124,c),
(330,0,l)
);
},
{
closed = 1;
nodes = (
(330,0,l),
(330,700,l),
(230,700,l),
(230,0,l)
);
},
{
closed = 1;
nodes = (
(230,700,l),
(40,700,l),
(40,690,l),
(123,683,o),
(229,663,o),
(230,576,c)
);
},
{
closed = 1;
nodes = (
(560,475,l),
(560,500,l),
(249,500,l),
(249,475,l)
);
},
{
closed = 1;
nodes = (
(972,675,l),
(972,700,l),
(260,700,l),
(260,675,l)
);
},
{
closed = 1;
nodes = (
(972,455,l),
(972,675,l),
(759,675,l),
(896,675,o),
(955,574,o),
(962,455,c)
);
}
);
width = 1072;
},
{
anchors = (
{
name = bottom;
pos = (298,0);
},
{
name = top;
pos = (298,700);
}
);
layerId = "52EA2D2A-A4E3-47AA-B963-53B6A9E26FA1";
shapes = (
{
closed = 1;
nodes = (
(25,700,l),
(25,680,l),
(50,679,o),
(85,674,o),
(85,616,cs),
(85,84,ls),
(85,26,o),
(50,21,o),
(25,20,c),
(25,0,l),
(365,0,l),
(365,20,l),
(340,21,o),
(305,26,o),
(305,84,cs),
(305,475,l),
(314,475,ls),
(365,475,o),
(441,405,o),
(486,307,c),
(504,310,l),
(399,620,l),
(381,617,l),
(393,541,o),
(374,500,o),
(314,500,cs),
(305,500,l),
(305,675,l),
(354,675,ls),
(517,675,o),
(540,544,o),
(547,455,c),
(567,455,l),
(567,700,l)
);
}
);
width = 595;
},
{
anchors = (
{
name = bottom;
pos = (285,0);
},
{
name = top;
pos = (285,700);
}
);
layerId = "ECEC25EE-2268-427F-924A-A8A033D1E43A";
shapes = (
{
closed = 1;
nodes = (
(44,700,l),
(44,690,l),
(110,683,o),
(144,679,o),
(144,631,cs),
(144,69,ls),
(144,21,o),
(109,17,o),
(44,10,c),
(44,0,l),
(289,0,l),
(289,10,l),
(224,17,o),
(189,21,o),
(189,69,cs),
(189,485,l),
(198,485,ls),
(339,485,o),
(364,478,o),
(433,307,c),
(443,310,l),
(338,620,l),
(328,617,l),
(355,500,o),
(338,500,o),
(198,500,cs),
(189,500,l),
(189,685,l),
(353,685,ls),
(466,685,o),
(489,635,o),
(496,485,c),
(506,485,l),
(506,700,l)
);
}
);
width = 570;
},
{
anchors = (
{
name = bottom;
pos = (503,0);
},
{
name = top;
pos = (503,700);
}
);
layerId = "92782D03-6C32-4A0E-AEF4-B0D65DFAA275";
shapes = (
{
closed = 1;
nodes = (
(27,700,l),
(27,676,l),
(113,669,o),
(177,676,o),
(177,576,cs),
(177,124,ls),
(177,24,o),
(113,31,o),
(27,24,c),
(27,0,l),
(607,0,l),
(607,24,l),
(521,31,o),
(457,24,o),
(457,124,cs),
(457,465,l),
(524,465,ls),
(601,465,o),
(673,395,o),
(727,274,c),
(745,277,l),
(631,620,l),
(613,617,l),
(623,545,o),
(607,500,o),
(524,500,cs),
(457,500,l),
(457,665,l),
(686,665,ls),
(853,665,o),
(932,574,o),
(939,455,c),
(959,455,l),
(959,700,l)
);
}
);
width = 1005;
},
{
anchors = (
{
name = bottom;
pos = (517,0);
},
{
name = top;
pos = (517,700);
}
);
layerId = "C70D92E6-6044-4AAB-ADF3-B84826DC9CB7";
shapes = (
{
closed = 1;
nodes = (
(54,700,l),
(54,690,l),
(150,683,o),
(224,682,o),
(224,596,cs),
(224,104,ls),
(224,18,o),
(150,17,o),
(54,10,c),
(54,0,l),
(439,0,l),
(439,10,l),
(343,17,o),
(269,18,o),
(269,104,cs),
(269,485,l),
(542,484,ls),
(638,484,o),
(664,453,o),
(724,307,c),
(734,310,l),
(629,620,l),
(619,617,l),
(642,517,o),
(633,500,o),
(542,500,cs),
(269,500,l),
(269,685,l),
(804,685,ls),
(917,685,o),
(940,605,o),
(947,455,c),
(957,455,l),
(957,700,l)
);
}
);
width = 1033;
},
{
associatedMasterId = "ECEC25EE-2268-427F-924A-A8A033D1E43A";
layerId = "ACBCCE74-38BC-4199-80EB-211661D74033";
name = "Mar 26 19, 17:25";
shapes = (
{
closed = 1;
nodes = (
(185,0,l),
(185,700,l),
(140,700,l),
(140,0,l)
);
},
{
closed = 1;
nodes = (
(502,485,l),
(502,685,l),
(349,685,l),
(462,685,o),
(485,635,o),
(492,485,c)
);
},
{
closed = 1;
nodes = (
(502,685,l),
(502,700,l),
(165,700,l),
(165,685,l)
);
},
{
closed = 1;
nodes = (
(140,0,l),
(140,69,l),
(140,21,o),
(105,17,o),
(40,10,c),
(40,0,l)
);
},
{
closed = 1;
nodes = (
(140,700,l),
(40,700,l),
(40,690,l),
(106,683,o),
(140,679,o),
(140,631,c)
);
},
{
closed = 1;
nodes = (
(194,485,ls),
(335,485,o),
(360,478,o),
(429,307,c),
(439,310,l),
(334,620,l),
(324,617,l),
(351,500,o),
(334,500,o),
(194,500,cs),
(154,500,l),
(154,485,l)
);
},
{
closed = 1;
nodes = (
(285,10,l),
(220,17,o),
(185,21,o),
(185,69,c),
(185,0,l),
(285,0,l)
);
}
);
width = 600;
},
{
associatedMasterId = "52EA2D2A-A4E3-47AA-B963-53B6A9E26FA1";
layerId = "3242D926-6D69-42CA-88A0-B0B8E591C597";
name = "Mar 26 19, 19:28";
shapes = (
{
closed = 1;
nodes = (
(290,0,l),
(290,700,l),
(10,700,l),
(10,690,l),
(35,683,o),
(70,674,o),
(70,616,cs),
(70,84,ls),
(70,26,o),
(35,17,o),
(10,10,c),
(10,0,l)
);
},
{
closed = 1;
nodes = (
(299,475,ls),
(350,475,o),
(434,406,o),
(479,307,c),
(489,310,l),
(384,620,l),
(374,617,l),
(386,541,o),
(359,500,o),
(299,500,cs),
(259,500,l),
(259,475,l)
);
},
{
closed = 1;
nodes = (
(552,455,l),
(552,675,l),
(339,675,l),
(502,675,o),
(535,544,o),
(542,455,c)
);
},
{
closed = 1;
nodes = (
(552,675,l),
(552,700,l),
(270,700,l),
(270,675,l)
);
},
{
closed = 1;
nodes = (
(290,0,l),
(350,0,l),
(350,10,l),
(326,16,o),
(291,25,o),
(290,84,c)
);
}
);
width = 600;
},
{
associatedMasterId = "C70D92E6-6044-4AAB-ADF3-B84826DC9CB7";
layerId = "D4B2A20A-4C23-48F7-8E06-B12CD27CF460";
name = "Mar 27 19, 14:04";
shapes = (
{
closed = 1;
nodes = (
(260,485,l),
(538,484,ls),
(634,484,o),
(660,453,o),
(720,307,c),
(730,310,l),
(625,620,l),
(615,617,l),
(638,517,o),
(629,500,o),
(538,500,cs),
(260,500,l)
);
},
{
closed = 1;
nodes = (
(260,685,l),
(800,685,ls),
(913,685,o),
(936,635,o),
(943,485,c),
(953,485,l),
(953,700,l),
(260,700,l)
);
},
{
closed = 1;
nodes = (
(220,155,l),
(220,104,ls),
(220,18,o),
(146,17,o),
(50,10,c),
(50,0,l),
(265,0,l),
(265,155,l)
);
},
{
closed = 1;
nodes = (
(265,155,l),
(265,700,l),
(50,700,l),
(50,690,l),
(146,683,o),
(220,682,o),
(220,596,cs),
(220,155,l)
);
},
{
closed = 1;
nodes = (
(220,0,l),
(435,0,l),
(435,10,l),
(339,17,o),
(265,18,o),
(265,104,cs),
(265,155,l),
(220,155,l)
);
}
);
width = 600;
},
{
associatedMasterId = "92782D03-6C32-4A0E-AEF4-B0D65DFAA275";
layerId = "BF5A2E04-15AE-4854-95FA-05B27044BE5A";
name = "Mar 28 19, 15:16";
shapes = (
{
closed = 1;
nodes = (
(324,665,l),
(689,665,ls),
(856,665,o),
(945,574,o),
(952,455,c),
(962,455,l),
(962,700,l),
(330,700,l)
);
},
{
closed = 1;
nodes = (
(324,465,l),
(527,465,ls),
(604,465,o),
(684,395,o),
(738,274,c),
(748,277,l),
(634,620,l),
(624,617,l),
(634,545,o),
(610,500,o),
(527,500,cs),
(324,500,l)
);
},
{
closed = 1;
nodes = (
(610,0,l),
(610,14,l),
(524,21,o),
(460,24,o),
(460,124,cs),
(460,700,l),
(30,700,l),
(30,686,l),
(116,679,o),
(180,676,o),
(180,576,cs),
(180,124,ls),
(180,24,o),
(116,21,o),
(30,14,c),
(30,0,l)
);
}
);
width = 1002;
}
);
unicode = 70;
},
{
glyphname = G;
kernLeft = O;
kernRight = G;
lastChange = "2022-01-30 14:40:57 +0000";
layers = (
{
anchors = (
{
name = bottom;
pos = (352,0);
},
{
name = top;
pos = (352,700);
}
);
layerId = "B6803316-6B37-45A2-910F-F0CA711B465A";
shapes = (
{
closed = 1;
nodes = (
(375,433,l),
(441,426,o),
(475,407,o),
(475,359,cs),
(475,83,l),
(428,33,o),
(379,10,o),
(335,10,cs),
(230,10,o),
(160,139,o),
(160,345,cs),
(160,565,o),
(243,690,o),
(344,690,cs),
(420,690,o),
(492,619,o),
(538,470,c),
(548,470,l),
(527,637,l),
(496,679,o),
(435,715,o),
(343,715,cs),
(183,715,o),
(60,574,o),
(60,345,cs),
(60,131,o),
(190,-15,o),
(329,-15,cs),
(382,-15,o),
(433,5,o),
(476,49,c),
(570,-15,l),
(570,359,ls),
(570,407,o),
(605,426,o),
(670,433,c),
(670,443,l),
(375,443,l)
);
}
);
visible = 1;
width = 703;
},
{
anchors = (
{
name = bottom;
pos = (686,0);
},
{
name = top;
pos = (686,700);
}
);
layerId = "1127FDDC-7967-4E0A-BDB2-81E1CCE90981";
shapes = (
{
closed = 1;
nodes = (
(843,419,l),
(927,412,o),
(1032,392,o),
(1033,305,cs),
(1033,78,l),
(932,30,o),
(795,10,o),
(662,10,cs),
(379,10,o),
(186,150,o),
(186,345,cs),
(186,549,o),
(379,690,o),
(680,690,cs),
(864,690,o),
(1042,633,o),
(1120,470,c),
(1130,470,l),
(1103,637,l),
(963,694,o),
(838,715,o),
(680,715,cs),
(340,715,o),
(66,546,o),
(66,345,cs),
(66,143,o),
(340,-15,o),
(662,-15,cs),
(782,-15,o),
(932,5,o),
(1034,50,c),
(1133,-20,l),
(1133,305,ls),
(1134,389,o),
(1240,410,o),
(1323,419,c),
(1323,429,l),
(843,429,l)
);
}
);
width = 1371;
},
{
anchors = (
{
name = bottom;
pos = (365,0);
},
{
name = top;
pos = (365,700);
}
);
layerId = "52EA2D2A-A4E3-47AA-B963-53B6A9E26FA1";
shapes = (
{
closed = 1;
nodes = (
(374,422,l),
(399,421,o),
(434,416,o),
(434,358,cs),
(434,25,l),
(429,22,o),
(423,20,o),
(406,20,cs),
(319,20,o),
(259,183,o),
(259,347,cs),
(259,513,o),
(310,680,o),
(406,680,cs),
(480,680,o),
(537,619,o),
(583,470,c),
(623,470,l),
(602,637,l),
(571,679,o),
(520,715,o),
(400,715,cs),
(172,715,o),
(35,574,o),
(35,345,cs),
(35,143,o),
(154,-15,o),
(377,-15,cs),
(423,-15,o),
(449,-4,o),
(469,15,c),
(654,-14,l),
(654,358,ls),
(654,416,o),
(689,421,o),
(714,422,c),
(714,442,l),
(374,442,l)
);
}
);
width = 730;
},
{
anchors = (
{
name = bottom;
pos = (368,0);
},
{
name = top;
pos = (368,700);
}
);
layerId = "ECEC25EE-2268-427F-924A-A8A033D1E43A";
shapes = (
{
closed = 1;
nodes = (
(448,433,l),
(514,426,o),
(548,422,o),
(548,374,cs),
(548,92,l),
(521,45,o),
(465,0,o),
(367,0,cs),
(203,0,o),
(128,179,o),
(128,344,cs),
(128,516,o),
(207,700,o),
(367,700,cs),
(452,700,o),
(535,619,o),
(566,475,c),
(576,475,l),
(555,637,l),
(524,677,o),
(461,715,o),
(360,715,cs),
(201,715,o),
(78,574,o),
(78,345,cs),
(78,143,o),
(192,-15,o),
(359,-15,cs),
(464,-15,o),
(519,27,o),
(548,66,c),
(593,-15,l),
(593,374,ls),
(593,422,o),
(617,426,o),
(693,433,c),
(693,443,l),
(448,443,l)
);
}
);
width = 736;
},
{
anchors = (
{
name = bottom;
pos = (644,0);
},
{
name = top;
pos = (644,700);
}
);
layerId = "92782D03-6C32-4A0E-AEF4-B0D65DFAA275";
shapes = (
{
closed = 1;
nodes = (
(683,406,l),
(769,399,o),
(833,406,o),
(833,306,cs),
(833,62,l),
(787,35,o),
(731,21,o),
(676,21,cs),
(467,21,o),
(328,140,o),
(328,341,cs),
(328,509,o),
(423,680,o),
(674,680,cs),
(773,680,o),
(976,621,o),
(1070,470,c),
(1100,470,l),
(1073,637,l),
(948,690,o),
(788,715,o),
(638,715,cs),
(322,715,o),
(43,578,o),
(43,345,cs),
(43,117,o),
(325,-15,o),
(638,-15,cs),
(730,-15,o),
(792,2,o),
(838,25,c),
(1113,-15,l),
(1113,306,ls),
(1113,408,o),
(1189,399,o),
(1263,406,c),
(1263,430,l),
(683,430,l)
);
}
);
width = 1287;
},
{
anchors = (
{
name = bottom;
pos = (668,0);
},
{
name = top;
pos = (668,700);
}
);
layerId = "C70D92E6-6044-4AAB-ADF3-B84826DC9CB7";
shapes = (
{
closed = 1;
nodes = (
(898,419,l),
(994,412,o),
(1068,411,o),
(1068,325,cs),
(1068,73,l),
(1015,48,o),
(885,0,o),
(667,0,cs),
(297,0,o),
(122,171,o),
(122,343,cs),
(122,521,o),
(306,700,o),
(662,700,cs),
(896,700,o),
(1084,647,o),
(1129,470,c),
(1139,470,l),
(1112,637,l),
(987,690,o),
(827,715,o),
(677,715,cs),
(361,715,o),
(72,578,o),
(72,345,cs),
(72,143,o),
(337,-15,o),
(667,-15,cs),
(873,-15,o),
(1008,29,o),
(1069,56,c),
(1113,-15,l),
(1113,325,ls),
(1113,413,o),
(1189,412,o),
(1283,419,c),
(1283,429,l),
(898,429,l)
);
}
);
width = 1336;
},
{
associatedMasterId = "ECEC25EE-2268-427F-924A-A8A033D1E43A";
layerId = "C4B57FB6-CA61-4FCA-B938-6C60F0D4FFDE";
name = "Mar 28 19, 15:21";
shapes = (
{
closed = 1;
nodes = (
(173,0,o),
(100,179,o),
(100,344,cs),
(100,516,o),
(179,700,o),
(339,700,cs),
(420,700,o),
(507,619,o),
(538,475,c),
(548,475,l),
(527,637,l),
(496,677,o),
(433,715,o),
(332,715,cs),
(173,715,o),
(50,574,o),
(50,345,cs),
(50,143,o),
(169,-15,o),
(321,-15,cs),
(503,-15,o),
(537,91,o),
(548,119,c),
(534,124,l),
(515,68,o),
(465,0,o),
(321,0,cs)
);
},
{
closed = 1;
nodes = (
(486,426,o),
(520,422,o),
(520,374,cs),
(520,66,l),
(565,-15,l),
(565,374,ls),
(565,422,o),
(589,426,o),
(665,433,c),
(665,443,l),
(420,443,l),
(420,433,l)
);
}
);
width = 695;
},
{
associatedMasterId = "B6803316-6B37-45A2-910F-F0CA711B465A";
layerId = "1D6681AE-0C12-46F4-8771-AF1782D1D5B2";
name = "Mar 28 19, 15:21";
shapes = (
{
closed = 1;
nodes = (
(220,10,o),
(160,139,o),
(160,345,cs),
(160,565,o),
(233,690,o),
(334,690,cs),
(410,690,o),
(482,619,o),
(528,470,c),
(538,470,l),
(517,637,l),
(486,679,o),
(423,715,o),
(323,715,cs),
(173,715,o),
(50,574,o),
(50,345,cs),
(50,131,o),
(180,-15,o),
(316,-15,cs),
(376,-15,o),
(435,9,o),
(487,72,c),
(476,95,l),
(426,37,o),
(373,10,o),
(325,10,cs)
);
},
{
closed = 1;
nodes = (
(431,426,o),
(465,407,o),
(465,359,cs),
(465,50,l),
(565,-15,l),
(565,359,ls),
(565,407,o),
(600,426,o),
(665,433,c),
(665,443,l),
(365,443,l),
(365,433,l)
);
}
);
width = 670;
},
{
associatedMasterId = "C70D92E6-6044-4AAB-ADF3-B84826DC9CB7";
layerId = "65EE5C82-96CB-46A6-BAAC-9EBB3BD4B2CB";
name = "Mar 28 19, 15:21";
shapes = (
{
closed = 1;
nodes = (
(1012,412,o),
(1086,411,o),
(1086,325,cs),
(1086,57,l),
(1131,-15,l),
(1131,325,ls),
(1131,413,o),
(1207,412,o),
(1301,419,c),
(1301,429,l),
(916,429,l),
(916,419,l)
);
},
{
closed = 1;
nodes = (
(315,0,o),
(140,171,o),
(140,343,cs),
(140,521,o),
(324,700,o),
(680,700,cs),
(914,700,o),
(1102,647,o),
(1147,470,c),
(1157,470,l),
(1130,637,l),
(1005,690,o),
(845,715,o),
(695,715,cs),
(379,715,o),
(90,578,o),
(90,345,cs),
(90,143,o),
(355,-15,o),
(685,-15,cs),
(946,-15,o),
(1094,55,o),
(1119,73,c),
(1111,86,l),
(1092,74,o),
(957,0,o),
(685,0,cs)
);
}
);
width = 1351;
},
{
associatedMasterId = "1127FDDC-7967-4E0A-BDB2-81E1CCE90981";
layerId = "A4857D70-4FFD-49CF-822E-FE2EF98D7529";
name = "Mar 28 19, 15:21";
shapes = (
{
closed = 1;
nodes = (
(373,10,o),
(180,150,o),
(180,345,cs),
(180,549,o),
(373,690,o),
(674,690,cs),
(858,690,o),
(1036,633,o),
(1114,470,c),
(1124,470,l),
(1097,637,l),
(957,694,o),
(832,715,o),
(674,715,cs),
(334,715,o),
(60,546,o),
(60,345,cs),
(60,143,o),
(334,-15,o),
(656,-15,cs),
(784,-15,o),
(947,8,o),
(1048,60,c),
(1048,88,l),
(945,33,o),
(798,10,o),
(656,10,cs)
);
},
{
closed = 1;
nodes = (
(921,412,o),
(1026,392,o),
(1027,305,cs),
(1027,51,l),
(1127,-20,l),
(1127,305,ls),
(1128,389,o),
(1234,410,o),
(1317,419,c),
(1317,429,l),
(837,429,l),
(837,419,l)
);
}
);
width = 1357;
},
{
associatedMasterId = "92782D03-6C32-4A0E-AEF4-B0D65DFAA275";
layerId = "BA705BCA-4854-485F-B779-D68C15CC372A";
name = "Mar 28 19, 15:21";
shapes = (
{
closed = 1;
nodes = (
(474,21,o),
(325,140,o),
(325,341,cs),
(325,509,o),
(430,680,o),
(681,680,cs),
(780,680,o),
(1003,621,o),
(1097,470,c),
(1107,470,l),
(1080,637,l),
(955,690,o),
(795,715,o),
(645,715,cs),
(329,715,o),
(40,578,o),
(40,345,cs),
(40,117,o),
(332,-15,o),
(645,-15,cs),
(779,-15,o),
(848,21,o),
(899,60,c),
(881,93,l),
(830,45,o),
(755,21,o),
(683,21,cs)
);
},
{
closed = 1;
nodes = (
(776,409,o),
(840,406,o),
(840,306,cs),
(840,26,l),
(1120,-15,l),
(1120,306,ls),
(1120,408,o),
(1196,409,o),
(1270,416,c),
(1270,430,l),
(690,430,l),
(690,416,l)
);
}
);
width = 1280;
},
{
associatedMasterId = "52EA2D2A-A4E3-47AA-B963-53B6A9E26FA1";
layerId = "5A3D3182-5215-4E93-A2B2-C1541030C389";
name = "Mar 31 19, 15:57";
shapes = (
{
closed = 1;
nodes = (
(279,432,l),
(304,425,o),
(339,416,o),
(339,358,cs),
(339,52,l),
(328,31,o),
(311,20,o),
(295,20,cs),
(248,20,o),
(240,84,o),
(240,364,cs),
(240,532,o),
(229,680,o),
(304,680,cs),
(380,680,o),
(450,613,o),
(488,470,c),
(508,470,l),
(487,637,l),
(456,679,o),
(393,715,o),
(293,715,cs),
(114,715,o),
(15,583,o),
(15,345,cs),
(15,93,o),
(126,-15,o),
(289,-15,cs),
(321,-15,o),
(343,-2,o),
(359,17,c),
(559,-14,l),
(559,358,ls),
(559,416,o),
(594,425,o),
(619,432,c),
(619,442,l),
(279,442,l)
);
}
);
width = 600;
},
{
associatedMasterId = "52EA2D2A-A4E3-47AA-B963-53B6A9E26FA1";
layerId = "F8F8B26C-2ADA-4D7F-871C-ED3456BD059F";
name = "Mar 31 19, 16:01";
shapes = (
{
closed = 1;
nodes = (
(404,425,o),
(439,416,o),
(439,358,cs),
(439,20,l),
(659,-14,l),
(659,358,ls),
(659,416,o),
(694,425,o),
(719,432,c),
(719,442,l),
(379,442,l),
(379,432,l)
);
},
{
closed = 1;
nodes = (
(187,715,o),
(50,574,o),
(50,345,cs),
(50,143,o),
(169,-15,o),
(439,-15,cs),
(597,-15,o),
(636,121,o),
(647,172,c),
(614,179,l),
(594,92,o),
(544,20,o),
(453,20,cs),
(334,20,o),
(274,183,o),
(274,347,cs),
(274,513,o),
(335,680,o),
(423,680,cs),
(498,680,o),
(542,619,o),
(588,470,c),
(638,470,l),
(617,637,l),
(586,679,o),
(535,715,o),
(415,715,cs)
);
}
);
width = 729;
},
{
associatedMasterId = "ECEC25EE-2268-427F-924A-A8A033D1E43A";
layerId = "805FD5F7-CBE9-43A9-A0D1-CC2F03AA79CA";
name = "Apr 24 19, 16:11";
shapes = (
{
closed = 1;
nodes = (
(420,433,l),
(486,426,o),
(520,422,o),
(520,374,cs),
(520,92,l),
(493,45,o),
(439,0,o),
(321,0,cs),
(173,0,o),
(100,179,o),
(100,344,cs),
(100,516,o),
(179,700,o),
(339,700,cs),
(420,700,o),
(507,619,o),
(538,475,c),
(548,475,l),
(527,637,l),
(496,677,o),
(433,715,o),
(332,715,cs),
(173,715,o),
(50,574,o),
(50,345,cs),
(50,143,o),
(169,-15,o),
(321,-15,cs),
(436,-15,o),
(492,27,o),
(520,66,c),
(565,-15,l),
(565,374,ls),
(565,422,o),
(589,426,o),
(665,433,c),
(665,443,l),
(420,443,l)
);
}
);
width = 695;
},
{
associatedMasterId = "B6803316-6B37-45A2-910F-F0CA711B465A";
layerId = "258F980D-379F-407F-98C2-B42D04619203";
name = "May 11 19, 17:21";
shapes = (
{
closed = 1;
nodes = (
(365,433,l),
(431,426,o),
(465,407,o),
(465,359,cs),
(465,83,l),
(418,33,o),
(369,10,o),
(325,10,cs),
(220,10,o),
(160,139,o),
(160,345,cs),
(160,565,o),
(233,690,o),
(334,690,cs),
(410,690,o),
(482,619,o),
(528,470,c),
(538,470,l),
(517,637,l),
(486,679,o),
(423,715,o),
(323,715,cs),
(173,715,o),
(50,574,o),
(50,345,cs),
(50,131,o),
(180,-15,o),
(319,-15,cs),
(368,-15,o),
(420,3,o),
(466,49,c),
(565,-15,l),
(565,359,ls),
(565,407,o),
(600,426,o),
(665,433,c),
(665,443,l),
(365,443,l)
);
}
);
width = 670;
}
);
unicode = 71;
},
{
glyphname = H;
kernLeft = H;
kernRight = H;
lastChange = "2022-01-30 14:40:57 +0000";
layers = (
{
anchors = (
{
name = bottom;
pos = (337,0);
},
{
name = center;
pos = (337,350);
},
{
name = top;
pos = (337,700);
},
{
name = topleft;
pos = (20,700);
}
);
layerId = "B6803316-6B37-45A2-910F-F0CA711B465A";
shapes = (
{
closed = 1;
nodes = (
(649,700,l),
(354,700,l),
(354,690,l),
(419,683,o),
(454,664,o),
(454,616,cs),
(454,500,l),
(220,500,l),
(220,616,ls),
(220,666,o),
(255,685,o),
(320,690,c),
(320,700,l),
(25,700,l),
(25,690,l),
(93,684,o),
(125,666,o),
(125,616,cs),
(125,84,ls),
(125,36,o),
(90,17,o),
(25,10,c),
(25,0,l),
(320,0,l),
(320,10,l),
(255,17,o),
(220,36,o),
(220,84,cs),
(220,475,l),
(454,475,l),
(454,84,ls),
(454,36,o),
(419,17,o),
(354,10,c),
(354,0,l),
(649,0,l),
(649,10,l),
(584,17,o),
(549,36,o),
(549,84,cs),
(549,616,ls),
(549,664,o),
(584,683,o),
(649,690,c)
);
}
);
width = 674;
},
{
associatedMasterId = "B6803316-6B37-45A2-910F-F0CA711B465A";
layerId = "2922077D-002D-4E4E-8883-881F200805CE";
name = "Feb 9 19, 16:16";
shapes = (
{
closed = 1;
nodes = (
(245,0,l),
(245,700,l),
(140,700,l),
(140,0,l)
);
},
{
closed = 1;
nodes = (
(564,0,l),
(564,700,l),
(464,700,l),
(464,0,l)
);
},
{
closed = 1;
nodes = (
(179,475,l),
(524,475,l),
(524,500,l),
(179,500,l)
);
},
{
closed = 1;
nodes = (
(245,666,o),
(280,685,o),
(345,690,c),
(345,700,l),
(245,700,l),
(245,616,l)
);
},
{
closed = 1;
nodes = (
(464,700,l),
(364,700,l),
(364,690,l),
(430,683,o),
(464,664,o),
(464,616,c)
);
},
{
closed = 1;
nodes = (
(245,0,l),
(345,0,l),
(345,10,l),
(280,17,o),
(245,36,o),
(245,84,c)
);
},
{
closed = 1;
nodes = (
(464,36,o),
(429,17,o),
(364,10,c),
(364,0,l),
(464,0,l),
(464,84,l)
);
},
{
closed = 1;
nodes = (
(564,0,l),
(664,0,l),
(664,10,l),
(599,17,o),
(564,36,o),
(564,84,c)
);
},
{
closed = 1;
nodes = (
(139,36,o),
(103,17,o),
(40,10,c),
(40,0,l),
(140,0,l),
(140,84,l)
);
},
{
closed = 1;
nodes = (
(140,700,l),
(40,700,l),
(40,690,l),
(108,684,o),
(142,665,o),
(140,616,c)
);
},
{
closed = 1;
nodes = (
(564,664,o),
(599,683,o),
(664,690,c),
(664,700,l),
(564,700,l),
(564,616,l)
);
}
);
width = 704;
},
{
anchors = (
{
name = bottom;
pos = (665,0);
},
{
name = center;
pos = (665,350);
},
{
name = top;
pos = (665,700);
},
{
name = topleft;
pos = (20,700);
}
);
layerId = "1127FDDC-7967-4E0A-BDB2-81E1CCE90981";
shapes = (
{
closed = 1;
nodes = (
(1280,700,l),
(800,700,l),
(800,690,l),
(884,683,o),
(990,663,o),
(990,576,cs),
(990,500,l),
(339,500,l),
(339,576,ls),
(339,663,o),
(445,683,o),
(529,690,c),
(529,700,l),
(49,700,l),
(49,690,l),
(133,683,o),
(239,663,o),
(239,576,cs),
(239,124,ls),
(239,37,o),
(133,18,o),
(49,10,c),
(49,0,l),
(529,0,l),
(529,10,l),
(445,17,o),
(339,37,o),
(339,124,cs),
(339,475,l),
(990,475,l),
(990,124,ls),
(990,37,o),
(884,17,o),
(800,10,c),
(800,0,l),
(1280,0,l),
(1280,10,l),
(1196,17,o),
(1090,37,o),
(1090,124,cs),
(1090,576,ls),
(1090,663,o),
(1196,683,o),
(1280,690,c)
);
}
);
width = 1329;
},
{
anchors = (
{
name = bottom;
pos = (375,0);
},
{
name = center;
pos = (375,350);
},
{
name = top;
pos = (375,700);
},
{
name = topleft;
pos = (20,700);
}
);
layerId = "52EA2D2A-A4E3-47AA-B963-53B6A9E26FA1";
shapes = (
{
closed = 1;
nodes = (
(725,700,l),
(385,700,l),
(385,680,l),
(410,679,o),
(445,674,o),
(445,616,cs),
(445,500,l),
(305,500,l),
(305,616,ls),
(305,674,o),
(340,679,o),
(365,680,c),
(365,700,l),
(25,700,l),
(25,680,l),
(50,679,o),
(85,674,o),
(85,616,cs),
(85,84,ls),
(85,26,o),
(50,21,o),
(25,20,c),
(25,0,l),
(365,0,l),
(365,20,l),
(340,21,o),
(305,26,o),
(305,84,cs),
(305,465,l),
(445,465,l),
(445,84,ls),
(445,26,o),
(410,21,o),
(385,20,c),
(385,0,l),
(725,0,l),
(725,20,l),
(700,21,o),
(665,26,o),
(665,84,cs),
(665,616,ls),
(665,674,o),
(700,679,o),
(725,680,c)
);
}
);
width = 750;
},
{
anchors = (
{
name = bottom;
pos = (356,0);
},
{
name = center;
pos = (356,350);
},
{
name = top;
pos = (356,700);
},
{
name = topleft;
pos = (20,700);
}
);
layerId = "ECEC25EE-2268-427F-924A-A8A033D1E43A";
shapes = (
{
closed = 1;
nodes = (
(668,699,l),
(423,699,l),
(423,689,l),
(489,682,o),
(523,678,o),
(523,630,cs),
(523,500,l),
(189,500,l),
(189,630,ls),
(189,678,o),
(223,682,o),
(289,689,c),
(289,699,l),
(44,699,l),
(44,689,l),
(120,682,o),
(144,678,o),
(144,630,cs),
(144,68,ls),
(144,20,o),
(119,16,o),
(44,9,c),
(44,-1,l),
(289,-1,l),
(289,9,l),
(224,16,o),
(189,20,o),
(189,68,cs),
(189,485,l),
(523,485,l),
(523,68,ls),
(523,20,o),
(488,16,o),
(423,9,c),
(423,-1,l),
(668,-1,l),
(668,9,l),
(593,16,o),
(568,20,o),
(568,68,cs),
(568,630,ls),
(568,678,o),
(592,682,o),
(668,689,c)
);
}
);
width = 712;
},
{
anchors = (
{
name = bottom;
pos = (637,0);
},
{
name = center;
pos = (637,350);
},
{
name = top;
pos = (637,700);
},
{
name = topleft;
pos = (20,700);
}
);
layerId = "92782D03-6C32-4A0E-AEF4-B0D65DFAA275";
shapes = (
{
closed = 1;
nodes = (
(1247,700,l),
(667,700,l),
(667,676,l),
(753,669,o),
(817,676,o),
(817,576,cs),
(817,500,l),
(457,500,l),
(457,576,ls),
(457,678,o),
(533,669,o),
(607,676,c),
(607,700,l),
(27,700,l),
(27,676,l),
(113,669,o),
(177,676,o),
(177,576,cs),
(177,124,ls),
(177,24,o),
(113,31,o),
(27,24,c),
(27,0,l),
(607,0,l),
(607,24,l),
(533,31,o),
(457,22,o),
(457,124,cs),
(457,465,l),
(817,465,l),
(817,124,ls),
(817,24,o),
(753,31,o),
(667,24,c),
(667,0,l),
(1247,0,l),
(1247,24,l),
(1173,31,o),
(1097,22,o),
(1097,124,cs),
(1097,576,ls),
(1097,678,o),
(1173,669,o),
(1247,676,c)
);
}
);
width = 1274;
},
{
anchors = (
{
name = bottom;
pos = (623,0);
},
{
name = center;
pos = (623,350);
},
{
name = top;
pos = (623,700);
},
{
name = topleft;
pos = (20,700);
}
);
layerId = "C70D92E6-6044-4AAB-ADF3-B84826DC9CB7";
shapes = (
{
closed = 1;
nodes = (
(1192,700,l),
(807,700,l),
(807,690,l),
(903,683,o),
(977,682,o),
(977,596,cs),
(977,500,l),
(269,500,l),
(269,596,ls),
(269,684,o),
(345,683,o),
(439,690,c),
(439,700,l),
(54,700,l),
(54,690,l),
(150,683,o),
(224,682,o),
(224,596,cs),
(224,104,ls),
(224,18,o),
(150,17,o),
(54,10,c),
(54,0,l),
(439,0,l),
(439,10,l),
(345,17,o),
(269,16,o),
(269,104,cs),
(269,485,l),
(977,485,l),
(977,104,ls),
(977,18,o),
(903,17,o),
(807,10,c),
(807,0,l),
(1192,0,l),
(1192,10,l),
(1098,17,o),
(1022,16,o),
(1022,104,cs),
(1022,596,ls),
(1022,684,o),
(1098,683,o),
(1192,690,c)
);
}
);
width = 1246;
},
{
associatedMasterId = "1127FDDC-7967-4E0A-BDB2-81E1CCE90981";
layerId = "10182D28-0B70-4DC9-A877-455D5E9CD68C";
name = "Mar 26 19, 12:37";
shapes = (
{
closed = 1;
nodes = (
(330,576,ls),
(330,663,o),
(436,683,o),
(520,690,c),
(520,700,l),
(40,700,l),
(40,690,l),
(124,683,o),
(230,663,o),
(230,576,cs),
(230,124,ls),
(230,37,o),
(124,18,o),
(40,10,c),
(40,0,l),
(520,0,l),
(520,10,l),
(436,17,o),
(330,37,o),
(330,124,cs)
);
},
{
closed = 1;
nodes = (
(981,124,ls),
(981,37,o),
(875,17,o),
(791,10,c),
(791,0,l),
(1271,0,l),
(1271,10,l),
(1187,17,o),
(1081,37,o),
(1081,124,cs),
(1081,576,ls),
(1081,663,o),
(1187,683,o),
(1271,690,c),
(1271,700,l),
(791,700,l),
(791,690,l),
(875,683,o),
(981,663,o),
(981,576,cs)
);
},
{
closed = 1;
nodes = (
(324,475,l),
(987,475,l),
(987,500,l),
(324,500,l)
);
}
);
width = 1311;
},
{
associatedMasterId = "ECEC25EE-2268-427F-924A-A8A033D1E43A";
layerId = "54DCE338-5D1D-43DE-BE9D-6343E91E3322";
name = "Mar 26 19, 12:37";
shapes = (
{
closed = 1;
nodes = (
(140,0,l),
(140,69,l),
(138,21,o),
(114,17,o),
(40,10,c),
(40,0,l)
);
},
{
closed = 1;
nodes = (
(285,0,l),
(285,10,l),
(220,17,o),
(185,21,o),
(185,69,c),
(185,0,l)
);
},
{
closed = 1;
nodes = (
(185,0,l),
(185,700,l),
(140,700,l),
(140,0,l)
);
},
{
closed = 1;
nodes = (
(140,700,l),
(40,700,l),
(40,690,l),
(115,683,o),
(139,679,o),
(140,631,c)
);
},
{
closed = 1;
nodes = (
(174,486,l),
(550,486,l),
(550,501,l),
(174,501,l)
);
},
{
closed = 1;
nodes = (
(185,679,o),
(219,683,o),
(285,690,c),
(285,700,l),
(185,700,l),
(185,631,l)
);
},
{
closed = 1;
nodes = (
(519,0,l),
(519,69,l),
(519,21,o),
(484,17,o),
(419,10,c),
(419,0,l)
);
},
{
closed = 1;
nodes = (
(664,0,l),
(664,10,l),
(590,17,o),
(565,21,o),
(564,69,c),
(564,0,l)
);
},
{
closed = 1;
nodes = (
(564,0,l),
(564,700,l),
(519,700,l),
(519,0,l)
);
},
{
closed = 1;
nodes = (
(519,700,l),
(419,700,l),
(419,690,l),
(485,683,o),
(519,679,o),
(519,631,c)
);
},
{
closed = 1;
nodes = (
(564,679,o),
(588,683,o),
(664,690,c),
(664,700,l),
(564,700,l),
(564,631,l)
);
}
);
width = 704;
},
{
associatedMasterId = "C70D92E6-6044-4AAB-ADF3-B84826DC9CB7";
layerId = "8D5DD2C3-151C-465C-9A39-FA1B443FEF43";
name = "Mar 27 19, 13:50";
shapes = (
{
closed = 1;
nodes = (
(265,596,ls),
(265,684,o),
(341,683,o),
(435,690,c),
(435,700,l),
(50,700,l),
(50,690,l),
(146,683,o),
(220,682,o),
(220,596,cs),
(220,104,ls),
(220,18,o),
(146,17,o),
(50,10,c),
(50,0,l),
(435,0,l),
(435,10,l),
(341,17,o),
(265,16,o),
(265,104,cs)
);
},
{
closed = 1;
nodes = (
(1018,104,l),
(1018,596,ls),
(1018,684,o),
(1094,683,o),
(1188,690,c),
(1188,700,l),
(803,700,l),
(803,690,l),
(899,683,o),
(973,682,o),
(973,596,cs),
(973,104,ls),
(973,18,o),
(899,17,o),
(803,10,c),
(803,0,l),
(1018,0,l)
);
},
{
closed = 1;
nodes = (
(244,485,l),
(987,485,l),
(987,500,l),
(244,500,l)
);
},
{
closed = 1;
nodes = (
(1018,0,l),
(1188,0,l),
(1188,10,l),
(1094,17,o),
(1018,16,o),
(1018,104,c)
);
}
);
width = 1238;
},
{
associatedMasterId = "92782D03-6C32-4A0E-AEF4-B0D65DFAA275";
layerId = "7C679EB4-DF02-4E8A-BBE0-4B71C936E269";
name = "Mar 31 19, 18:15";
shapes = (
{
closed = 1;
nodes = (
(450,576,ls),
(450,678,o),
(526,669,o),
(600,676,c),
(600,700,l),
(20,700,l),
(20,676,l),
(106,669,o),
(170,676,o),
(170,576,cs),
(170,124,ls),
(170,24,o),
(106,31,o),
(20,24,c),
(20,0,l),
(600,0,l),
(600,24,l),
(526,31,o),
(450,22,o),
(450,124,cs)
);
},
{
closed = 1;
nodes = (
(1090,0,l),
(1240,0,l),
(1240,24,l),
(1166,31,o),
(1090,22,o),
(1090,124,c)
);
},
{
closed = 1;
nodes = (
(441,465,l),
(819,465,l),
(819,500,l),
(441,500,l)
);
},
{
closed = 1;
nodes = (
(1090,124,l),
(1090,576,ls),
(1090,678,o),
(1166,669,o),
(1240,676,c),
(1240,700,l),
(660,700,l),
(660,676,l),
(746,669,o),
(810,676,o),
(810,576,cs),
(810,124,ls),
(810,24,o),
(746,31,o),
(660,24,c),
(660,0,l),
(1090,0,l)
);
}
);
width = 1260;
},
{
associatedMasterId = "52EA2D2A-A4E3-47AA-B963-53B6A9E26FA1";
layerId = "04D1EAEA-525D-441D-AB50-5D64168A1456";
name = "Apr 11 19, 16:29";
shapes = (
{
closed = 1;
nodes = (
(305,616,ls),
(305,674,o),
(340,679,o),
(365,680,c),
(365,700,l),
(25,700,l),
(25,680,l),
(50,679,o),
(85,674,o),
(85,616,cs),
(85,84,ls),
(85,26,o),
(50,21,o),
(25,20,c),
(25,0,l),
(365,0,l),
(365,20,l),
(340,21,o),
(305,26,o),
(305,84,cs)
);
},
{
closed = 1;
nodes = (
(665,0,l),
(725,0,l),
(725,20,l),
(700,21,o),
(664,25,o),
(665,84,c)
);
},
{
closed = 1;
nodes = (
(296,465,l),
(454,465,l),
(454,500,l),
(296,500,l)
);
},
{
closed = 1;
nodes = (
(665,84,l),
(665,616,ls),
(665,674,o),
(700,679,o),
(725,680,c),
(725,700,l),
(385,700,l),
(385,680,l),
(410,679,o),
(445,674,o),
(445,616,cs),
(445,84,ls),
(445,26,o),
(410,21,o),
(385,20,c),
(385,0,l),
(665,0,l)
);
}
);
width = 750;
}
);
unicode = 72;
},
{
glyphname = I;
kernLeft = H;
kernRight = H;
lastChange = "2022-01-30 14:40:57 +0000";
layers = (
{
anchors = (
{
name = bottom;
pos = (269,0);
},
{
name = ogonek;
pos = (484,10);
},
{
name = top;
pos = (269,700);
},
{
name = topleft;
pos = (20,700);
}
);
layerId = "1127FDDC-7967-4E0A-BDB2-81E1CCE90981";
shapes = (
{
closed = 1;
nodes = (
(489,0,l),
(489,10,l),
(405,17,o),
(319,37,o),
(319,124,cs),
(319,576,ls),
(319,663,o),
(405,683,o),
(489,690,c),
(489,700,l),
(49,700,l),
(49,690,l),
(133,683,o),
(219,663,o),
(219,576,cs),
(219,124,ls),
(219,37,o),
(133,17,o),
(49,10,c),
(49,0,l)
);
}
);
width = 538;
},
{
anchors = (
{
name = bottom;
pos = (178,0);
},
{
name = ogonek;
pos = (320,10);
},
{
name = top;
pos = (178,700);
},
{
name = topleft;
pos = (20,700);
}
);
layerId = "B6803316-6B37-45A2-910F-F0CA711B465A";
shapes = (
{
closed = 1;
nodes = (
(325,0,l),
(325,10,l),
(260,17,o),
(225,36,o),
(225,84,cs),
(225,616,ls),
(225,664,o),
(260,683,o),
(325,690,c),
(325,700,l),
(30,700,l),
(30,690,l),
(95,683,o),
(130,664,o),
(130,616,cs),
(130,84,ls),
(130,36,o),
(95,17,o),
(30,10,c),
(30,0,l)
);
}
);
width = 355;
},
{
anchors = (
{
name = bottom;
pos = (195,0);
},
{
name = ogonek;
pos = (351,10);
},
{
name = top;
pos = (195,700);
},
{
name = topleft;
pos = (20,700);
}
);
layerId = "52EA2D2A-A4E3-47AA-B963-53B6A9E26FA1";
shapes = (
{
closed = 1;
nodes = (
(365,0,l),
(365,20,l),
(340,21,o),
(305,26,o),
(305,84,cs),
(305,616,ls),
(305,674,o),
(340,679,o),
(365,680,c),
(365,700,l),
(25,700,l),
(25,680,l),
(50,679,o),
(85,674,o),
(85,616,cs),
(85,84,ls),
(85,26,o),
(50,21,o),
(25,20,c),
(25,0,l)
);
}
);
width = 390;
},
{
anchors = (
{
name = bottom;
pos = (167,0);
},
{
name = ogonek;
pos = (300,10);
},
{
name = top;
pos = (167,700);
},
{
name = topleft;
pos = (20,700);
}
);
layerId = "ECEC25EE-2268-427F-924A-A8A033D1E43A";
shapes = (
{
closed = 1;
nodes = (
(289,0,l),
(289,10,l),
(224,17,o),
(189,21,o),
(189,69,cs),
(189,631,ls),
(189,679,o),
(223,683,o),
(289,690,c),
(289,700,l),
(44,700,l),
(44,690,l),
(120,683,o),
(144,679,o),
(144,631,cs),
(144,69,ls),
(144,21,o),
(119,17,o),
(44,10,c),
(44,0,l)
);
}
);
width = 333;
},
{
anchors = (
{
name = bottom;
pos = (317,0);
},
{
name = ogonek;
pos = (571,10);
},
{
name = top;
pos = (317,700);
},
{
name = topleft;
pos = (20,700);
}
);
layerId = "92782D03-6C32-4A0E-AEF4-B0D65DFAA275";
shapes = (
{
closed = 1;
nodes = (
(607,0,l),
(607,24,l),
(533,31,o),
(457,22,o),
(457,124,cs),
(457,576,ls),
(457,678,o),
(533,669,o),
(607,676,c),
(607,700,l),
(27,700,l),
(27,676,l),
(113,669,o),
(177,676,o),
(177,576,cs),
(177,124,ls),
(177,24,o),
(113,31,o),
(27,24,c),
(27,0,l)
);
}
);
width = 634;
},
{
anchors = (
{
name = bottom;
pos = (247,0);
},
{
name = ogonek;
pos = (444,10);
},
{
name = top;
pos = (247,700);
},
{
name = topleft;
pos = (20,700);
}
);
layerId = "C70D92E6-6044-4AAB-ADF3-B84826DC9CB7";
shapes = (
{
closed = 1;
nodes = (
(439,0,l),
(439,10,l),
(345,17,o),
(269,16,o),
(269,104,cs),
(269,596,ls),
(269,684,o),
(345,683,o),
(439,690,c),
(439,700,l),
(54,700,l),
(54,690,l),
(150,683,o),
(224,682,o),
(224,596,cs),
(224,104,ls),
(224,18,o),
(150,17,o),
(54,10,c),
(54,0,l)
);
}
);
width = 493;
},
{
associatedMasterId = "ECEC25EE-2268-427F-924A-A8A033D1E43A";
layerId = "5C10B663-43DE-4BF3-9BFD-F5F58954CE6F";
name = "Mar 27 19, 13:47";
shapes = (
{
closed = 1;
nodes = (
(150,0,l),
(150,69,l),
(150,21,o),
(125,17,o),
(50,10,c),
(50,0,l)
);
},
{
closed = 1;
nodes = (
(295,0,l),
(295,10,l),
(230,17,o),
(195,21,o),
(195,69,c),
(195,0,l)
);
},
{
closed = 1;
nodes = (
(195,0,l),
(195,700,l),
(150,700,l),
(150,0,l)
);
},
{
closed = 1;
nodes = (
(150,700,l),
(50,700,l),
(50,690,l),
(126,683,o),
(150,679,o),
(150,631,c)
);
},
{
closed = 1;
nodes = (
(195,679,o),
(229,683,o),
(295,690,c),
(295,700,l),
(195,700,l),
(195,631,l)
);
}
);
width = 345;
},
{
associatedMasterId = "B6803316-6B37-45A2-910F-F0CA711B465A";
layerId = "7FBA88B1-D2E5-421E-9D0C-4511EBDE82DB";
name = "Mar 27 19, 13:47";
shapes = (
{
closed = 1;
nodes = (
(240,0,l),
(240,700,l),
(140,700,l),
(140,0,l)
);
},
{
closed = 1;
nodes = (
(140,0,l),
(140,84,l),
(140,36,o),
(105,17,o),
(40,10,c),
(40,0,l)
);
},
{
closed = 1;
nodes = (
(340,0,l),
(340,10,l),
(275,17,o),
(240,36,o),
(240,84,c),
(240,0,l)
);
},
{
closed = 1;
nodes = (
(140,700,l),
(40,700,l),
(40,690,l),
(105,683,o),
(140,664,o),
(140,616,c)
);
},
{
closed = 1;
nodes = (
(240,664,o),
(275,683,o),
(340,690,c),
(340,700,l),
(240,700,l),
(240,616,l)
);
}
);
width = 380;
},
{
associatedMasterId = "1127FDDC-7967-4E0A-BDB2-81E1CCE90981";
layerId = "2D137380-BB53-4989-B389-17542F335D0F";
name = "Mar 27 19, 13:48";
shapes = (
{
closed = 1;
nodes = (
(310,0,l),
(310,700,l),
(210,700,l),
(210,0,l)
);
},
{
closed = 1;
nodes = (
(210,0,l),
(210,124,l),
(210,37,o),
(124,17,o),
(40,10,c),
(40,0,l)
);
},
{
closed = 1;
nodes = (
(480,0,l),
(480,10,l),
(396,17,o),
(310,37,o),
(310,124,c),
(310,0,l)
);
},
{
closed = 1;
nodes = (
(210,700,l),
(40,700,l),
(40,690,l),
(124,683,o),
(210,663,o),
(210,576,c)
);
},
{
closed = 1;
nodes = (
(310,663,o),
(396,683,o),
(480,690,c),
(480,700,l),
(310,700,l),
(310,576,l)
);
}
);
width = 520;
}
);
unicode = 73;
},
{
glyphname = J;
kernLeft = J;
kernRight = J;
lastChange = "2022-01-30 14:40:57 +0000";
layers = (
{
anchors = (
{
name = bottom;
pos = (263,0);
},
{
name = top;
pos = (263,700);
}
);
guides = (
{
angle = 90;
pos = (-236,195);
}
);
layerId = "1127FDDC-7967-4E0A-BDB2-81E1CCE90981";
shapes = (
{
closed = 1;
nodes = (
(44,700,l),
(44,690,l),
(123,683,o),
(213,663,o),
(213,576,cs),
(213,13,ls),
(213,-123,o),
(117,-189,o),
(24,-189,cs),
(-72,-189,o),
(-151,-139,o),
(-189,-74,c),
(-210,-87,l),
(-167,-163,o),
(-72,-216,o),
(39,-216,cs),
(191,-216,o),
(313,-132,o),
(313,54,cs),
(313,576,ls),
(313,663,o),
(399,683,o),
(483,690,c),
(483,700,l)
);
}
);
width = 526;
},
{
anchors = (
{
name = bottom;
pos = (166,0);
},
{
name = top;
pos = (166,700);
}
);
layerId = "B6803316-6B37-45A2-910F-F0CA711B465A";
shapes = (
{
closed = 1;
nodes = (
(19,700,l),
(19,690,l),
(84,683,o),
(119,665,o),
(119,616,cs),
(119,4,ls),
(119,-120,o),
(95,-180,o),
(13,-180,cs),
(-52,-180,o),
(-105,-148,o),
(-129,-105,c),
(-150,-117,l),
(-123,-171,o),
(-53,-215,o),
(35,-215,cs),
(145,-215,o),
(214,-147,o),
(214,4,cs),
(214,616,ls),
(214,664,o),
(249,683,o),
(314,690,c),
(314,700,l)
);
}
);
width = 332;
},
{
associatedMasterId = "1127FDDC-7967-4E0A-BDB2-81E1CCE90981";
layerId = "A5C4C99E-5087-45EA-87B9-BA082439198B";
name = "Feb 10 19, 18:01";
shapes = (
{
closed = 1;
nodes = (
(-133,-171,o),
(-63,-215,o),
(25,-215,cs),
(127,-215,o),
(209,-136,o),
(209,4,cs),
(209,700,l),
(109,700,l),
(109,4,ls),
(109,-120,o),
(51,-180,o),
(3,-180,cs),
(-62,-180,o),
(-115,-148,o),
(-139,-105,c),
(-160,-117,l)
);
},
{
closed = 1;
nodes = (
(110,700,l),
(-60,700,l),
(-60,690,l),
(24,683,o),
(110,663,o),
(110,576,c)
);
},
{
closed = 1;
nodes = (
(209,663,o),
(295,683,o),
(379,690,c),
(379,700,l),
(209,700,l),
(209,576,l)
);
}
);
width = 319;
},
{
anchors = (
{
name = bottom;
pos = (192,0);
},
{
name = top;
pos = (192,700);
}
);
layerId = "52EA2D2A-A4E3-47AA-B963-53B6A9E26FA1";
shapes = (
{
closed = 1;
nodes = (
(22,700,l),
(22,680,l),
(47,679,o),
(82,674,o),
(82,616,cs),
(82,15,ls),
(82,-120,o),
(58,-165,o),
(-24,-165,cs),
(-89,-165,o),
(-133,-129,o),
(-158,-87,c),
(-187,-107,l),
(-160,-161,o),
(-90,-215,o),
(52,-215,cs),
(248,-215,o),
(302,-104,o),
(302,44,cs),
(302,616,ls),
(302,674,o),
(337,679,o),
(362,680,c),
(362,700,l)
);
}
);
width = 383;
},
{
anchors = (
{
name = bottom;
pos = (161,0);
},
{
name = top;
pos = (161,700);
}
);
layerId = "ECEC25EE-2268-427F-924A-A8A033D1E43A";
shapes = (
{
closed = 1;
nodes = (
(39,700,l),
(39,690,l),
(115,683,o),
(139,679,o),
(139,631,cs),
(139,4,ls),
(139,-120,o),
(105,-190,o),
(13,-190,cs),
(-42,-190,o),
(-102,-148,o),
(-128,-108,c),
(-140,-117,l),
(-113,-171,o),
(-43,-215,o),
(35,-215,cs),
(135,-215,o),
(184,-142,o),
(184,4,cs),
(184,631,ls),
(184,679,o),
(218,683,o),
(284,690,c),
(284,700,l)
);
}
);
width = 322;
},
{
anchors = (
{
name = bottom;
pos = (241,0);
},
{
name = top;
pos = (241,700);
}
);
layerId = "C70D92E6-6044-4AAB-ADF3-B84826DC9CB7";
shapes = (
{
closed = 1;
nodes = (
(49,700,l),
(49,690,l),
(145,683,o),
(219,682,o),
(219,596,cs),
(219,13,ls),
(219,-143,o),
(123,-193,o),
(-25,-193,cs),
(-121,-193,o),
(-207,-143,o),
(-246,-79,c),
(-259,-87,l),
(-216,-163,o),
(-121,-216,o),
(-10,-216,cs),
(143,-216,o),
(264,-171,o),
(264,22,cs),
(264,596,ls),
(264,684,o),
(340,683,o),
(434,690,c),
(434,700,l)
);
}
);
width = 482;
},
{
associatedMasterId = "ECEC25EE-2268-427F-924A-A8A033D1E43A";
layerId = "EFD0B519-7F09-4AA9-9AC4-22CC6E8765BE";
name = "Apr 12 19, 19:12";
shapes = (
{
closed = 1;
nodes = (
(39,700,l),
(39,690,l),
(115,683,o),
(139,679,o),
(139,631,cs),
(139,4,ls),
(139,-120,o),
(105,-190,o),
(3,-190,cs),
(-62,-190,o),
(-122,-148,o),
(-148,-108,c),
(-160,-117,l),
(-133,-171,o),
(-63,-215,o),
(25,-215,cs),
(135,-215,o),
(184,-147,o),
(184,4,cs),
(184,631,ls),
(184,679,o),
(218,683,o),
(284,690,c),
(284,700,l)
);
}
);
width = 324;
},
{
associatedMasterId = "B6803316-6B37-45A2-910F-F0CA711B465A";
layerId = "7972A9FC-DDC1-4E3F-95AD-B2DBE044DAF4";
name = "Apr 12 19, 19:15";
shapes = (
{
closed = 1;
nodes = (
(135,-215,o),
(209,-147,o),
(209,4,cs),
(209,700,l),
(109,700,l),
(109,4,ls),
(109,-120,o),
(85,-180,o),
(3,-180,cs),
(-62,-180,o),
(-115,-148,o),
(-139,-105,c),
(-160,-117,l),
(-133,-171,o),
(-63,-215,o),
(25,-215,cs)
);
},
{
closed = 1;
nodes = (
(109,700,l),
(9,700,l),
(9,690,l),
(74,683,o),
(109,665,o),
(109,616,c)
);
},
{
closed = 1;
nodes = (
(209,664,o),
(244,683,o),
(309,690,c),
(309,700,l),
(209,700,l),
(209,616,l)
);
}
);
width = 319;
},
{
associatedMasterId = "52EA2D2A-A4E3-47AA-B963-53B6A9E26FA1";
layerId = "EA229042-3DE0-4D7A-9FFD-BA6AB6FF0792";
name = "Apr 12 19, 19:19";
shapes = (
{
closed = 1;
nodes = (
(29,680,l),
(54,679,o),
(89,674,o),
(89,616,cs),
(89,15,ls),
(89,-120,o),
(65,-165,o),
(-17,-165,cs),
(-82,-165,o),
(-127,-130,o),
(-151,-87,c),
(-180,-107,l),
(-153,-161,o),
(-83,-215,o),
(59,-215,cs),
(255,-215,o),
(309,-97,o),
(309,51,cs),
(309,616,ls),
(309,674,o),
(344,679,o),
(369,680,c),
(369,700,l),
(29,700,l)
);
}
);
width = 384;
},
{
associatedMasterId = "C70D92E6-6044-4AAB-ADF3-B84826DC9CB7";
layerId = "3AB79D18-F12E-4EDC-8977-67FB27D5B6A1";
name = "Apr 12 19, 19:22";
shapes = (
{
closed = 1;
nodes = (
(220,191,l),
(220,13,ls),
(220,-143,o),
(124,-193,o),
(-24,-193,cs),
(-120,-193,o),
(-207,-144,o),
(-245,-79,c),
(-258,-87,l),
(-215,-163,o),
(-120,-216,o),
(-9,-216,cs),
(143,-216,o),
(265,-168,o),
(265,54,cs),
(265,191,l)
);
},
{
closed = 1;
nodes = (
(265,191,l),
(265,596,ls),
(265,684,o),
(341,683,o),
(435,690,c),
(435,700,l),
(50,700,l),
(50,690,l),
(146,683,o),
(220,682,o),
(220,596,cs),
(220,191,l)
);
}
);
width = 600;
},
{
associatedMasterId = "92782D03-6C32-4A0E-AEF4-B0D65DFAA275";
layerId = "53D5E494-412A-448D-AF08-146CF5FADD3A";
name = "Apr 12 19, 19:43";
shapes = (
{
closed = 1;
nodes = (
(20,700,l),
(20,676,l),
(106,669,o),
(170,676,o),
(170,576,cs),
(170,33,ls),
(170,-103,o),
(110,-171,o),
(5,-171,cs),
(-71,-171,o),
(-185,-126,o),
(-222,-69,c),
(-253,-87,l),
(-192,-178,o),
(-61,-216,o),
(115,-216,cs),
(348,-216,o),
(450,-148,o),
(450,74,cs),
(450,576,ls),
(450,678,o),
(526,669,o),
(600,676,c),
(600,700,l)
);
}
);
width = 600;
},
{
anchors = (
{
name = bottom;
pos = (310,0);
},
{
name = top;
pos = (310,700);
}
);
layerId = "92782D03-6C32-4A0E-AEF4-B0D65DFAA275";
shapes = (
{
closed = 1;
nodes = (
(20,700,l),
(20,676,l),
(106,669,o),
(170,676,o),
(170,576,cs),
(170,13,ls),
(170,-123,o),
(84,-171,o),
(5,-171,cs),
(-71,-171,o),
(-185,-126,o),
(-222,-69,c),
(-253,-87,l),
(-139,-257,o),
(210,-265,o),
(370,-94,cs),
(431,-28,o),
(450,72,o),
(450,164,cs),
(450,576,ls),
(450,678,o),
(526,669,o),
(600,676,c),
(600,700,l)
);
}
);
width = 620;
},
{
associatedMasterId = "92782D03-6C32-4A0E-AEF4-B0D65DFAA275";
layerId = "4724B82E-D970-48C3-8F48-A6B6E160D000";
name = "Apr 12 19, 19:44";
shapes = (
{
closed = 1;
nodes = (
(20,700,l),
(20,676,l),
(106,669,o),
(170,676,o),
(170,576,cs),
(170,13,ls),
(170,-123,o),
(84,-171,o),
(5,-171,cs),
(-71,-171,o),
(-185,-126,o),
(-222,-69,c),
(-253,-87,l),
(-192,-178,o),
(-61,-216,o),
(115,-216,cs),
(338,-216,o),
(450,-132,o),
(450,54,cs),
(450,576,ls),
(450,678,o),
(526,669,o),
(600,676,c),
(600,700,l)
);
}
);
width = 600;
}
);
unicode = 74;
},
{
glyphname = K;
kernLeft = H;
kernRight = K;
lastChange = "2022-01-30 14:40:57 +0000";
layers = (
{
anchors = (
{
name = bottom;
pos = (604,0);
},
{
name = top;
pos = (604,700);
}
);
guides = (
{
angle = 90;
pos = (633,265);
}
);
layerId = "1127FDDC-7967-4E0A-BDB2-81E1CCE90981";
shapes = (
{
closed = 1;
nodes = (
(599,490,l),
(811,588,ls),
(961,655,o),
(1070,683,o),
(1152,690,c),
(1152,700,l),
(808,700,l),
(808,690,l),
(899,683,o),
(876,649,o),
(735,582,cs),
(324,392,l),
(324,576,ls),
(324,663,o),
(410,683,o),
(494,690,c),
(494,700,l),
(49,700,l),
(49,690,l),
(133,683,o),
(219,663,o),
(219,576,cs),
(219,124,ls),
(219,37,o),
(133,17,o),
(49,10,c),
(49,0,l),
(494,0,l),
(494,10,l),
(410,17,o),
(324,37,o),
(324,124,cs),
(324,362,l),
(500,443,l),
(783,136,ls),
(848,63,o),
(821,17,o),
(739,10,c),
(739,0,l),
(1192,0,l),
(1192,10,l),
(1113,17,o),
(1020,35,o),
(930,132,cs)
);
}
);
width = 1207;
},
{
anchors = (
{
name = bottom;
pos = (351,0);
},
{
name = top;
pos = (351,700);
}
);
guides = (
{
angle = 90;
pos = (584,265);
}
);
layerId = "B6803316-6B37-45A2-910F-F0CA711B465A";
shapes = (
{
closed = 1;
nodes = (
(327,526,l),
(426,615,ls),
(459,645,o),
(553,683,o),
(618,690,c),
(618,700,l),
(381,700,l),
(381,690,l),
(442,683,o),
(437,662,o),
(402,628,c),
(220,464,l),
(220,616,ls),
(220,664,o),
(255,683,o),
(320,690,c),
(320,700,l),
(25,700,l),
(25,690,l),
(90,683,o),
(125,664,o),
(125,616,cs),
(125,84,ls),
(125,36,o),
(90,17,o),
(25,10,c),
(25,0,l),
(320,0,l),
(320,10,l),
(255,17,o),
(220,36,o),
(220,84,cs),
(220,428,l),
(249,457,l),
(430,82,ls),
(452,33,o),
(434,17,o),
(370,10,c),
(370,0,l),
(678,0,l),
(678,10,l),
(619,16,o),
(560,35,o),
(529,101,cs)
);
}
);
width = 702;
},
{
associatedMasterId = "B6803316-6B37-45A2-910F-F0CA711B465A";
guides = (
{
angle = 90;
pos = (604,265);
}
);
layerId = "1084F063-1C1F-4272-A61F-024CA50C5376";
name = "Feb 10 19, 17:46";
shapes = (
{
closed = 1;
nodes = (
(604,0,l),
(345,541,l),
(263,470,l),
(490,0,l)
);
},
{
closed = 1;
nodes = (
(140,0,l),
(140,84,l),
(140,36,o),
(105,17,o),
(40,10,c),
(40,0,l)
);
},
{
closed = 1;
nodes = (
(340,0,l),
(340,10,l),
(275,17,o),
(240,36,o),
(240,84,c),
(240,0,l)
);
},
{
closed = 1;
nodes = (
(490,0,l),
(449,85,l),
(473,34,o),
(455,17,o),
(390,10,c),
(390,0,l)
);
},
{
closed = 1;
nodes = (
(240,0,l),
(240,700,l),
(140,700,l),
(140,0,l)
);
},
{
closed = 1;
nodes = (
(704,0,l),
(704,10,l),
(639,17,o),
(581,49,o),
(559,94,c),
(604,0,l)
);
},
{
closed = 1;
nodes = (
(140,700,l),
(40,700,l),
(40,690,l),
(105,683,o),
(140,664,o),
(140,616,c)
);
},
{
closed = 1;
nodes = (
(537,700,l),
(501,700,l),
(194,422,l),
(199,394,l)
);
},
{
closed = 1;
nodes = (
(240,664,o),
(275,683,o),
(340,690,c),
(340,700,l),
(240,700,l),
(240,616,l)
);
},
{
closed = 1;
nodes = (
(501,700,l),
(401,700,l),
(401,690,l),
(466,683,o),
(456,659,o),
(415,622,c)
);
},
{
closed = 1;
nodes = (
(474,643,o),
(572,683,o),
(637,690,c),
(637,700,l),
(537,700,l),
(442,614,l)
);
}
);
width = 704;
},
{
associatedMasterId = "1127FDDC-7967-4E0A-BDB2-81E1CCE90981";
guides = (
{
angle = 90;
pos = (604,265);
}
);
layerId = "B640D8F3-1F7B-430D-A734-A40D39DD8E65";
name = "Feb 10 19, 17:52";
shapes = (
{
closed = 1;
nodes = (
(1023,0,l),
(561,500,l),
(462,453,l),
(880,0,l)
);
},
{
closed = 1;
nodes = (
(190,0,l),
(190,124,l),
(190,37,o),
(104,17,o),
(20,10,c),
(20,0,l)
);
},
{
closed = 1;
nodes = (
(465,0,l),
(465,10,l),
(381,17,o),
(295,37,o),
(295,124,c),
(295,0,l)
);
},
{
closed = 1;
nodes = (
(295,0,l),
(295,700,l),
(190,700,l),
(190,0,l)
);
},
{
closed = 1;
nodes = (
(190,700,l),
(20,700,l),
(20,690,l),
(104,683,o),
(190,663,o),
(190,576,c)
);
},
{
closed = 1;
nodes = (
(880,0,l),
(750,141,l),
(820,65,o),
(794,17,o),
(710,10,c),
(710,0,l)
);
},
{
closed = 1;
nodes = (
(295,663,o),
(381,683,o),
(465,690,c),
(465,700,l),
(295,700,l),
(295,576,l)
);
},
{
closed = 1;
nodes = (
(1193,0,l),
(1193,10,l),
(1109,17,o),
(961,67,o),
(891,143,c),
(1023,0,l)
);
},
{
closed = 1;
nodes = (
(1023,700,l),
(959,700,l),
(261,376,l),
(274,352,l)
);
},
{
closed = 1;
nodes = (
(959,700,l),
(789,700,l),
(789,690,l),
(873,683,o),
(845,647,o),
(692,576,c)
);
},
{
closed = 1;
nodes = (
(924,654,o),
(1079,683,o),
(1163,690,c),
(1163,700,l),
(1023,700,l),
(771,583,l)
);
}
);
width = 1193;
},
{
anchors = (
{
name = bottom;
pos = (392,0);
},
{
name = top;
pos = (392,700);
}
);
layerId = "52EA2D2A-A4E3-47AA-B963-53B6A9E26FA1";
shapes = (
{
closed = 1;
nodes = (
(494,604,l),
(516,623,l),
(583,674,o),
(644,679,o),
(668,680,c),
(668,700,l),
(494,700,l),
(494,680,l),
(516,679,o),
(521,675,o),
(478,636,c),
(305,490,l),
(305,616,ls),
(305,674,o),
(340,679,o),
(365,680,c),
(365,700,l),
(25,700,l),
(25,680,l),
(50,679,o),
(85,674,o),
(85,616,cs),
(85,84,ls),
(85,26,o),
(50,21,o),
(25,20,c),
(25,0,l),
(365,0,l),
(365,20,l),
(340,21,o),
(305,26,o),
(305,84,cs),
(305,444,l),
(316,454,l),
(458,78,ls),
(474,25,o),
(450,21,o),
(426,20,c),
(426,0,l),
(784,0,l),
(784,20,l),
(759,21,o),
(719,25,o),
(695,75,cs)
);
}
);
width = 783;
},
{
anchors = (
{
name = bottom;
pos = (368,0);
},
{
name = top;
pos = (368,700);
}
);
layerId = "ECEC25EE-2268-427F-924A-A8A033D1E43A";
shapes = (
{
closed = 1;
nodes = (
(340,538,l),
(451,639,ls),
(501,681,o),
(546,683,o),
(618,690,c),
(618,700,l),
(395,700,l),
(395,690,l),
(458,683,o),
(469,679,o),
(423,635,cs),
(189,423,l),
(189,630,ls),
(189,678,o),
(223,682,o),
(289,689,c),
(289,699,l),
(44,699,l),
(44,689,l),
(120,682,o),
(144,678,o),
(144,630,cs),
(144,68,ls),
(144,20,o),
(119,16,o),
(44,9,c),
(44,-1,l),
(289,-1,l),
(289,9,l),
(224,16,o),
(189,20,o),
(189,68,cs),
(189,401,l),
(304,506,l),
(519,62,ls),
(539,21,o),
(511,17,o),
(449,10,c),
(449,0,l),
(698,0,l),
(698,10,l),
(629,16,o),
(588,21,o),
(570,59,cs)
);
}
);
width = 736;
},
{
anchors = (
{
name = bottom;
pos = (648,0);
},
{
name = top;
pos = (648,700);
}
);
layerId = "92782D03-6C32-4A0E-AEF4-B0D65DFAA275";
shapes = (
{
closed = 1;
nodes = (
(772,548,l),
(880,598,ls),
(1054,677,o),
(1138,675,o),
(1209,676,c),
(1209,700,l),
(866,700,l),
(866,676,l),
(928,675,o),
(948,671,o),
(791,596,cs),
(457,441,l),
(457,576,ls),
(457,678,o),
(533,675,o),
(607,676,c),
(607,700,l),
(27,700,l),
(27,676,l),
(113,675,o),
(177,676,o),
(177,576,cs),
(177,124,ls),
(177,24,o),
(113,28,o),
(27,24,c),
(27,0,l),
(607,0,l),
(607,24,l),
(533,28,o),
(457,22,o),
(457,124,cs),
(457,402,l),
(514,428,l),
(726,111,ls),
(780,18,o),
(720,26,o),
(650,24,c),
(650,0,l),
(1276,0,l),
(1276,24,l),
(1214,25,o),
(1130,20,o),
(1059,117,cs)
);
}
);
width = 1296;
},
{
anchors = (
{
name = bottom;
pos = (631,0);
},
{
name = top;
pos = (631,700);
}
);
layerId = "C70D92E6-6044-4AAB-ADF3-B84826DC9CB7";
shapes = (
{
closed = 1;
nodes = (
(606,498,l),
(832,603,ls),
(1013,684,o),
(1095,683,o),
(1186,690,c),
(1186,700,l),
(832,700,l),
(832,690,l),
(921,683,o),
(961,684,o),
(807,610,cs),
(269,359,l),
(269,596,ls),
(269,684,o),
(345,683,o),
(439,690,c),
(439,700,l),
(54,700,l),
(54,690,l),
(150,683,o),
(224,682,o),
(224,596,cs),
(224,104,ls),
(224,18,o),
(150,17,o),
(54,10,c),
(54,0,l),
(439,0,l),
(439,10,l),
(345,17,o),
(269,16,o),
(269,104,cs),
(269,341,l),
(563,478,l),
(910,102,ls),
(987,16,o),
(927,17,o),
(834,10,c),
(834,0,l),
(1210,0,l),
(1210,10,l),
(1122,17,o),
(1059,16,o),
(985,88,cs)
);
}
);
width = 1262;
},
{
associatedMasterId = "52EA2D2A-A4E3-47AA-B963-53B6A9E26FA1";
layerId = "7BDC78B7-C495-4995-9E3A-EED1E917F6AC";
name = "Mar 31 19, 17:18";
shapes = (
{
closed = 1;
nodes = (
(598,700,l),
(544,700,l),
(214,422,l),
(234,393,l)
);
},
{
closed = 1;
nodes = (
(713,0,l),
(481,613,l),
(296,481,l),
(477,0,l)
);
},
{
closed = 1;
nodes = (
(713,0,l),
(774,0,l),
(774,20,l),
(748,21,o),
(705,25,o),
(681,83,c)
);
},
{
closed = 1;
nodes = (
(355,0,l),
(355,20,l),
(330,21,o),
(295,26,o),
(295,84,cs),
(295,616,ls),
(295,674,o),
(330,679,o),
(355,680,c),
(355,700,l),
(15,700,l),
(15,680,l),
(40,679,o),
(75,674,o),
(75,616,cs),
(75,84,ls),
(75,26,o),
(40,21,o),
(15,20,c),
(15,0,l)
);
},
{
closed = 1;
nodes = (
(466,25,o),
(441,21,o),
(416,20,c),
(416,0,l),
(477,0,l),
(446,83,l)
);
},
{
closed = 1;
nodes = (
(568,674,o),
(633,679,o),
(658,680,c),
(658,700,l),
(598,700,l),
(498,616,l)
);
},
{
closed = 1;
nodes = (
(544,700,l),
(484,700,l),
(484,680,l),
(509,679,o),
(512,673,o),
(444,615,c)
);
}
);
width = 774;
},
{
associatedMasterId = "ECEC25EE-2268-427F-924A-A8A033D1E43A";
layerId = "77EE3D35-2C30-41D5-AC96-B088FFB2FC98";
name = "Mar 31 19, 17:18";
shapes = (
{
closed = 1;
nodes = (
(195,630,l),
(195,678,o),
(229,682,o),
(295,689,c),
(295,699,l),
(50,699,l),
(50,689,l),
(126,682,o),
(150,678,o),
(150,630,cs),
(150,68,l),
(150,20,o),
(125,16,o),
(50,9,c),
(50,-1,l),
(295,-1,l),
(295,9,l),
(230,16,o),
(195,20,o),
(195,68,c)
);
},
{
closed = 1;
nodes = (
(604,0,l),
(345,541,l),
(307,513,l),
(555,0,l)
);
},
{
closed = 1;
nodes = (
(525,700,l),
(501,700,l),
(194,422,l),
(187,394,l)
);
},
{
closed = 1;
nodes = (
(555,0,l),
(522,69,l),
(544,21,o),
(520,17,o),
(455,10,c),
(455,0,l)
);
},
{
closed = 1;
nodes = (
(704,0,l),
(704,10,l),
(629,17,o),
(595,22,o),
(571,69,c),
(604,0,l)
);
},
{
closed = 1;
nodes = (
(401,690,l),
(466,683,o),
(476,679,o),
(425,631,c),
(501,700,l),
(401,700,l)
);
},
{
closed = 1;
nodes = (
(451,633,l),
(504,681,o),
(549,683,o),
(624,690,c),
(624,700,l),
(525,700,l)
);
}
);
width = 704;
},
{
associatedMasterId = "C70D92E6-6044-4AAB-ADF3-B84826DC9CB7";
layerId = "50539929-E58C-47DD-B4E2-D538BA4EF9A4";
name = "Mar 31 19, 17:25";
shapes = (
{
closed = 1;
nodes = (
(1062,0,l),
(600,500,l),
(554,483,l),
(1000,0,l)
);
},
{
closed = 1;
nodes = (
(1037,700,l),
(998,700,l),
(264,359,l),
(252,335,l)
);
},
{
closed = 1;
nodes = (
(265,596,ls),
(265,684,o),
(341,683,o),
(435,690,c),
(435,700,l),
(50,700,l),
(50,690,l),
(146,683,o),
(220,682,o),
(220,596,cs),
(220,104,ls),
(220,18,o),
(146,17,o),
(50,10,c),
(50,0,l),
(435,0,l),
(435,10,l),
(341,17,o),
(265,16,o),
(265,104,cs)
);
},
{
closed = 1;
nodes = (
(1062,0,l),
(1206,0,l),
(1206,10,l),
(1112,17,o),
(1048,16,o),
(966,104,c)
);
},
{
closed = 1;
nodes = (
(984,16,o),
(924,17,o),
(830,10,c),
(830,0,l),
(1000,0,l),
(904,104,l)
);
},
{
closed = 1;
nodes = (
(1004,684,o),
(1088,683,o),
(1182,690,c),
(1182,700,l),
(1037,700,l),
(813,596,l)
);
},
{
closed = 1;
nodes = (
(998,700,l),
(828,700,l),
(828,690,l),
(922,683,o),
(961,684,o),
(775,596,c)
);
}
);
width = 1206;
},
{
associatedMasterId = "92782D03-6C32-4A0E-AEF4-B0D65DFAA275";
layerId = "3FFC66BD-5B8C-45A5-B2D5-174CBA7C0CCC";
name = "Mar 31 19, 17:45";
shapes = (
{
closed = 1;
nodes = (
(1093,700,l),
(1009,700,l),
(311,376,l),
(343,352,l)
);
},
{
closed = 1;
nodes = (
(1130,0,l),
(748,573,l),
(494,448,l),
(793,0,l)
);
},
{
closed = 1;
nodes = (
(1130,0,l),
(1269,0,l),
(1269,24,l),
(1206,25,o),
(1119,20,o),
(1047,124,c)
);
},
{
closed = 1;
nodes = (
(779,17,o),
(716,26,o),
(643,24,c),
(643,0,l),
(793,0,l),
(711,124,l)
);
},
{
closed = 1;
nodes = (
(450,576,ls),
(450,678,o),
(526,675,o),
(600,676,c),
(600,700,l),
(20,700,l),
(20,676,l),
(106,675,o),
(170,676,o),
(170,576,cs),
(170,124,ls),
(170,24,o),
(106,28,o),
(20,24,c),
(20,0,l),
(600,0,l),
(600,24,l),
(526,28,o),
(450,22,o),
(450,124,cs)
);
},
{
closed = 1;
nodes = (
(1042,677,o),
(1129,676,o),
(1202,676,c),
(1202,700,l),
(1092,700,l),
(858,591,l)
);
},
{
closed = 1;
nodes = (
(1009,700,l),
(859,700,l),
(859,676,l),
(923,675,o),
(943,671,o),
(764,586,c)
);
}
);
width = 1269;
}
);
unicode = 75;
},
{
glyphname = L;
kernLeft = H;
kernRight = L;
lastChange = "2022-01-30 17:22:28 +0000";
layers = (
{
anchors = (
{
name = bottom;
pos = (476,0);
},
{
name = center;
pos = (476,350);
},
{
name = top;
pos = (306,700);
},
{
name = topright;
pos = (530,700);
}
);
layerId = "1127FDDC-7967-4E0A-BDB2-81E1CCE90981";
shapes = (
{
closed = 1;
nodes = (
(864,145,o),
(835,25,o),
(698,25,cs),
(319,25,l),
(319,576,l),
(319,665,o),
(411,684,o),
(487,690,c),
(487,700,l),
(49,700,l),
(49,690,l),
(133,683,o),
(219,665,o),
(219,576,cs),
(219,124,ls),
(219,37,o),
(133,17,o),
(49,10,c),
(49,0,l),
(881,0,l),
(881,245,l),
(871,245,l)
);
}
);
width = 952;
},
{
anchors = (
{
name = bottom;
pos = (271,0);
},
{
name = center;
pos = (271,350);
},
{
name = top;
pos = (209,700);
},
{
name = topright;
pos = (312,750);
}
);
layerId = "B6803316-6B37-45A2-910F-F0CA711B465A";
shapes = (
{
closed = 1;
nodes = (
(480,126,o),
(437,25,o),
(344,25,cs),
(225,25,l),
(225,616,ls),
(225,664,o),
(260,683,o),
(325,690,c),
(325,700,l),
(30,700,l),
(30,690,l),
(95,683,o),
(130,664,o),
(130,616,cs),
(130,84,ls),
(130,36,o),
(95,17,o),
(30,10,c),
(30,0,l),
(497,0,l),
(497,225,l),
(487,225,l)
);
}
);
width = 542;
},
{
anchors = (
{
name = bottom;
pos = (297,0);
},
{
name = center;
pos = (297,350);
},
{
name = top;
pos = (203,700);
},
{
name = topright;
pos = (390,830);
}
);
layerId = "52EA2D2A-A4E3-47AA-B963-53B6A9E26FA1";
shapes = (
{
closed = 1;
nodes = (
(540,156,o),
(517,25,o),
(354,25,cs),
(305,25,l),
(305,616,ls),
(305,674,o),
(340,679,o),
(365,680,c),
(365,700,l),
(25,700,l),
(25,680,l),
(50,679,o),
(85,674,o),
(85,616,cs),
(85,84,ls),
(85,26,o),
(50,21,o),
(25,20,c),
(25,0,l),
(567,0,l),
(567,245,l),
(547,245,l)
);
}
);
width = 594;
},
{
anchors = (
{
name = bottom;
pos = (280,0);
},
{
name = center;
pos = (280,350);
},
{
name = top;
pos = (213,700);
},
{
name = topright;
pos = (339,800);
}
);
layerId = "ECEC25EE-2268-427F-924A-A8A033D1E43A";
shapes = (
{
closed = 1;
nodes = (
(490,76,o),
(470,23,o),
(379,15,c),
(189,15,l),
(189,631,ls),
(189,679,o),
(223,683,o),
(289,690,c),
(289,700,l),
(44,700,l),
(44,690,l),
(110,683,o),
(144,679,o),
(144,631,cs),
(144,69,ls),
(144,21,o),
(109,17,o),
(44,10,c),
(44,0,l),
(506,0,l),
(506,214,l),
(496,214,l)
);
}
);
width = 559;
},
{
anchors = (
{
name = bottom;
pos = (503,0);
},
{
name = center;
pos = (503,350);
},
{
name = top;
pos = (363,700);
},
{
name = topright;
pos = (650,800);
}
);
layerId = "92782D03-6C32-4A0E-AEF4-B0D65DFAA275";
shapes = (
{
closed = 1;
nodes = (
(932,126,o),
(853,35,o),
(686,35,cs),
(457,35,l),
(457,576,ls),
(457,676,o),
(521,669,o),
(607,676,c),
(607,700,l),
(27,700,l),
(27,676,l),
(113,669,o),
(177,676,o),
(177,576,cs),
(177,124,ls),
(177,24,o),
(113,31,o),
(27,24,c),
(27,0,l),
(959,0,l),
(959,245,l),
(939,245,l)
);
}
);
width = 1005;
},
{
anchors = (
{
name = bottom;
pos = (511,0);
},
{
name = center;
pos = (511,350);
},
{
name = top;
pos = (269,700);
},
{
name = topright;
pos = (488,800);
}
);
layerId = "C70D92E6-6044-4AAB-ADF3-B84826DC9CB7";
shapes = (
{
closed = 1;
nodes = (
(931,106,o),
(911,23,o),
(820,15,c),
(269,15,l),
(269,596,ls),
(269,682,o),
(343,683,o),
(439,690,c),
(439,700,l),
(54,700,l),
(54,690,l),
(150,683,o),
(224,682,o),
(224,596,cs),
(224,104,ls),
(224,18,o),
(150,17,o),
(54,10,c),
(54,0,l),
(947,0,l),
(947,244,l),
(937,244,l)
);
}
);
width = 1022;
},
{
associatedMasterId = "ECEC25EE-2268-427F-924A-A8A033D1E43A";
layerId = "8E75D47F-84FB-446D-83B0-795984CA3B66";
name = "Mar 26 19, 17:27";
shapes = (
{
closed = 1;
nodes = (
(185,0,l),
(185,700,l),
(140,700,l),
(140,0,l)
);
},
{
closed = 1;
nodes = (
(502,0,l),
(502,15,l),
(154,15,l),
(154,0,l)
);
},
{
closed = 1;
nodes = (
(140,0,l),
(140,69,l),
(140,21,o),
(105,17,o),
(40,10,c),
(40,0,l)
);
},
{
closed = 1;
nodes = (
(140,700,l),
(40,700,l),
(40,690,l),
(106,683,o),
(140,679,o),
(140,631,c)
);
},
{
closed = 1;
nodes = (
(485,64,o),
(462,14,o),
(349,14,c),
(502,14,l),
(502,214,l),
(492,214,l)
);
},
{
closed = 1;
nodes = (
(185,679,o),
(219,683,o),
(285,690,c),
(285,700,l),
(185,700,l),
(185,631,l)
);
}
);
width = 600;
},
{
associatedMasterId = "1127FDDC-7967-4E0A-BDB2-81E1CCE90981";
layerId = "5279052B-4B24-422F-94FC-81B37E42A5AC";
name = "Mar 26 19, 17:27";
shapes = (
{
closed = 1;
nodes = (
(310,0,l),
(310,700,l),
(210,700,l),
(210,0,l)
);
},
{
closed = 1;
nodes = (
(210,0,l),
(210,124,l),
(210,37,o),
(124,17,o),
(40,10,c),
(40,0,l)
);
},
{
closed = 1;
nodes = (
(872,0,l),
(872,25,l),
(229,25,l),
(229,0,l)
);
},
{
closed = 1;
nodes = (
(872,25,l),
(872,245,l),
(862,245,l),
(855,145,o),
(826,24,o),
(689,25,c)
);
},
{
closed = 1;
nodes = (
(210,700,l),
(40,700,l),
(40,690,l),
(124,683,o),
(210,663,o),
(210,576,c)
);
},
{
closed = 1;
nodes = (
(308,663,o),
(394,683,o),
(478,690,c),
(478,700,l),
(308,700,l),
(308,576,l)
);
}
);
width = 892;
},
{
associatedMasterId = "B6803316-6B37-45A2-910F-F0CA711B465A";
layerId = "14E8AD30-420D-432B-A3FF-48D255AF3D29";
name = "Mar 26 19, 17:27";
shapes = (
{
closed = 1;
nodes = (
(240,0,l),
(240,700,l),
(140,700,l),
(140,0,l)
);
},
{
closed = 1;
nodes = (
(140,0,l),
(140,84,l),
(140,36,o),
(105,17,o),
(40,10,c),
(40,0,l)
);
},
{
closed = 1;
nodes = (
(512,0,l),
(512,25,l),
(209,25,l),
(209,0,l)
);
},
{
closed = 1;
nodes = (
(512,25,l),
(512,225,l),
(502,225,l),
(495,126,o),
(452,25,o),
(359,25,c)
);
},
{
closed = 1;
nodes = (
(140,700,l),
(40,700,l),
(40,690,l),
(105,683,o),
(140,664,o),
(140,616,c)
);
},
{
closed = 1;
nodes = (
(240,664,o),
(275,683,o),
(340,690,c),
(340,700,l),
(240,700,l),
(240,616,l)
);
}
);
width = 522;
},
{
associatedMasterId = "C70D92E6-6044-4AAB-ADF3-B84826DC9CB7";
layerId = "53B744E0-2299-4DC1-9929-9DAAD8BD933B";
name = "Mar 27 19, 14:09";
shapes = (
{
closed = 1;
nodes = (
(260,0,l),
(943,0,l),
(943,244,l),
(933,244,l),
(927,106,o),
(907,23,o),
(816,15,c),
(260,15,l)
);
},
{
closed = 1;
nodes = (
(220,540,l),
(220,104,ls),
(220,18,o),
(146,17,o),
(50,10,c),
(50,0,l),
(265,0,l),
(265,540,l)
);
},
{
closed = 1;
nodes = (
(265,540,l),
(265,700,l),
(50,700,l),
(50,690,l),
(146,683,o),
(220,682,o),
(220,596,cs),
(220,540,l)
);
},
{
closed = 1;
nodes = (
(265,596,ls),
(265,682,o),
(339,683,o),
(435,690,c),
(435,700,l),
(220,700,l),
(220,540,l),
(265,540,l)
);
}
);
width = 1003;
},
{
associatedMasterId = "92782D03-6C32-4A0E-AEF4-B0D65DFAA275";
layerId = "0FE16B6A-0096-4EC1-BBBA-AD6D2B780154";
name = "Mar 27 19, 15:20";
shapes = (
{
closed = 1;
nodes = (
(972,0,l),
(972,245,l),
(962,245,l),
(955,126,o),
(866,35,o),
(699,35,cs),
(334,35,l),
(340,0,l)
);
},
{
closed = 1;
nodes = (
(40,686,l),
(126,679,o),
(190,676,o),
(190,576,cs),
(190,124,ls),
(190,24,o),
(126,21,o),
(40,14,c),
(40,0,l),
(470,0,l),
(470,576,ls),
(470,676,o),
(534,679,o),
(620,686,c),
(620,700,l),
(40,700,l)
);
}
);
width = 982;
}
);
unicode = 76;
},
{
glyphname = Lslash;
lastChange = "2022-01-30 17:04:17 +0000";
layers = (
{
layerId = "ECEC25EE-2268-427F-924A-A8A033D1E43A";
shapes = (
{
closed = 1;
nodes = (
(38,292,l),
(46,276,l),
(352,445,l),
(344,461,l)
);
},
{
ref = L;
}
);
width = 559;
},
{
layerId = "B6803316-6B37-45A2-910F-F0CA711B465A";
shapes = (
{
closed = 1;
nodes = (
(38,292,l),
(50,267,l),
(356,436,l),
(344,461,l)
);
},
{
ref = L;
}
);
width = 542;
},
{
layerId = "52EA2D2A-A4E3-47AA-B963-53B6A9E26FA1";
shapes = (
{
closed = 1;
nodes = (
(25,284,l),
(38,251,l),
(415,460,l),
(402,493,l)
);
},
{
ref = L;
}
);
width = 594;
},
{
layerId = "C70D92E6-6044-4AAB-ADF3-B84826DC9CB7";
shapes = (
{
closed = 1;
nodes = (
(109,292,l),
(117,276,l),
(516,496,l),
(508,512,l)
);
},
{
ref = L;
}
);
width = 1022;
},
{
layerId = "1127FDDC-7967-4E0A-BDB2-81E1CCE90981";
shapes = (
{
closed = 1;
nodes = (
(88,292,l),
(100,267,l),
(521,499,l),
(509,524,l)
);
},
{
ref = L;
}
);
width = 952;
},
{
layerId = "92782D03-6C32-4A0E-AEF4-B0D65DFAA275";
shapes = (
{
closed = 1;
nodes = (
(65,224,l),
(78,191,l),
(634,499,l),
(621,532,l)
);
},
{
ref = L;
}
);
width = 1005;
}
);
unicode = 321;
},
{
glyphname = M;
kernLeft = H;
kernRight = H;
lastChange = "2022-01-30 14:40:57 +0000";
layers = (
{
anchors = (
{
name = bottom;
pos = (344,0);
},
{
name = top;
pos = (344,700);
}
);
layerId = "B6803316-6B37-45A2-910F-F0CA711B465A";
shapes = (
{
closed = 1;
nodes = (
(663,700,l),
(463,700,l),
(343,398,l),
(214,700,l),
(22,700,l),
(22,690,l),
(87,683,o),
(122,665,o),
(122,616,cs),
(122,84,ls),
(122,36,o),
(87,17,o),
(42,10,c),
(42,0,l),
(247,0,l),
(247,10,l),
(182,17,o),
(147,36,o),
(147,84,cs),
(147,604,l),
(308,234,l),
(463,628,l),
(463,84,ls),
(463,36,o),
(428,17,o),
(383,10,c),
(383,0,l),
(663,0,l),
(663,10,l),
(598,17,o),
(563,36,o),
(563,84,cs),
(563,616,ls),
(563,665,o),
(598,683,o),
(663,690,c)
);
}
);
width = 688;
},
{
associatedMasterId = "B6803316-6B37-45A2-910F-F0CA711B465A";
layerId = "AD0C133C-909E-4DD4-AE7E-6AF75C624443";
name = "Feb 10 19, 18:09";
shapes = (
{
closed = 1;
nodes = (
(508,700,l),
(480,700,l),
(385,407,l),
(234,700,l),
(115,700,l),
(357,233,l)
);
},
{
closed = 1;
nodes = (
(140,0,l),
(140,84,l),
(140,36,o),
(105,17,o),
(60,10,c),
(60,0,l)
);
},
{
closed = 1;
nodes = (
(265,0,l),
(265,10,l),
(200,17,o),
(165,36,o),
(165,84,c),
(165,0,l)
);
},
{
closed = 1;
nodes = (
(480,0,l),
(480,84,l),
(480,36,o),
(445,17,o),
(400,10,c),
(400,0,l)
);
},
{
closed = 1;
nodes = (
(165,0,l),
(165,700,l),
(140,700,l),
(140,0,l)
);
},
{
closed = 1;
nodes = (
(680,0,l),
(680,10,l),
(615,17,o),
(580,36,o),
(580,84,c),
(580,0,l)
);
},
{
closed = 1;
nodes = (
(140,700,l),
(40,700,l),
(40,690,l),
(105,683,o),
(140,665,o),
(140,616,c)
);
},
{
closed = 1;
nodes = (
(580,0,l),
(580,700,l),
(480,700,l),
(480,0,l)
);
},
{
closed = 1;
nodes = (
(580,665,o),
(615,683,o),
(680,690,c),
(680,700,l),
(580,700,l),
(580,616,l)
);
}
);
width = 720;
},
{
associatedMasterId = "B6803316-6B37-45A2-910F-F0CA711B465A";
layerId = "2CBEE010-C4D1-4D1E-8657-E438B64F5496";
name = "Jan 24 19, 14:15";
shapes = (
{
closed = 1;
nodes = (
(165,0,l),
(165,700,l),
(140,700,l),
(140,0,l)
);
},
{
closed = 1;
nodes = (
(580,0,l),
(580,700,l),
(480,700,l),
(480,0,l)
);
},
{
closed = 1;
nodes = (
(580,665,o),
(615,683,o),
(680,690,c),
(680,700,l),
(580,700,l),
(580,616,l)
);
},
{
closed = 1;
nodes = (
(580,0,l),
(680,0,l),
(680,10,l),
(615,17,o),
(580,36,o),
(580,84,c)
);
},
{
closed = 1;
nodes = (
(480,36,o),
(445,17,o),
(400,10,c),
(400,0,l),
(480,0,l),
(480,84,l)
);
},
{
closed = 1;
nodes = (
(451,279,l),
(234,700,l),
(115,700,l),
(357,233,l)
);
},
{
closed = 1;
nodes = (
(289,27,l),
(506,693,l),
(480,700,l),
(264,35,l)
);
}
);
width = 700;
},
{
anchors = (
{
name = bottom;
pos = (737,0);
},
{
name = top;
pos = (737,700);
}
);
guides = (
{
angle = 90;
pos = (699,10);
}
);
layerId = "1127FDDC-7967-4E0A-BDB2-81E1CCE90981";
shapes = (
{
closed = 1;
nodes = (
(1424,700,l),
(1134,700,l),
(740,103,l),
(328,700,l),
(49,700,l),
(49,690,l),
(133,683,o),
(239,663,o),
(239,576,cs),
(239,124,ls),
(239,37,o),
(133,17,o),
(49,10,c),
(49,0,l),
(454,0,l),
(454,10,l),
(370,17,o),
(264,37,o),
(264,124,cs),
(264,617,l),
(699,-15,l),
(1134,648,l),
(1134,124,ls),
(1134,37,o),
(1028,17,o),
(944,10,c),
(944,0,l),
(1424,0,l),
(1424,10,l),
(1340,17,o),
(1234,37,o),
(1234,124,cs),
(1234,576,ls),
(1234,663,o),
(1340,683,o),
(1424,690,c)
);
}
);
width = 1473;
},
{
associatedMasterId = "1127FDDC-7967-4E0A-BDB2-81E1CCE90981";
guides = (
{
angle = 90;
pos = (690,10);
}
);
layerId = "53A1A97F-2EB3-479B-B788-3DE2F73C5EB4";
name = "Feb 10 19, 18:09";
shapes = (
{
closed = 1;
nodes = (
(1159,700,l),
(1125,700,l),
(735,105,l),
(326,700,l),
(198,700,l),
(690,-15,l)
);
},
{
closed = 1;
nodes = (
(230,0,l),
(230,124,l),
(230,37,o),
(124,17,o),
(40,10,c),
(40,0,l)
);
},
{
closed = 1;
nodes = (
(445,0,l),
(445,10,l),
(361,17,o),
(255,37,o),
(255,124,c),
(255,0,l)
);
},
{
closed = 1;
nodes = (
(255,0,l),
(255,700,l),
(230,700,l),
(230,0,l)
);
},
{
closed = 1;
nodes = (
(230,700,l),
(40,700,l),
(40,690,l),
(124,683,o),
(230,663,o),
(230,576,c)
);
},
{
closed = 1;
nodes = (
(1125,0,l),
(1125,124,l),
(1125,37,o),
(1019,17,o),
(935,10,c),
(935,0,l)
);
},
{
closed = 1;
nodes = (
(1415,0,l),
(1415,10,l),
(1331,17,o),
(1225,37,o),
(1225,124,c),
(1225,0,l)
);
},
{
closed = 1;
nodes = (
(1225,0,l),
(1225,700,l),
(1125,700,l),
(1125,0,l)
);
},
{
closed = 1;
nodes = (
(1225,663,o),
(1331,683,o),
(1415,690,c),
(1415,700,l),
(1225,700,l),
(1225,576,l)
);
}
);
width = 1455;
},
{
anchors = (
{
name = bottom;
pos = (375,0);
},
{
name = top;
pos = (375,700);
}
);
layerId = "52EA2D2A-A4E3-47AA-B963-53B6A9E26FA1";
shapes = (
{
closed = 1;
nodes = (
(725,700,l),
(445,700,l),
(377,513,l),
(304,700,l),
(25,700,l),
(25,680,l),
(50,679,o),
(85,674,o),
(85,616,cs),
(85,84,ls),
(85,26,o),
(50,21,o),
(25,20,c),
(25,0,l),
(180,0,l),
(180,20,l),
(155,21,o),
(120,26,o),
(120,84,cs),
(120,564,l),
(283,153,l),
(445,596,l),
(445,84,ls),
(445,26,o),
(410,21,o),
(385,20,c),
(385,0,l),
(725,0,l),
(725,20,l),
(700,21,o),
(665,26,o),
(665,84,cs),
(665,616,ls),
(665,674,o),
(700,679,o),
(725,680,c)
);
}
);
width = 750;
},
{
anchors = (
{
name = bottom;
pos = (364,0);
},
{
name = top;
pos = (364,700);
}
);
guides = (
{
angle = 90;
pos = (351,257);
}
);
layerId = "ECEC25EE-2268-427F-924A-A8A033D1E43A";
shapes = (
{
closed = 1;
nodes = (
(684,700,l),
(539,700,l),
(366,305,l),
(173,700,l),
(44,700,l),
(44,690,l),
(120,683,o),
(144,679,o),
(144,631,cs),
(144,69,l),
(142,21,o),
(118,17,o),
(44,10,c),
(44,0,l),
(259,0,l),
(259,10,l),
(194,17,o),
(159,21,o),
(159,69,cs),
(159,630,l),
(351,234,l),
(539,661,l),
(539,69,ls),
(539,21,o),
(504,17,o),
(439,10,c),
(439,0,l),
(684,0,l),
(684,10,l),
(609,17,o),
(584,21,o),
(584,69,cs),
(584,631,ls),
(584,679,o),
(608,683,o),
(684,690,c)
);
}
);
width = 728;
},
{
anchors = (
{
name = bottom;
pos = (674,0);
},
{
name = top;
pos = (674,700);
}
);
layerId = "92782D03-6C32-4A0E-AEF4-B0D65DFAA275";
shapes = (
{
closed = 1;
nodes = (
(1320,700,l),
(890,700,l),
(686,314,l),
(456,700,l),
(27,700,l),
(27,676,l),
(113,669,o),
(177,676,o),
(177,576,cs),
(177,124,ls),
(177,24,o),
(113,31,o),
(27,24,c),
(27,0,l),
(362,0,l),
(362,24,l),
(288,31,o),
(212,22,o),
(212,124,cs),
(212,562,l),
(554,-10,l),
(890,626,l),
(890,124,ls),
(890,24,o),
(826,31,o),
(740,24,c),
(740,0,l),
(1320,0,l),
(1320,24,l),
(1246,31,o),
(1170,22,o),
(1170,124,cs),
(1170,576,ls),
(1170,678,o),
(1246,669,o),
(1320,676,c)
);
}
);
width = 1347;
},
{
anchors = (
{
name = bottom;
pos = (716,0);
},
{
name = top;
pos = (716,700);
}
);
layerId = "C70D92E6-6044-4AAB-ADF3-B84826DC9CB7";
shapes = (
{
closed = 1;
nodes = (
(1377,700,l),
(1162,700,l),
(716,38,l),
(240,701,l),
(54,701,l),
(54,691,l),
(150,684,o),
(224,683,o),
(224,597,cs),
(224,105,ls),
(224,19,o),
(150,18,o),
(54,11,c),
(54,1,l),
(409,1,l),
(409,11,l),
(315,18,o),
(239,17,o),
(239,105,cs),
(239,625,l),
(699,-15,l),
(1162,673,l),
(1162,104,ls),
(1162,18,o),
(1088,17,o),
(992,10,c),
(992,0,l),
(1377,0,l),
(1377,10,l),
(1283,17,o),
(1207,16,o),
(1207,104,cs),
(1207,596,ls),
(1207,684,o),
(1283,683,o),
(1377,690,c)
);
}
);
width = 1431;
},
{
associatedMasterId = "ECEC25EE-2268-427F-924A-A8A033D1E43A";
guides = (
{
angle = 90;
pos = (347,257);
}
);
layerId = "9E11AEAD-2119-482A-A3AD-C4C2834300FA";
name = "Mar 31 19, 17:57";
shapes = (
{
closed = 1;
nodes = (
(140,0,l),
(140,69,l),
(138,21,o),
(114,17,o),
(40,10,c),
(40,0,l)
);
},
{
closed = 1;
nodes = (
(255,0,l),
(255,10,l),
(190,17,o),
(155,21,o),
(155,69,c),
(155,0,l)
);
},
{
closed = 1;
nodes = (
(155,0,l),
(155,700,l),
(140,700,l),
(140,0,l)
);
},
{
closed = 1;
nodes = (
(140,700,l),
(40,700,l),
(40,690,l),
(116,683,o),
(140,679,o),
(140,631,c)
);
},
{
closed = 1;
nodes = (
(535,0,l),
(535,69,l),
(535,21,o),
(500,17,o),
(435,10,c),
(435,0,l)
);
},
{
closed = 1;
nodes = (
(680,0,l),
(680,10,l),
(605,17,o),
(580,21,o),
(580,69,c),
(580,0,l)
);
},
{
closed = 1;
nodes = (
(580,0,l),
(580,700,l),
(535,700,l),
(535,0,l)
);
},
{
closed = 1;
nodes = (
(580,679,o),
(604,683,o),
(680,690,c),
(680,700,l),
(580,700,l),
(580,631,l)
);
},
{
closed = 1;
nodes = (
(363,302,l),
(169,700,l),
(121,700,l),
(347,234,l)
);
},
{
closed = 1;
nodes = (
(347,234,l),
(552,700,l),
(535,700,l),
(355,290,l)
);
}
);
width = 720;
},
{
associatedMasterId = "52EA2D2A-A4E3-47AA-B963-53B6A9E26FA1";
guides = (
{
angle = 270;
pos = (274,-9);
}
);
layerId = "A4215153-FAE4-4D5B-A433-A95195837B36";
name = "Mar 31 19, 18:03";
shapes = (
{
closed = 1;
nodes = (
(435,84,ls),
(435,26,o),
(400,21,o),
(375,20,c),
(375,0,l),
(715,0,l),
(715,20,l),
(690,21,o),
(655,26,o),
(655,84,cs),
(655,616,ls),
(655,674,o),
(690,679,o),
(715,680,c),
(715,700,l),
(435,700,l)
);
},
{
closed = 1;
nodes = (
(110,700,l),
(15,700,l),
(15,680,l),
(40,679,o),
(75,674,o),
(75,616,cs),
(75,84,ls),
(75,26,o),
(40,21,o),
(15,20,c),
(15,0,l),
(170,0,l),
(170,20,l),
(145,21,o),
(110,26,o),
(110,84,cs)
);
},
{
closed = 1;
nodes = (
(273,152,l),
(468,686,l),
(435,700,l),
(257,210,l)
);
},
{
closed = 1;
nodes = (
(382,476,l),
(294,700,l),
(56,700,l),
(274,152,l)
);
}
);
width = 755;
},
{
associatedMasterId = "C70D92E6-6044-4AAB-ADF3-B84826DC9CB7";
layerId = "75397E69-28E8-4EA4-A71B-6933CEC38269";
name = "Mar 31 19, 18:13";
shapes = (
{
closed = 1;
nodes = (
(235,700,l),
(50,701,l),
(50,691,l),
(146,684,o),
(220,683,o),
(220,597,cs),
(220,105,ls),
(220,19,o),
(146,18,o),
(50,11,c),
(50,1,l),
(405,1,l),
(405,11,l),
(311,18,o),
(235,17,o),
(235,105,cs)
);
},
{
closed = 1;
nodes = (
(1203,596,ls),
(1203,684,o),
(1279,683,o),
(1373,690,c),
(1373,700,l),
(1158,700,l),
(1158,104,ls),
(1158,18,o),
(1084,17,o),
(988,10,c),
(988,0,l),
(1373,0,l),
(1373,10,l),
(1279,17,o),
(1203,16,o),
(1203,104,cs)
);
},
{
closed = 1;
nodes = (
(717,31,l),
(236,701,l),
(200,674,l),
(695,-15,l)
);
},
{
closed = 1;
nodes = (
(1171,692,l),
(1158,700,l),
(693,10,l),
(695,-15,l)
);
}
);
width = 1423;
},
{
associatedMasterId = "92782D03-6C32-4A0E-AEF4-B0D65DFAA275";
layerId = "B5F35A01-1ECB-4CC8-84A7-D03BA97C881F";
name = "Mar 31 19, 18:22";
shapes = (
{
closed = 1;
nodes = (
(200,700,l),
(15,700,l),
(15,676,l),
(101,669,o),
(165,676,o),
(165,576,cs),
(165,124,ls),
(165,24,o),
(101,31,o),
(15,24,c),
(15,0,l),
(350,0,l),
(350,24,l),
(276,31,o),
(200,22,o),
(200,124,cs)
);
},
{
closed = 1;
nodes = (
(878,124,ls),
(878,24,o),
(814,31,o),
(728,24,c),
(728,0,l),
(1308,0,l),
(1308,24,l),
(1234,31,o),
(1158,22,o),
(1158,124,cs),
(1158,576,ls),
(1158,678,o),
(1234,669,o),
(1308,676,c),
(1308,700,l),
(878,700,l)
);
},
{
closed = 1;
nodes = (
(541,-14,l),
(917,700,l),
(878,700,l),
(555,89,l)
);
},
{
closed = 1;
nodes = (
(677,308,l),
(444,700,l),
(118,700,l),
(541,-11,l)
);
}
);
width = 1323;
}
);
unicode = 77;
},
{
glyphname = N;
kernLeft = H;
kernRight = H;
lastChange = "2022-01-30 14:40:57 +0000";
layers = (
{
anchors = (
{
name = bottom;
pos = (643,0);
},
{
name = top;
pos = (643,700);
}
);
background = {
shapes = (
{
closed = 1;
nodes = (
(574,700,l),
(574,690,l),
(658,683,o),
(744,663,o),
(744,576,cs),
(744,179,l),
(324,700,l),
(69,700,l),
(69,690,l),
(153,683,o),
(239,663,o),
(239,576,cs),
(239,124,ls),
(239,37,o),
(153,17,o),
(69,10,c),
(69,0,l),
(434,0,l),
(434,10,l),
(350,17,o),
(264,37,o),
(264,124,cs),
(264,606,l),
(769,-18,l),
(769,576,ls),
(769,663,o),
(855,683,o),
(939,690,c),
(939,700,l)
);
}
);
};
layerId = "1127FDDC-7967-4E0A-BDB2-81E1CCE90981";
shapes = (
{
closed = 1;
nodes = (
(837,690,l),
(921,683,o),
(1027,663,o),
(1027,576,cs),
(1027,127,l),
(294,700,l),
(49,700,l),
(49,690,l),
(132,683,o),
(238,663,o),
(239,576,cs),
(239,124,ls),
(239,37,o),
(133,17,o),
(49,10,c),
(49,0,l),
(454,0,l),
(454,10,l),
(370,17,o),
(264,37,o),
(264,124,cs),
(264,596,l),
(1047,-15,l),
(1052,-15,l),
(1052,576,ls),
(1052,663,o),
(1158,683,o),
(1242,690,c),
(1242,700,l),
(837,700,l)
);
}
);
width = 1286;
},
{
anchors = (
{
name = bottom;
pos = (302,0);
},
{
name = top;
pos = (302,700);
}
);
layerId = "B6803316-6B37-45A2-910F-F0CA711B465A";
shapes = (
{
closed = 1;
nodes = (
(361,690,l),
(426,683,o),
(461,664,o),
(461,616,cs),
(461,231,l),
(211,700,l),
(26,700,l),
(26,690,l),
(85,684,o),
(119,668,o),
(125,629,c),
(125,84,ls),
(125,36,o),
(90,17,o),
(25,10,c),
(25,0,l),
(250,0,l),
(250,10,l),
(185,17,o),
(150,36,o),
(150,84,cs),
(150,606,l),
(481,-15,l),
(486,-15,l),
(486,616,ls),
(486,664,o),
(521,683,o),
(586,690,c),
(586,700,l),
(361,700,l)
);
}
);
width = 604;
},
{
associatedMasterId = "B6803316-6B37-45A2-910F-F0CA711B465A";
layerId = "1103C937-A2D5-4EC3-A1B3-A75454CA6A23";
name = "Jan 24 19, 11:28";
shapes = (
{
closed = 1;
nodes = (
(165,0,l),
(165,700,l),
(140,700,l),
(140,0,l)
);
},
{
closed = 1;
nodes = (
(446,57,l),
(471,0,l),
(471,700,l),
(446,700,l)
);
},
{
closed = 1;
nodes = (
(467,241,l),
(241,700,l),
(119,700,l),
(471,-17,l)
);
},
{
closed = 1;
nodes = (
(140,36,o),
(105,17,o),
(40,10,c),
(40,0,l),
(140,0,l),
(140,84,l)
);
},
{
closed = 1;
nodes = (
(165,0,l),
(265,0,l),
(265,10,l),
(200,17,o),
(165,36,o),
(165,84,c)
);
},
{
closed = 1;
nodes = (
(446,700,l),
(346,700,l),
(346,690,l),
(411,683,o),
(446,664,o),
(446,616,c)
);
},
{
closed = 1;
nodes = (
(471,664,o),
(506,683,o),
(571,690,c),
(571,700,l),
(471,700,l),
(471,616,l)
);
},
{
closed = 1;
nodes = (
(141,700,l),
(41,700,l),
(41,690,l),
(106,683,o),
(141,664,o),
(141,616,c)
);
}
);
width = 611;
},
{
associatedMasterId = "1127FDDC-7967-4E0A-BDB2-81E1CCE90981";
background = {
shapes = (
{
closed = 1;
nodes = (
(565,700,l),
(565,690,l),
(649,683,o),
(735,663,o),
(735,576,cs),
(735,179,l),
(315,700,l),
(60,700,l),
(60,690,l),
(144,683,o),
(230,663,o),
(230,576,cs),
(230,124,ls),
(230,37,o),
(144,17,o),
(60,10,c),
(60,0,l),
(425,0,l),
(425,10,l),
(341,17,o),
(255,37,o),
(255,124,cs),
(255,606,l),
(760,-18,l),
(760,576,ls),
(760,663,o),
(846,683,o),
(930,690,c),
(930,700,l)
);
}
);
};
backgroundImage = {
imagePath = "Type Design/Library/CloudStorage/GoogleDrive-collletttivo@gmail.com/Il mio Drive/Progetti/_Archivio/Squarespace/Final Handover/Sprat/SCANS/Image005.jpg";
locked = 1;
pos = (-1496,-729);
scale = (6.909,6.909);
};
layerId = "5A709DB9-E785-4F26-A888-0456B1EACE88";
name = "Feb 9 19, 18:51";
shapes = (
{
closed = 1;
nodes = (
(255,0,l),
(255,700,l),
(230,700,l),
(230,0,l)
);
},
{
closed = 1;
nodes = (
(992,118,l),
(293,700,l),
(129,700,l),
(992,-18,l)
);
},
{
closed = 1;
nodes = (
(967,57,l),
(992,0,l),
(992,700,l),
(967,700,l)
);
},
{
closed = 1;
nodes = (
(230,37,o),
(124,17,o),
(40,10,c),
(40,0,l),
(230,0,l),
(230,124,l)
);
},
{
closed = 1;
nodes = (
(255,0,l),
(445,0,l),
(445,10,l),
(361,17,o),
(255,37,o),
(255,124,c)
);
},
{
closed = 1;
nodes = (
(230,700,l),
(40,700,l),
(40,690,l),
(123,683,o),
(229,663,o),
(230,576,c)
);
},
{
closed = 1;
nodes = (
(967,700,l),
(777,700,l),
(777,690,l),
(861,683,o),
(967,663,o),
(967,576,c)
);
},
{
closed = 1;
nodes = (
(992,663,o),
(1098,683,o),
(1182,690,c),
(1182,700,l),
(992,700,l),
(992,576,l)
);
}
);
width = 1222;
},
{
associatedMasterId = "1127FDDC-7967-4E0A-BDB2-81E1CCE90981";
background = {
shapes = (
{
closed = 1;
nodes = (
(565,700,l),
(565,690,l),
(649,683,o),
(735,663,o),
(735,576,cs),
(735,179,l),
(315,700,l),
(60,700,l),
(60,690,l),
(144,683,o),
(230,663,o),
(230,576,cs),
(230,124,ls),
(230,37,o),
(144,17,o),
(60,10,c),
(60,0,l),
(425,0,l),
(425,10,l),
(341,17,o),
(255,37,o),
(255,124,cs),
(255,606,l),
(760,-18,l),
(760,576,ls),
(760,663,o),
(846,683,o),
(930,690,c),
(930,700,l)
);
}
);
};
layerId = "FC236ADF-08CD-4982-8EFE-F6E05B66A935";
name = "Feb 10 19, 15:30";
shapes = (
{
closed = 1;
nodes = (
(993,118,l),
(294,700,l),
(130,700,l),
(993,-18,l)
);
},
{
closed = 1;
nodes = (
(230,0,l),
(230,124,l),
(230,37,o),
(124,17,o),
(40,10,c),
(40,0,l)
);
},
{
closed = 1;
nodes = (
(445,0,l),
(445,10,l),
(361,17,o),
(255,37,o),
(255,124,c),
(255,0,l)
);
},
{
closed = 1;
nodes = (
(255,0,l),
(255,700,l),
(230,700,l),
(230,0,l)
);
},
{
closed = 1;
nodes = (
(230,700,l),
(40,700,l),
(40,690,l),
(123,683,o),
(229,663,o),
(230,576,c)
);
},
{
closed = 1;
nodes = (
(993,700,l),
(968,700,l),
(968,57,l),
(993,0,l)
);
},
{
closed = 1;
nodes = (
(968,700,l),
(778,700,l),
(778,690,l),
(862,683,o),
(968,663,o),
(968,576,c)
);
},
{
closed = 1;
nodes = (
(993,663,o),
(1099,683,o),
(1183,690,c),
(1183,700,l),
(993,700,l),
(993,576,l)
);
}
);
width = 1223;
},
{
anchors = (
{
name = bottom;
pos = (326,0);
},
{
name = top;
pos = (326,700);
}
);
layerId = "52EA2D2A-A4E3-47AA-B963-53B6A9E26FA1";
shapes = (
{
closed = 1;
nodes = (
(475,680,l),
(500,679,o),
(535,674,o),
(535,616,cs),
(535,360,l),
(317,699,l),
(25,700,l),
(25,680,l),
(50,679,o),
(85,674,o),
(85,616,cs),
(85,84,ls),
(85,26,o),
(50,21,o),
(25,20,c),
(25,0,l),
(180,0,l),
(180,20,l),
(155,21,o),
(120,26,o),
(120,84,cs),
(120,599,l),
(505,0,l),
(570,0,l),
(570,616,ls),
(570,674,o),
(605,679,o),
(630,680,c),
(630,700,l),
(475,700,l)
);
}
);
width = 651;
},
{
anchors = (
{
name = bottom;
pos = (319,0);
},
{
name = top;
pos = (319,700);
}
);
layerId = "ECEC25EE-2268-427F-924A-A8A033D1E43A";
shapes = (
{
closed = 1;
nodes = (
(385,690,l),
(451,683,o),
(485,679,o),
(485,631,cs),
(485,100,l),
(169,700,l),
(44,700,l),
(44,690,l),
(120,683,o),
(144,679,o),
(144,631,cs),
(144,68,ls),
(144,20,o),
(119,16,o),
(44,9,c),
(44,-1,l),
(259,-1,l),
(259,9,l),
(194,16,o),
(159,20,o),
(159,68,cs),
(159,623,l),
(495,-15,l),
(500,-15,l),
(500,631,ls),
(500,679,o),
(524,683,o),
(600,690,c),
(600,700,l),
(385,700,l)
);
}
);
width = 638;
},
{
anchors = (
{
name = bottom;
pos = (583,0);
},
{
name = top;
pos = (583,700);
}
);
layerId = "92782D03-6C32-4A0E-AEF4-B0D65DFAA275";
shapes = (
{
closed = 1;
nodes = (
(811,676,l),
(897,669,o),
(961,676,o),
(961,576,cs),
(961,368,l),
(547,700,l),
(27,700,l),
(27,676,l),
(113,669,o),
(177,676,o),
(177,576,cs),
(177,124,ls),
(177,24,o),
(113,31,o),
(27,24,c),
(27,0,l),
(362,0,l),
(362,24,l),
(288,31,o),
(212,22,o),
(212,124,cs),
(212,609,l),
(991,-15,l),
(996,-15,l),
(996,576,ls),
(996,678,o),
(1072,669,o),
(1146,676,c),
(1146,700,l),
(811,700,l)
);
}
);
width = 1166;
},
{
anchors = (
{
name = bottom;
pos = (632,0);
},
{
name = top;
pos = (632,700);
}
);
layerId = "C70D92E6-6044-4AAB-ADF3-B84826DC9CB7";
shapes = (
{
closed = 1;
nodes = (
(860,690,l),
(956,683,o),
(1030,682,o),
(1030,596,cs),
(1030,51,l),
(241,700,l),
(54,700,l),
(54,690,l),
(148,684,o),
(224,683,o),
(224,596,cs),
(224,104,ls),
(224,18,o),
(150,17,o),
(54,10,c),
(54,0,l),
(409,0,l),
(409,10,l),
(315,17,o),
(239,16,o),
(239,104,cs),
(239,643,l),
(1040,-15,l),
(1045,-15,l),
(1045,596,ls),
(1045,684,o),
(1121,683,o),
(1215,690,c),
(1215,700,l),
(860,700,l)
);
}
);
width = 1264;
},
{
associatedMasterId = "ECEC25EE-2268-427F-924A-A8A033D1E43A";
layerId = "DC09550E-5166-4350-834B-FCC8CF58AD27";
name = "Mar 26 19, 12:49";
shapes = (
{
closed = 1;
nodes = (
(140,-1,l),
(140,68,l),
(140,20,o),
(115,16,o),
(40,9,c),
(40,-1,l)
);
},
{
closed = 1;
nodes = (
(255,-1,l),
(255,9,l),
(190,16,o),
(155,20,o),
(155,68,c),
(155,-1,l)
);
},
{
closed = 1;
nodes = (
(155,-1,l),
(155,700,l),
(140,700,l),
(140,-1,l)
);
},
{
closed = 1;
nodes = (
(140,700,l),
(40,700,l),
(40,690,l),
(116,683,o),
(140,679,o),
(140,631,c)
);
},
{
closed = 1;
nodes = (
(496,-15,l),
(496,700,l),
(481,700,l),
(481,44,l)
);
},
{
closed = 1;
nodes = (
(481,700,l),
(381,700,l),
(381,690,l),
(447,683,o),
(481,679,o),
(481,631,c)
);
},
{
closed = 1;
nodes = (
(496,679,o),
(520,683,o),
(596,690,c),
(596,700,l),
(496,700,l),
(496,631,l)
);
},
{
closed = 1;
nodes = (
(489,94,l),
(165,700,l),
(126,677,l),
(496,-15,l)
);
}
);
width = 636;
},
{
associatedMasterId = "52EA2D2A-A4E3-47AA-B963-53B6A9E26FA1";
layerId = "621BA01E-466A-49D8-8D12-2DCFCEB245CD";
name = "Mar 26 19, 15:25";
shapes = (
{
closed = 1;
nodes = (
(170,0,l),
(170,10,l),
(145,17,o),
(110,26,o),
(110,84,cs),
(110,700,l),
(15,700,l),
(15,690,l),
(40,683,o),
(75,674,o),
(75,616,cs),
(75,84,ls),
(75,26,o),
(40,17,o),
(15,10,c),
(15,0,l)
);
},
{
closed = 1;
nodes = (
(485,414,l),
(307,699,l),
(47,700,l),
(495,-17,l)
);
},
{
closed = 1;
nodes = (
(500,-16,l),
(500,616,ls),
(500,674,o),
(535,683,o),
(560,690,c),
(560,700,l),
(405,700,l),
(405,690,l),
(430,683,o),
(465,674,o),
(465,616,cs),
(465,53,l)
);
}
);
width = 605;
},
{
associatedMasterId = "C70D92E6-6044-4AAB-ADF3-B84826DC9CB7";
layerId = "076389D8-E899-4560-8174-A18ED8D14A28";
name = "Mar 27 19, 13:41";
shapes = (
{
closed = 1;
nodes = (
(225,700,l),
(40,700,l),
(40,690,l),
(134,684,o),
(210,683,o),
(210,596,cs),
(210,104,ls),
(210,18,o),
(136,17,o),
(40,10,c),
(40,0,l),
(395,0,l),
(395,10,l),
(301,17,o),
(225,16,o),
(225,104,cs)
);
},
{
closed = 1;
nodes = (
(1031,684,o),
(1107,683,o),
(1201,690,c),
(1201,700,l),
(846,700,l),
(846,690,l),
(942,683,o),
(1016,682,o),
(1016,596,cs),
(1016,18,l),
(1031,-15,l),
(1031,596,ls)
);
},
{
closed = 1;
nodes = (
(1019,49,l),
(227,700,l),
(156,700,l),
(1026,-15,l)
);
}
);
width = 1241;
},
{
associatedMasterId = "92782D03-6C32-4A0E-AEF4-B0D65DFAA275";
layerId = "9618781A-2496-48C4-B2C3-58FAFDE56794";
name = "Mar 27 19, 15:30";
shapes = (
{
closed = 1;
nodes = (
(215,700,l),
(30,700,l),
(30,686,l),
(116,679,o),
(180,676,o),
(180,576,c),
(180,124,l),
(180,24,o),
(116,21,o),
(30,14,c),
(30,0,l),
(365,0,l),
(365,14,l),
(291,21,o),
(215,22,o),
(215,124,c)
);
},
{
closed = 1;
nodes = (
(999,-15,l),
(999,576,l),
(999,678,o),
(1075,679,o),
(1149,686,c),
(1149,700,l),
(814,700,l),
(814,686,l),
(900,679,o),
(964,676,o),
(964,576,c),
(964,115,l)
);
},
{
closed = 1;
nodes = (
(984,352,l),
(537,700,l),
(101,700,l),
(999,-15,l)
);
}
);
width = 1189;
}
);
unicode = 78;
},
{
glyphname = O;
kernLeft = O;
kernRight = O;
lastChange = "2022-01-30 15:44:20 +0000";
layers = (
{
anchors = (
{
name = bottom;
pos = (656,0);
},
{
name = center;
pos = (656,350);
},
{
name = ogonek;
pos = (1180,10);
},
{
name = top;
pos = (656,700);
},
{
name = topleft;
pos = (20,700);
},
{
name = topright;
pos = (1291,700);
}
);
layerId = "1127FDDC-7967-4E0A-BDB2-81E1CCE90981";
shapes = (
{
closed = 1;
nodes = (
(972,-15,o),
(1245,143,o),
(1245,345,cs),
(1245,546,o),
(972,715,o),
(657,715,cs),
(340,715,o),
(66,546,o),
(66,345,cs),
(66,143,o),
(340,-15,o),
(657,-15,cs)
);
},
{
closed = 1;
nodes = (
(379,10,o),
(186,150,o),
(186,345,cs),
(186,549,o),
(379,690,o),
(657,690,cs),
(930,690,o),
(1125,549,o),
(1125,345,cs),
(1125,150,o),
(930,10,o),
(657,10,cs)
);
}
);
width = 1311;
},
{
associatedMasterId = "1127FDDC-7967-4E0A-BDB2-81E1CCE90981";
backgroundImage = {
imagePath = "Type Design/Library/CloudStorage/GoogleDrive-collletttivo@gmail.com/Il mio Drive/Progetti/_Archivio/Squarespace/Final Handover/Sprat/SCANS/caps/O.jpg";
pos = (4,-216);
scale = (6.8821,6.8821);
};
layerId = "9B515221-291A-4276-89FD-59C34127A053";
name = "Jan 23 19, 11:39";
shapes = (
{
closed = 1;
nodes = (
(707,-15,o),
(905,143,o),
(905,345,cs),
(905,546,o),
(707,715,o),
(463,715,cs),
(219,715,o),
(20,546,o),
(20,345,cs),
(20,143,o),
(219,-15,o),
(463,-15,cs)
);
},
{
closed = 1;
nodes = (
(269,10,o),
(135,150,o),
(135,345,cs),
(135,549,o),
(269,690,o),
(463,690,cs),
(654,690,o),
(790,549,o),
(790,345,cs),
(790,150,o),
(654,10,o),
(463,10,cs)
);
}
);
width = 925;
},
{
associatedMasterId = "1127FDDC-7967-4E0A-BDB2-81E1CCE90981";
layerId = "565A382C-0A27-4E2C-9C4E-A66D31CD7483";
name = "Feb 3 19, 17:20";
shapes = (
{
closed = 1;
nodes = (
(747,-15,o),
(945,143,o),
(945,345,cs),
(945,546,o),
(747,715,o),
(503,715,cs),
(259,715,o),
(60,546,o),
(60,345,cs),
(60,143,o),
(259,-15,o),
(503,-15,cs)
);
},
{
closed = 1;
nodes = (
(309,10,o),
(175,150,o),
(175,345,cs),
(175,549,o),
(309,690,o),
(503,690,cs),
(694,690,o),
(830,549,o),
(830,345,cs),
(830,150,o),
(694,10,o),
(503,10,cs)
);
}
);
width = 1005;
},
{
anchors = (
{
name = bottom;
pos = (332,0);
},
{
name = center;
pos = (332,350);
},
{
name = ogonek;
pos = (597,10);
},
{
name = top;
pos = (332,700);
},
{
name = topleft;
pos = (20,700);
},
{
name = topright;
pos = (643,700);
}
);
layerId = "B6803316-6B37-45A2-910F-F0CA711B465A";
shapes = (
{
closed = 1;
nodes = (
(493,-15,o),
(603,143,o),
(603,345,cs),
(603,546,o),
(493,715,o),
(332,715,cs),
(171,715,o),
(60,546,o),
(60,345,cs),
(60,143,o),
(171,-15,o),
(332,-15,cs)
);
},
{
closed = 1;
nodes = (
(208,10,o),
(160,140,o),
(160,345,cs),
(160,559,o),
(208,690,o),
(332,690,cs),
(454,690,o),
(503,559,o),
(503,345,cs),
(503,140,o),
(454,10,o),
(332,10,cs)
);
}
);
width = 663;
},
{
anchors = (
{
name = bottom;
pos = (324,0);
},
{
name = center;
pos = (324,350);
},
{
name = ogonek;
pos = (582,10);
},
{
name = top;
pos = (324,700);
},
{
name = topleft;
pos = (20,700);
},
{
name = topright;
pos = (627,700);
}
);
layerId = "52EA2D2A-A4E3-47AA-B963-53B6A9E26FA1";
shapes = (
{
closed = 1;
nodes = (
(495,-15,o),
(605,93,o),
(605,345,cs),
(605,596,o),
(495,715,o),
(324,715,cs),
(153,715,o),
(42,596,o),
(42,345,cs),
(42,93,o),
(153,-15,o),
(324,-15,cs)
);
},
{
closed = 1;
nodes = (
(281,20,o),
(267,74,o),
(267,364,cs),
(267,630,o),
(279,680,o),
(324,680,cs),
(368,680,o),
(380,630,o),
(380,352,cs),
(380,74,o),
(368,20,o),
(324,20,cs)
);
}
);
width = 647;
},
{
anchors = (
{
name = bottom;
pos = (350,0);
},
{
name = center;
pos = (350,350);
},
{
name = ogonek;
pos = (629,10);
},
{
name = top;
pos = (350,700);
},
{
name = topleft;
pos = (20,700);
},
{
name = topright;
pos = (679,700);
}
);
layerId = "ECEC25EE-2268-427F-924A-A8A033D1E43A";
shapes = (
{
closed = 1;
nodes = (
(511,-15,o),
(621,143,o),
(621,345,cs),
(621,546,o),
(511,715,o),
(350,715,cs),
(189,715,o),
(78,546,o),
(78,345,cs),
(78,143,o),
(189,-15,o),
(350,-15,cs)
);
},
{
closed = 1;
nodes = (
(239,0,o),
(128,115,o),
(128,345,cs),
(128,582,o),
(239,700,o),
(349,700,cs),
(460,700,o),
(571,582,o),
(571,345,cs),
(571,115,o),
(460,0,o),
(350,0,cs)
);
}
);
width = 699;
},
{
anchors = (
{
name = bottom;
pos = (634,0);
},
{
name = center;
pos = (634,350);
},
{
name = ogonek;
pos = (1140,10);
},
{
name = top;
pos = (634,700);
},
{
name = topleft;
pos = (20,700);
},
{
name = topright;
pos = (1247,700);
}
);
layerId = "92782D03-6C32-4A0E-AEF4-B0D65DFAA275";
shapes = (
{
closed = 1;
nodes = (
(950,-15,o),
(1223,113,o),
(1223,345,cs),
(1223,576,o),
(950,715,o),
(635,715,cs),
(318,715,o),
(44,576,o),
(44,345,cs),
(44,113,o),
(318,-15,o),
(635,-15,cs)
);
},
{
closed = 1;
nodes = (
(434,20,o),
(334,185,o),
(334,350,cs),
(334,515,o),
(434,680,o),
(635,680,cs),
(833,680,o),
(933,514,o),
(933,349,cs),
(933,184,o),
(834,20,o),
(635,20,cs)
);
}
);
width = 1267;
},
{
anchors = (
{
name = bottom;
pos = (663,0);
},
{
name = center;
pos = (663,350);
},
{
name = ogonek;
pos = (1193,10);
},
{
name = top;
pos = (663,700);
},
{
name = topleft;
pos = (20,700);
},
{
name = topright;
pos = (1305,700);
}
);
layerId = "C70D92E6-6044-4AAB-ADF3-B84826DC9CB7";
shapes = (
{
closed = 1;
nodes = (
(979,-15,o),
(1252,123,o),
(1252,345,cs),
(1252,564,o),
(979,715,o),
(664,715,cs),
(347,715,o),
(73,566,o),
(73,345,cs),
(73,123,o),
(347,-15,o),
(664,-15,cs)
);
},
{
closed = 1;
nodes = (
(302,0,o),
(123,174,o),
(123,349,cs),
(123,524,o),
(304,700,o),
(664,700,cs),
(1022,700,o),
(1202,524,o),
(1202,348,cs),
(1202,174,o),
(1024,0,o),
(664,0,cs)
);
}
);
width = 1325;
},
{
associatedMasterId = "92782D03-6C32-4A0E-AEF4-B0D65DFAA275";
layerId = "5D300077-B362-49E9-8577-6EF90C6281CC";
name = "Mar 27 19, 15:24";
shapes = (
{
closed = 1;
nodes = (
(966,-15,o),
(1239,143,o),
(1239,345,cs),
(1239,546,o),
(966,715,o),
(651,715,cs),
(334,715,o),
(60,546,o),
(60,345,cs),
(60,143,o),
(334,-15,o),
(651,-15,cs)
);
},
{
closed = 1;
nodes = (
(450,20,o),
(350,185,o),
(350,350,cs),
(350,515,o),
(450,680,o),
(651,680,cs),
(849,680,o),
(949,514,o),
(949,349,cs),
(949,184,o),
(850,20,o),
(651,20,cs)
);
}
);
width = 1299;
}
);
unicode = 79;
},
{
glyphname = Oslash;
kernLeft = O;
kernRight = O;
lastChange = "2022-01-30 14:40:57 +0000";
layers = (
{
anchors = (
{
name = bottom;
pos = (350,0);
},
{
name = top;
pos = (350,700);
}
);
layerId = "ECEC25EE-2268-427F-924A-A8A033D1E43A";
shapes = (
{
closed = 1;
nodes = (
(135,-58,l),
(156,-58,l),
(570,764,l),
(551,766,l)
);
},
{
ref = O;
}
);
width = 699;
},
{
anchors = (
{
name = bottom;
pos = (332,0);
},
{
name = top;
pos = (332,700);
}
);
layerId = "B6803316-6B37-45A2-910F-F0CA711B465A";
shapes = (
{
closed = 1;
nodes = (
(135,-58,l),
(166,-58,l),
(580,764,l),
(551,766,l)
);
},
{
ref = O;
}
);
width = 663;
},
{
anchors = (
{
name = bottom;
pos = (324,0);
},
{
name = top;
pos = (324,700);
}
);
layerId = "52EA2D2A-A4E3-47AA-B963-53B6A9E26FA1";
shapes = (
{
closed = 1;
nodes = (
(125,-58,l),
(166,-58,l),
(580,764,l),
(541,766,l)
);
},
{
ref = O;
}
);
width = 647;
},
{
anchors = (
{
name = bottom;
pos = (663,0);
},
{
name = top;
pos = (663,700);
}
);
layerId = "C70D92E6-6044-4AAB-ADF3-B84826DC9CB7";
shapes = (
{
closed = 1;
nodes = (
(135,-58,l),
(162,-58,l),
(1088,764,l),
(1063,766,l)
);
},
{
ref = O;
}
);
width = 1325;
},
{
anchors = (
{
name = bottom;
pos = (656,0);
},
{
name = top;
pos = (656,700);
}
);
layerId = "1127FDDC-7967-4E0A-BDB2-81E1CCE90981";
shapes = (
{
closed = 1;
nodes = (
(135,-58,l),
(177,-58,l),
(1103,764,l),
(1063,766,l)
);
},
{
ref = O;
}
);
width = 1311;
},
{
anchors = (
{
name = bottom;
pos = (634,0);
},
{
name = top;
pos = (634,700);
}
);
layerId = "92782D03-6C32-4A0E-AEF4-B0D65DFAA275";
shapes = (
{
closed = 1;
nodes = (
(135,-58,l),
(192,-58,l),
(1118,764,l),
(1063,766,l)
);
},
{
ref = O;
}
);
width = 1267;
}
);
unicode = 216;
},
{
glyphname = OE;
kernLeft = O;
kernRight = E;
lastChange = "2022-01-30 14:40:57 +0000";
layers = (
{
anchors = (
{
name = bottom;
pos = (430,0);
},
{
name = top;
pos = (430,700);
}
);
layerId = "B6803316-6B37-45A2-910F-F0CA711B465A";
shapes = (
{
closed = 1;
nodes = (
(717,675,o),
(760,574,o),
(767,475,c),
(777,475,l),
(777,700,l),
(315,700,ls),
(163,700,o),
(60,539,o),
(60,345,cs),
(60,150,o),
(163,0,o),
(315,0,cs),
(777,0,l),
(777,225,l),
(767,225,l),
(760,126,o),
(717,25,o),
(624,25,cs),
(515,25,l),
(515,475,l),
(524,475,ls),
(595,475,o),
(675,381,o),
(704,307,c),
(714,310,l),
(609,620,l),
(599,617,l),
(621,536,o),
(604,500,o),
(524,500,cs),
(515,500,l),
(515,675,l),
(624,675,ls)
);
},
{
closed = 1;
nodes = (
(415,55,o),
(411,25,o),
(378,25,cs),
(332,25,ls),
(208,25,o),
(170,140,o),
(170,345,cs),
(170,559,o),
(208,675,o),
(332,675,cs),
(378,675,ls),
(411,675,o),
(415,645,o),
(415,616,cs),
(415,84,ls)
);
}
);
width = 859;
},
{
anchors = (
{
name = bottom;
pos = (832,0);
},
{
name = top;
pos = (832,700);
}
);
layerId = "1127FDDC-7967-4E0A-BDB2-81E1CCE90981";
shapes = (
{
closed = 1;
nodes = (
(1484,675,o),
(1543,574,o),
(1550,455,c),
(1560,455,l),
(1560,700,l),
(659,700,ls),
(292,700,o),
(68,546,o),
(68,345,cs),
(68,143,o),
(292,0,o),
(659,0,cs),
(1560,0,l),
(1560,245,l),
(1550,245,l),
(1543,125,o),
(1484,25,o),
(1347,25,cs),
(978,25,l),
(978,475,l),
(1137,475,ls),
(1212,475,o),
(1279,415,o),
(1336,274,c),
(1346,277,l),
(1232,620,l),
(1222,617,l),
(1240,536,o),
(1218,500,o),
(1137,500,cs),
(978,500,l),
(978,675,l),
(1347,675,ls)
);
},
{
closed = 1;
nodes = (
(878,37,o),
(859,26,o),
(792,25,cs),
(659,24,ls),
(331,24,o),
(188,150,o),
(188,345,cs),
(188,549,o),
(331,675,o),
(659,675,cs),
(792,674,ls),
(859,674,o),
(878,663,o),
(878,576,cs),
(878,124,ls)
);
}
);
width = 1663;
},
{
associatedMasterId = "1127FDDC-7967-4E0A-BDB2-81E1CCE90981";
layerId = "C46BF669-86CD-4F86-A957-95D8695CC108";
name = "Mar 4 19, 14:49";
shapes = (
{
closed = 1;
nodes = (
(950,700,l),
(950,690,l),
(1033,683,o),
(1140,663,o),
(1140,576,cs),
(1140,124,ls),
(1140,37,o),
(1034,17,o),
(950,10,c),
(950,0,l),
(1822,0,l),
(1822,245,l),
(1812,245,l),
(1805,125,o),
(1746,25,o),
(1609,25,cs),
(1240,25,l),
(1240,475,l),
(1399,475,ls),
(1474,475,o),
(1541,415,o),
(1598,274,c),
(1608,277,l),
(1494,620,l),
(1484,617,l),
(1502,536,o),
(1480,500,o),
(1399,500,cs),
(1240,500,l),
(1240,675,l),
(1609,675,ls),
(1746,675,o),
(1805,574,o),
(1812,455,c),
(1822,455,l),
(1822,700,l)
);
},
{
closed = 1;
nodes = (
(986,-15,o),
(1239,143,o),
(1239,345,cs),
(1239,546,o),
(986,715,o),
(671,715,cs),
(354,715,o),
(80,546,o),
(80,345,cs),
(80,143,o),
(354,-15,o),
(671,-15,cs)
);
},
{
closed = 1;
nodes = (
(393,10,o),
(200,150,o),
(200,345,cs),
(200,549,o),
(393,690,o),
(671,690,cs),
(944,690,o),
(1139,549,o),
(1139,345,cs),
(1139,150,o),
(944,10,o),
(671,10,cs)
);
}
);
width = 1972;
},
{
anchors = (
{
name = bottom;
pos = (473,0);
},
{
name = top;
pos = (473,700);
}
);
layerId = "52EA2D2A-A4E3-47AA-B963-53B6A9E26FA1";
shapes = (
{
closed = 1;
nodes = (
(833,675,o),
(856,544,o),
(863,455,c),
(883,455,l),
(883,700,l),
(323,700,ls),
(152,700,o),
(41,596,o),
(41,345,cs),
(41,93,o),
(152,0,o),
(323,0,cs),
(883,0,l),
(883,245,l),
(863,245,l),
(856,156,o),
(833,25,o),
(670,25,cs),
(621,25,l),
(621,475,l),
(630,475,ls),
(681,475,o),
(757,405,o),
(802,307,c),
(820,310,l),
(715,620,l),
(697,617,l),
(709,541,o),
(690,500,o),
(630,500,cs),
(621,500,l),
(621,675,l),
(670,675,ls)
);
},
{
closed = 1;
nodes = (
(401,41,o),
(367,35,o),
(341,35,cs),
(323,35,ls),
(280,35,o),
(266,74,o),
(266,364,cs),
(266,630,o),
(278,665,o),
(323,665,cs),
(341,665,ls),
(367,665,o),
(401,659,o),
(401,601,cs),
(401,99,ls)
);
}
);
width = 945;
},
{
anchors = (
{
name = bottom;
pos = (444,0);
},
{
name = top;
pos = (444,700);
}
);
layerId = "ECEC25EE-2268-427F-924A-A8A033D1E43A";
shapes = (
{
closed = 1;
nodes = (
(753,685,o),
(776,635,o),
(783,485,c),
(793,485,l),
(793,700,l),
(349,700,ls),
(188,700,o),
(77,546,o),
(77,345,cs),
(77,143,o),
(188,0,o),
(349,0,cs),
(793,0,l),
(793,214,l),
(783,214,l),
(777,76,o),
(757,23,o),
(666,15,c),
(476,15,l),
(476,485,l),
(485,485,ls),
(626,485,o),
(651,478,o),
(720,307,c),
(730,310,l),
(625,620,l),
(615,617,l),
(642,500,o),
(625,500,o),
(485,500,cs),
(476,500,l),
(476,685,l),
(640,685,ls)
);
},
{
closed = 1;
nodes = (
(431,26,o),
(408,15,o),
(361,15,cs),
(349,15,ls),
(238,15,o),
(127,115,o),
(127,345,cs),
(127,582,o),
(238,685,o),
(348,685,cs),
(361,685,ls),
(409,685,o),
(431,674,o),
(431,626,cs),
(431,74,ls)
);
}
);
width = 888;
},
{
anchors = (
{
name = bottom;
pos = (858,0);
},
{
name = top;
pos = (858,700);
}
);
layerId = "92782D03-6C32-4A0E-AEF4-B0D65DFAA275";
shapes = (
{
closed = 1;
nodes = (
(1531,665,o),
(1610,574,o),
(1617,455,c),
(1637,455,l),
(1637,700,l),
(634,700,ls),
(317,700,o),
(43,576,o),
(43,345,cs),
(43,113,o),
(317,0,o),
(634,0,cs),
(1637,0,l),
(1637,245,l),
(1617,245,l),
(1610,125,o),
(1531,35,o),
(1364,35,cs),
(1135,35,l),
(1135,465,l),
(1202,465,ls),
(1279,465,o),
(1351,395,o),
(1405,274,c),
(1423,277,l),
(1309,620,l),
(1291,617,l),
(1301,545,o),
(1285,500,o),
(1202,500,cs),
(1135,500,l),
(1135,665,l),
(1364,665,ls)
);
},
{
closed = 1;
nodes = (
(855,35,o),
(792,35,o),
(705,35,cs),
(634,35,ls),
(433,35,o),
(333,185,o),
(333,350,cs),
(333,515,o),
(433,665,o),
(634,665,cs),
(705,665,ls),
(792,665,o),
(855,665,o),
(855,565,cs),
(855,135,ls)
);
}
);
width = 1715;
},
{
anchors = (
{
name = bottom;
pos = (836,0);
},
{
name = top;
pos = (836,700);
}
);
layerId = "C70D92E6-6044-4AAB-ADF3-B84826DC9CB7";
shapes = (
{
closed = 1;
nodes = (
(1523,685,o),
(1546,605,o),
(1553,455,c),
(1563,455,l),
(1563,700,l),
(665,700,ls),
(348,700,o),
(74,586,o),
(74,345,cs),
(74,103,o),
(348,0,o),
(665,0,cs),
(1563,0,l),
(1563,244,l),
(1553,244,l),
(1547,106,o),
(1527,23,o),
(1436,15,c),
(927,15,l),
(927,485,l),
(1148,484,ls),
(1244,484,o),
(1270,453,o),
(1330,307,c),
(1340,310,l),
(1235,620,l),
(1225,617,l),
(1248,517,o),
(1239,500,o),
(1148,500,cs),
(927,500,l),
(927,685,l),
(1410,685,ls)
);
},
{
closed = 1;
nodes = (
(882,23,o),
(809,15,o),
(732,15,cs),
(665,15,ls),
(303,15,o),
(124,154,o),
(124,349,cs),
(124,544,o),
(305,685,o),
(665,685,cs),
(732,685,ls),
(809,685,o),
(882,677,o),
(882,591,cs),
(882,109,ls)
);
}
);
width = 1671;
},
{
associatedMasterId = "ECEC25EE-2268-427F-924A-A8A033D1E43A";
layerId = "DD3C8730-8108-4069-B68D-87AA59E4E96E";
name = "Apr 24 19, 18:04";
shapes = (
{
closed = 1;
nodes = (
(721,685,o),
(744,635,o),
(751,485,c),
(761,485,l),
(761,700,l),
(319,700,l),
(319,685,l),
(365,678,o),
(399,674,o),
(399,626,cs),
(399,74,ls),
(399,26,o),
(364,22,o),
(319,15,c),
(319,0,l),
(761,0,l),
(761,214,l),
(751,214,l),
(745,76,o),
(725,23,o),
(634,15,c),
(444,15,l),
(444,485,l),
(453,485,ls),
(594,485,o),
(619,478,o),
(688,307,c),
(698,310,l),
(593,620,l),
(583,617,l),
(610,500,o),
(593,500,o),
(453,500,cs),
(444,500,l),
(444,685,l),
(608,685,ls)
);
},
{
closed = 1;
nodes = (
(358,700,l),
(317,700,l),
(156,700,o),
(45,546,o),
(45,345,cs),
(45,143,o),
(156,0,o),
(317,0,c),
(358,0,l),
(358,15,l),
(317,15,l),
(206,15,o),
(95,115,o),
(95,345,cs),
(95,582,o),
(206,685,o),
(316,685,c),
(358,685,l)
);
}
);
width = 811;
},
{
associatedMasterId = "52EA2D2A-A4E3-47AA-B963-53B6A9E26FA1";
layerId = "A6B5D897-268F-4487-89BE-F8C458401729";
name = "Apr 24 19, 18:08";
shapes = (
{
closed = 1;
nodes = (
(847,675,o),
(870,544,o),
(877,455,c),
(897,455,l),
(897,700,l),
(355,700,l),
(355,665,l),
(380,664,o),
(415,659,o),
(415,601,cs),
(415,99,ls),
(415,41,o),
(380,36,o),
(355,35,c),
(355,0,l),
(897,0,l),
(897,245,l),
(877,245,l),
(870,156,o),
(847,25,o),
(684,25,cs),
(635,25,l),
(635,475,l),
(644,475,ls),
(695,475,o),
(771,405,o),
(816,307,c),
(834,310,l),
(729,620,l),
(711,617,l),
(723,541,o),
(704,500,o),
(644,500,cs),
(635,500,l),
(635,675,l),
(684,675,ls)
);
},
{
closed = 1;
nodes = (
(356,700,l),
(307,700,l),
(136,700,o),
(25,596,o),
(25,345,cs),
(25,93,o),
(136,0,o),
(307,0,c),
(356,0,l),
(356,35,l),
(307,35,l),
(264,35,o),
(250,74,o),
(250,364,cs),
(250,630,o),
(262,665,o),
(307,665,c),
(356,665,l)
);
}
);
width = 952;
},
{
associatedMasterId = "C70D92E6-6044-4AAB-ADF3-B84826DC9CB7";
layerId = "78A3D6FB-37FA-40B4-956E-34FEB951A975";
name = "Apr 24 19, 18:14";
shapes = (
{
closed = 1;
nodes = (
(1539,685,o),
(1562,605,o),
(1569,455,c),
(1579,455,l),
(1579,700,l),
(748,700,l),
(748,685,l),
(824,678,o),
(898,677,o),
(898,591,cs),
(898,109,ls),
(898,23,o),
(824,22,o),
(748,15,c),
(748,0,l),
(1579,0,l),
(1579,244,l),
(1569,244,l),
(1563,106,o),
(1543,23,o),
(1452,15,c),
(943,15,l),
(943,485,l),
(1164,484,ls),
(1260,484,o),
(1286,453,o),
(1346,307,c),
(1356,310,l),
(1251,620,l),
(1241,617,l),
(1264,517,o),
(1255,500,o),
(1164,500,cs),
(943,500,l),
(943,685,l),
(1426,685,ls)
);
},
{
closed = 1;
nodes = (
(749,700,l),
(681,700,l),
(364,700,o),
(90,566,o),
(90,345,cs),
(90,123,o),
(364,0,o),
(681,0,c),
(749,0,l),
(749,15,l),
(681,15,l),
(319,15,o),
(140,174,o),
(140,349,cs),
(140,524,o),
(321,685,o),
(681,685,c),
(749,685,l)
);
}
);
width = 1729;
},
{
associatedMasterId = "92782D03-6C32-4A0E-AEF4-B0D65DFAA275";
layerId = "CD29EF10-8520-443E-A412-DC401004795C";
name = "Apr 24 19, 18:17";
shapes = (
{
closed = 1;
nodes = (
(1528,665,o),
(1607,574,o),
(1614,455,c),
(1634,455,l),
(1634,700,l),
(702,700,l),
(702,665,l),
(788,658,o),
(852,665,o),
(852,565,cs),
(852,135,ls),
(852,35,o),
(788,42,o),
(702,35,c),
(702,0,l),
(1634,0,l),
(1634,245,l),
(1614,245,l),
(1607,125,o),
(1528,35,o),
(1361,35,cs),
(1132,35,l),
(1132,465,l),
(1199,465,ls),
(1276,465,o),
(1348,395,o),
(1402,274,c),
(1420,277,l),
(1306,620,l),
(1288,617,l),
(1298,545,o),
(1282,500,o),
(1199,500,cs),
(1132,500,l),
(1132,665,l),
(1361,665,ls)
);
},
{
closed = 1;
nodes = (
(712,700,l),
(631,700,l),
(314,700,o),
(40,576,o),
(40,345,cs),
(40,113,o),
(314,0,o),
(631,0,c),
(712,0,l),
(712,35,l),
(631,35,l),
(430,35,o),
(330,185,o),
(330,350,cs),
(330,515,o),
(430,665,o),
(631,665,c),
(712,665,l)
);
}
);
width = 1684;
}
);
unicode = 338;
},
{
glyphname = P;
kernLeft = H;
kernRight = P;
lastChange = "2022-01-30 14:40:57 +0000";
layers = (
{
anchors = (
{
name = bottom;
pos = (533,0);
},
{
name = top;
pos = (533,700);
}
);
layerId = "1127FDDC-7967-4E0A-BDB2-81E1CCE90981";
shapes = (
{
closed = 1;
nodes = (
(49,700,l),
(49,690,l),
(133,683,o),
(239,663,o),
(239,576,cs),
(239,124,ls),
(239,37,o),
(133,17,o),
(49,10,c),
(49,0,l),
(529,0,l),
(529,10,l),
(445,17,o),
(339,37,o),
(339,124,cs),
(339,411,l),
(762,411,ls),
(943,411,o),
(1009,484,o),
(1009,555,cs),
(1009,626,o),
(942,700,o),
(762,700,cs)
);
},
{
closed = 1;
nodes = (
(856,675,o),
(899,610,o),
(899,554,cs),
(899,498,o),
(856,436,o),
(715,436,cs),
(339,436,l),
(339,675,l),
(715,675,ls)
);
}
);
width = 1066;
},
{
anchors = (
{
name = bottom;
pos = (259,0);
},
{
name = top;
pos = (259,700);
}
);
layerId = "B6803316-6B37-45A2-910F-F0CA711B465A";
shapes = (
{
closed = 1;
nodes = (
(25,700,l),
(25,690,l),
(90,683,o),
(125,664,o),
(125,616,cs),
(125,84,ls),
(125,36,o),
(90,17,o),
(25,10,c),
(25,0,l),
(320,0,l),
(320,10,l),
(255,17,o),
(220,36,o),
(220,84,cs),
(220,452,l),
(270,452,ls),
(399,452,o),
(485,496,o),
(485,576,cs),
(485,651,o),
(415,700,o),
(316,700,cs)
);
},
{
closed = 1;
nodes = (
(356,675,o),
(385,622,o),
(385,575,cs),
(385,529,o),
(356,477,o),
(268,477,cs),
(220,477,l),
(220,675,l),
(268,675,ls)
);
}
);
width = 517;
},
{
anchors = (
{
name = bottom;
pos = (276,0);
},
{
name = top;
pos = (276,700);
}
);
layerId = "ECEC25EE-2268-427F-924A-A8A033D1E43A";
shapes = (
{
closed = 1;
nodes = (
(44,700,l),
(44,690,l),
(120,683,o),
(144,679,o),
(144,631,cs),
(144,69,ls),
(144,21,o),
(119,17,o),
(44,10,c),
(44,0,l),
(289,0,l),
(289,10,l),
(224,17,o),
(189,21,o),
(189,69,cs),
(189,485,l),
(336,485,ls),
(446,485,o),
(501,538,o),
(501,592,cs),
(501,646,o),
(445,700,o),
(336,700,cs)
);
},
{
closed = 1;
nodes = (
(410,685,o),
(454,636,o),
(454,589,cs),
(454,544,o),
(410,500,o),
(306,500,cs),
(189,500,l),
(189,685,l),
(296,685,ls)
);
}
);
width = 551;
},
{
anchors = (
{
name = bottom;
pos = (516,0);
},
{
name = top;
pos = (516,700);
}
);
layerId = "92782D03-6C32-4A0E-AEF4-B0D65DFAA275";
shapes = (
{
closed = 1;
nodes = (
(27,700,l),
(27,676,l),
(113,669,o),
(177,676,o),
(177,576,cs),
(177,124,ls),
(177,24,o),
(113,31,o),
(27,24,c),
(27,0,l),
(607,0,l),
(607,24,l),
(533,31,o),
(457,22,o),
(457,124,cs),
(457,401,l),
(780,401,ls),
(926,401,o),
(999,475,o),
(999,550,cs),
(999,625,o),
(925,700,o),
(780,700,cs)
);
},
{
closed = 1;
nodes = (
(662,665,o),
(715,607,o),
(715,549,cs),
(715,492,o),
(664,436,o),
(558,436,cs),
(457,436,l),
(457,665,l),
(558,665,ls)
);
}
);
width = 1032;
},
{
anchors = (
{
name = bottom;
pos = (524,0);
},
{
name = top;
pos = (524,700);
}
);
layerId = "C70D92E6-6044-4AAB-ADF3-B84826DC9CB7";
shapes = (
{
closed = 1;
nodes = (
(54,700,l),
(54,690,l),
(150,683,o),
(224,682,o),
(224,596,cs),
(224,104,ls),
(224,18,o),
(150,17,o),
(54,10,c),
(54,0,l),
(439,0,l),
(439,10,l),
(345,17,o),
(269,16,o),
(269,104,cs),
(269,421,l),
(780,421,ls),
(917,421,o),
(984,469,o),
(984,555,cs),
(984,626,o),
(919,700,o),
(765,700,cs)
);
},
{
closed = 1;
nodes = (
(893,685,o),
(934,610,o),
(934,554,cs),
(934,498,o),
(893,436,o),
(778,436,cs),
(269,436,l),
(269,685,l),
(778,685,ls)
);
}
);
width = 1047;
},
{
associatedMasterId = "B6803316-6B37-45A2-910F-F0CA711B465A";
layerId = "11EF86AE-5994-4D12-8FFA-F80974FF4E4F";
name = "Mar 28 19, 13:52";
shapes = (
{
closed = 1;
nodes = (
(290,452,ls),
(419,452,o),
(505,496,o),
(505,576,cs),
(505,651,o),
(435,700,o),
(336,700,cs),
(224,700,l),
(224,675,l),
(288,675,ls),
(376,675,o),
(400,622,o),
(400,575,cs),
(400,529,o),
(376,477,o),
(288,477,cs),
(214,477,l),
(214,452,l)
);
},
{
closed = 1;
nodes = (
(140,0,l),
(140,84,l),
(140,36,o),
(105,17,o),
(40,10,c),
(40,0,l)
);
},
{
closed = 1;
nodes = (
(340,0,l),
(340,10,l),
(275,17,o),
(240,36,o),
(240,84,c),
(240,0,l)
);
},
{
closed = 1;
nodes = (
(240,0,l),
(240,700,l),
(140,700,l),
(140,0,l)
);
},
{
closed = 1;
nodes = (
(140,700,l),
(40,700,l),
(40,690,l),
(105,683,o),
(140,664,o),
(140,616,c)
);
}
);
width = 535;
},
{
associatedMasterId = "1127FDDC-7967-4E0A-BDB2-81E1CCE90981";
layerId = "3BB4028D-D402-43BE-8615-C7976DC37C5C";
name = "Mar 28 19, 13:54";
shapes = (
{
closed = 1;
nodes = (
(753,411,ls),
(934,411,o),
(1000,484,o),
(1000,555,cs),
(1000,626,o),
(933,700,o),
(753,700,cs),
(314,700,l),
(314,675,l),
(706,675,ls),
(847,675,o),
(890,610,o),
(890,554,cs),
(890,498,o),
(847,436,o),
(706,436,cs),
(304,436,l),
(304,411,l)
);
},
{
closed = 1;
nodes = (
(230,0,l),
(230,124,l),
(230,37,o),
(124,17,o),
(40,10,c),
(40,0,l)
);
},
{
closed = 1;
nodes = (
(520,0,l),
(520,10,l),
(436,17,o),
(330,37,o),
(330,124,c),
(330,0,l)
);
},
{
closed = 1;
nodes = (
(330,0,l),
(330,700,l),
(230,700,l),
(230,0,l)
);
},
{
closed = 1;
nodes = (
(230,700,l),
(40,700,l),
(40,690,l),
(124,683,o),
(230,663,o),
(230,576,c)
);
}
);
width = 1010;
},
{
associatedMasterId = "52EA2D2A-A4E3-47AA-B963-53B6A9E26FA1";
layerId = "FD2AB939-C3F7-4FD7-977D-CEE492DBE84A";
name = "Mar 31 19, 16:02";
shapes = (
{
closed = 1;
nodes = (
(355,0,l),
(355,10,l),
(330,17,o),
(295,26,o),
(295,84,cs),
(295,665,l),
(314,665,ls),
(366,665,o),
(391,615,o),
(391,564,cs),
(391,512,o),
(364.99,460,o),
(314,460,cs),
(286,460,l),
(286,424,l),
(435,424,ls),
(557,424,o),
(617,493,o),
(617,561,cs),
(617,631,o),
(556,700,o),
(435,700,cs),
(15,700,l),
(15,690,l),
(40,683,o),
(75,674,o),
(75,616,cs),
(75,84,ls),
(75,26,o),
(40,17,o),
(15,10,c),
(15,0,l)
);
}
);
width = 617;
},
{
associatedMasterId = "52EA2D2A-A4E3-47AA-B963-53B6A9E26FA1";
layerId = "8414D971-B948-42C9-B6F1-F6868107A1CD";
name = "Mar 31 19, 16:02";
shapes = (
{
closed = 1;
nodes = (
(15,700,l),
(15,690,l),
(40,683,o),
(75,674,o),
(75,616,cs),
(75,84,ls),
(75,26,o),
(40,17,o),
(15,10,c),
(15,0,l),
(355,0,l),
(355,10,l),
(330,17,o),
(295,26,o),
(295,84,cs),
(295,464,l),
(435,464,ls),
(556,464,o),
(617,523,o),
(617,581,cs),
(617,641,o),
(555,700,o),
(435,700,cs)
);
},
{
closed = 1;
nodes = (
(366,665,o),
(391,625,o),
(391,584,cs),
(391,542,o),
(365,500,o),
(314,500,cs),
(295,500,l),
(295,665,l),
(314,665,ls)
);
}
);
width = 617;
},
{
anchors = (
{
name = bottom;
pos = (320,0);
},
{
name = top;
pos = (320,700);
}
);
layerId = "52EA2D2A-A4E3-47AA-B963-53B6A9E26FA1";
shapes = (
{
closed = 1;
nodes = (
(25,700,l),
(25,680,l),
(50,679,o),
(85,674,o),
(85,616,cs),
(85,84,ls),
(85,26,o),
(50,27,o),
(25,20,c),
(25,0,l),
(365,0,l),
(365,20,l),
(340,21,o),
(305,26,o),
(305,84,cs),
(305,424,l),
(445,424,ls),
(567,424,o),
(627,493,o),
(627,561,cs),
(627,631,o),
(566,700,o),
(445,700,cs)
);
},
{
closed = 1;
nodes = (
(376,665,o),
(401,615,o),
(401,564,cs),
(401,512,o),
(375,460,o),
(324,460,cs),
(305,460,l),
(305,665,l),
(324,665,ls)
);
}
);
width = 640;
}
);
unicode = 80;
},
{
glyphname = Thorn;
kernLeft = H;
kernRight = O;
lastChange = "2022-01-30 14:40:57 +0000";
layers = (
{
anchors = (
{
name = bottom;
pos = (314,0);
},
{
name = top;
pos = (314,700);
}
);
layerId = "ECEC25EE-2268-427F-924A-A8A033D1E43A";
shapes = (
{
closed = 1;
nodes = (
(189,630,l),
(189,678,o),
(223,682,o),
(289,689,c),
(289,699,l),
(44,699,l),
(44,689,l),
(120,682,o),
(144,678,o),
(144,630,cs),
(144,68,ls),
(144,20,o),
(119,16,o),
(44,9,c),
(44,-1,l),
(289,-1,l),
(289,9,l),
(224,16,o),
(189,20,o),
(189,68,c)
);
},
{
closed = 1;
nodes = (
(301,139,ls),
(495,139,o),
(573,244,o),
(573,356,cs),
(573,468,o),
(492,569,o),
(301,569,cs),
(148,569,l),
(148,554,l),
(268,554,ls),
(452,554,o),
(528,468,o),
(528,354,cs),
(528,240,o),
(452,154,o),
(268,154,cs),
(148,154,l),
(148,139,l)
);
}
);
width = 628;
},
{
anchors = (
{
name = bottom;
pos = (315,0);
},
{
name = top;
pos = (315,700);
}
);
layerId = "B6803316-6B37-45A2-910F-F0CA711B465A";
shapes = (
{
closed = 1;
nodes = (
(220,616,ls),
(220,666,o),
(255,685,o),
(320,690,c),
(320,700,l),
(25,700,l),
(25,690,l),
(93,684,o),
(127,665,o),
(125,616,cs),
(125,84,ls),
(125,36,o),
(90,17,o),
(25,10,c),
(25,0,l),
(320,0,l),
(320,10,l),
(255,17,o),
(220,36,o),
(220,84,cs)
);
},
{
closed = 1;
nodes = (
(301,139,ls),
(492,139,o),
(588,247,o),
(588,355,cs),
(588,462,o),
(492.997,569,o),
(301,569,cs),
(148,569,l),
(148,544,l),
(268,544,ls),
(415,544,o),
(488,449,o),
(488,354,cs),
(488,259,o),
(415,164,o),
(268,164,cs),
(148,164,l),
(148,139,l)
);
}
);
width = 630;
},
{
anchors = (
{
name = bottom;
pos = (378,0);
},
{
name = top;
pos = (378,700);
}
);
layerId = "52EA2D2A-A4E3-47AA-B963-53B6A9E26FA1";
shapes = (
{
closed = 1;
nodes = (
(305,616,ls),
(305,674,o),
(340,679,o),
(365,680,c),
(365,700,l),
(25,700,l),
(25,680,l),
(50,679,o),
(85,674,o),
(85,616,cs),
(85,84,ls),
(85,26,o),
(50,21,o),
(25,20,c),
(25,0,l),
(365,0,l),
(365,20,l),
(340,21,o),
(305,26,o),
(305,84,cs)
);
},
{
closed = 1;
nodes = (
(401,134,ls),
(614,134,o),
(720,244,o),
(720,354,cs),
(720,464,o),
(614,574,o),
(401,574,cs),
(248,574,l),
(248,539,l),
(318,539,ls),
(436,539,o),
(495,446,o),
(495,354,cs),
(495,261,o),
(436,169,o),
(318,169,cs),
(248,169,l),
(248,134,l)
);
}
);
width = 755;
},
{
anchors = (
{
name = bottom;
pos = (540,0);
},
{
name = top;
pos = (540,700);
}
);
layerId = "C70D92E6-6044-4AAB-ADF3-B84826DC9CB7";
shapes = (
{
closed = 1;
nodes = (
(269,596,ls),
(269,682,o),
(345,683,o),
(439,690,c),
(439,700,l),
(54,700,l),
(54,690,l),
(150,683,o),
(224,682,o),
(224,596,cs),
(224,104,ls),
(224,16,o),
(150,17,o),
(54,10,c),
(54,0,l),
(439,0,l),
(439,10,l),
(345,17,o),
(269,16,o),
(269,104,cs)
);
},
{
closed = 1;
nodes = (
(711,139,ls),
(935,139,o),
(1013,244,o),
(1013,356,cs),
(1013,468,o),
(932,569,o),
(711,569,cs),
(248,569,l),
(248,554,l),
(678,554,ls),
(892,554,o),
(968,468,o),
(968,354,cs),
(968,240,o),
(892,154,o),
(678,154,cs),
(248,154,l),
(248,139,l)
);
}
);
width = 1079;
},
{
anchors = (
{
name = bottom;
pos = (554,0);
},
{
name = top;
pos = (554,700);
}
);
layerId = "1127FDDC-7967-4E0A-BDB2-81E1CCE90981";
shapes = (
{
closed = 1;
nodes = (
(339,576,l),
(339,663,o),
(445,683,o),
(529,690,c),
(529,700,l),
(49,700,l),
(49,690,l),
(133,683,o),
(239,663,o),
(239,576,cs),
(239,124,ls),
(239,37,o),
(133,18,o),
(49,10,c),
(49,0,l),
(529,0,l),
(529,10,l),
(445,17,o),
(339,37,o),
(339,124,c)
);
},
{
closed = 1;
nodes = (
(751,139,ls),
(967,139,o),
(1053,244,o),
(1053,356,cs),
(1053,468,o),
(964,569,o),
(751,569,cs),
(288,569,l),
(288,544,l),
(673,544,ls),
(867,544,o),
(943,468,o),
(943,354,cs),
(943,240,o),
(867,164,o),
(673,164,cs),
(288,164,l),
(288,139,l)
);
}
);
width = 1108;
},
{
anchors = (
{
name = bottom;
pos = (556,0);
},
{
name = top;
pos = (556,700);
}
);
layerId = "92782D03-6C32-4A0E-AEF4-B0D65DFAA275";
shapes = (
{
closed = 1;
nodes = (
(457,576,ls),
(457,678,o),
(533,669,o),
(607,676,c),
(607,700,l),
(27,700,l),
(27,676,l),
(113,669,o),
(177,676,o),
(177,576,cs),
(177,124,ls),
(177,24,o),
(113,31,o),
(27,24,c),
(27,0,l),
(607,0,l),
(607,24,l),
(533,31,o),
(457,22,o),
(457,124,cs)
);
},
{
closed = 1;
nodes = (
(701,139,ls),
(957,139,o),
(1043,244,o),
(1043,356,cs),
(1043,468,o),
(954,569,o),
(701,569,cs),
(278,569,l),
(278,544,l),
(528,544,ls),
(668,544,o),
(758,449,o),
(758,354,cs),
(758,259,o),
(668,164,o),
(528,164,cs),
(278,164,l),
(278,139,l)
);
}
);
width = 1111;
}
);
metricLeft = H;
unicode = 222;
},
{
glyphname = Q;
kernLeft = O;
kernRight = O;
lastChange = "2022-01-30 14:40:57 +0000";
layers = (
{
anchors = (
{
name = bottom;
pos = (334,0);
},
{
name = top;
pos = (334,700);
}
);
layerId = "B6803316-6B37-45A2-910F-F0CA711B465A";
shapes = (
{
closed = 1;
nodes = (
(171,715,o),
(60,546,o),
(60,345,cs),
(60,211,o),
(109,96,o),
(189,34,c),
(143,21,o),
(116,-20,o),
(116,-83,c),
(123,-83,l),
(124,-55,o),
(140,-15,o),
(167,-15,cs),
(255,-15,o),
(329,-154,o),
(472,-154,cs),
(551,-154,o),
(588,-111,o),
(588,10,c),
(578,10,l),
(578,-48,o),
(551,-84,o),
(508,-84,cs),
(472,-84,o),
(407,-58,o),
(347,-15,c),
(500,-5,o),
(603,149,o),
(603,345,cs),
(603,546,o),
(493,715,o),
(332,715,cs)
);
},
{
closed = 1;
nodes = (
(160,559,o),
(208,690,o),
(332,690,cs),
(454,690,o),
(503,559,o),
(503,345,cs),
(503,140,o),
(454,10,o),
(332,10,cs),
(199,10,o),
(160,168,o),
(160,345,cs)
);
}
);
width = 668;
},
{
anchors = (
{
name = bottom;
pos = (642,0);
},
{
name = top;
pos = (642,700);
}
);
layerId = "1127FDDC-7967-4E0A-BDB2-81E1CCE90981";
shapes = (
{
closed = 1;
nodes = (
(331,715,o),
(66,546,o),
(66,345,cs),
(66,200,o),
(202,78,o),
(392,20,c),
(302,9,o),
(250,-31,o),
(250,-91,c),
(262,-91,l),
(265,-64,o),
(295,-26,o),
(335,-26,cs),
(515,-26,o),
(658,-158,o),
(862,-158,cs),
(1007,-158,o),
(1142,-108,o),
(1154,-3,c),
(1142,-3,l),
(1130,-55,o),
(1083,-92,o),
(1013,-92,cs),
(924,-92,o),
(778,-49,o),
(651,-15,c),
(950,-10,o),
(1206,146,o),
(1206,345,cs),
(1206,546,o),
(942,715,o),
(637,715,cs)
);
},
{
closed = 1;
nodes = (
(186,549,o),
(368,690,o),
(637,690,cs),
(902,690,o),
(1086,549,o),
(1086,345,cs),
(1086,150,o),
(902,10,o),
(637,10,cs),
(368,10,o),
(186,150,o),
(186,345,cs)
);
}
);
width = 1283;
},
{
anchors = (
{
name = bottom;
pos = (350,0);
},
{
name = top;
pos = (350,700);
}
);
layerId = "ECEC25EE-2268-427F-924A-A8A033D1E43A";
shapes = (
{
closed = 1;
nodes = (
(189,715,o),
(78,546,o),
(78,345,cs),
(78,204,o),
(132,85,o),
(219,25,c),
(165,20,o),
(133,-6,o),
(133,-65,c),
(143,-65,l),
(144,-37,o),
(157,3,o),
(193,3,cs),
(292,3,o),
(360,-113,o),
(511,-113,cs),
(576,-113,o),
(603,-77,o),
(608,-14,c),
(598,-14,l),
(592,-57,o),
(578,-96,o),
(524,-96,cs),
(462,-96,o),
(407,-44,o),
(342,-15,c),
(509,-15,o),
(621,135,o),
(621,345,cs),
(621,546,o),
(511,715,o),
(350,715,cs)
);
},
{
closed = 1;
nodes = (
(128,582,o),
(239,700,o),
(349,700,cs),
(460,700,o),
(571,582,o),
(571,345,cs),
(571,115,o),
(460,0,o),
(350,0,cs),
(195,0,o),
(128,181,o),
(128,345,cs)
);
}
);
width = 699;
},
{
anchors = (
{
name = bottom;
pos = (634,0);
},
{
name = top;
pos = (634,700);
}
);
layerId = "92782D03-6C32-4A0E-AEF4-B0D65DFAA275";
shapes = (
{
closed = 1;
nodes = (
(318,715,o),
(44,576,o),
(44,345,cs),
(44,178,o),
(185,65,o),
(383,15,c),
(273,-18,o),
(248,-110,o),
(248,-171,c),
(270,-171,l),
(277,-135,o),
(293,-96,o),
(348,-96,cs),
(513,-96,o),
(656,-228,o),
(883,-228,cs),
(1078,-228,o),
(1145,-124,o),
(1152,-3,c),
(1130,-3,l),
(1118,-55,o),
(1081,-92,o),
(1011,-92,cs),
(922,-92,o),
(776,-49,o),
(649,-15,c),
(958,-11,o),
(1223,116,o),
(1223,345,cs),
(1223,576,o),
(950,715,o),
(635,715,cs)
);
},
{
closed = 1;
nodes = (
(334,515,o),
(434,680,o),
(635,680,cs),
(833,680,o),
(933,514,o),
(933,349,cs),
(933,184,o),
(834,20,o),
(635,20,cs),
(434,20,o),
(334,185,o),
(334,350,cs)
);
}
);
width = 1267;
},
{
anchors = (
{
name = bottom;
pos = (665,0);
},
{
name = top;
pos = (665,700);
}
);
layerId = "C70D92E6-6044-4AAB-ADF3-B84826DC9CB7";
shapes = (
{
closed = 1;
nodes = (
(347,715,o),
(73,546,o),
(73,345,cs),
(73,191,o),
(233,62,o),
(449,10,c),
(304,10,o),
(247,-28,o),
(247,-103,c),
(257,-103,l),
(257,-56,o),
(289,-14,o),
(372,-14,cs),
(698,-14,o),
(772,-128,o),
(1004,-128,cs),
(1088,-128,o),
(1149,-91,o),
(1149,-15,c),
(1139,-15,l),
(1139,-85,o),
(1080,-104,o),
(1010,-104,cs),
(908,-104,o),
(796,-48,o),
(653,-15,c),
(986,-15,o),
(1252,145,o),
(1252,345,cs),
(1252,546,o),
(979,715,o),
(664,715,cs)
);
},
{
closed = 1;
nodes = (
(122,502,o),
(304,700,o),
(664,700,cs),
(1022,700,o),
(1202,502,o),
(1202,348,cs),
(1202,199,o),
(1024,0,o),
(664,0,cs),
(302,0,o),
(122,199,o),
(122,349,cs)
);
}
);
width = 1329;
},
{
associatedMasterId = "ECEC25EE-2268-427F-924A-A8A033D1E43A";
layerId = "B07AC4AE-3776-4466-B342-F275B31D1A93";
name = "Apr 22 19, 16:43";
shapes = (
{
closed = 1;
nodes = (
(493,-15,o),
(603,143,o),
(603,345,cs),
(603,546,o),
(493,715,o),
(332,715,cs),
(171,715,o),
(60,546,o),
(60,345,cs),
(60,143,o),
(171,-15,o),
(332,-15,cs)
);
},
{
closed = 1;
nodes = (
(437,-96,o),
(282,26,o),
(221,26,cs),
(155,26,o),
(115,1,o),
(115,-65,c),
(125,-65,l),
(126,-37,o),
(139,3,o),
(175,3,cs),
(254,3,o),
(342,-111,o),
(508,-111,cs),
(558,-111,o),
(585,-77,o),
(590,-14,c),
(580,-14,l),
(574,-57,o),
(560,-96,o),
(506,-96,cs)
);
},
{
closed = 1;
nodes = (
(221,0,o),
(110,115,o),
(110,345,cs),
(110,582,o),
(221,700,o),
(331,700,cs),
(442,700,o),
(553,582,o),
(553,345,cs),
(553,115,o),
(442,0,o),
(332,0,cs)
);
}
);
width = 663;
},
{
associatedMasterId = "B6803316-6B37-45A2-910F-F0CA711B465A";
layerId = "EF0B1157-681E-4F4B-A8BF-D9B6193811D9";
name = "Apr 22 19, 16:43";
shapes = (
{
closed = 1;
nodes = (
(478,-15,o),
(588,143,o),
(588,345,cs),
(588,546,o),
(478,715,o),
(317,715,cs),
(156,715,o),
(45,546,o),
(45,345,cs),
(45,143,o),
(156,-15,o),
(317,-15,cs)
);
},
{
closed = 1;
nodes = (
(423,-84,o),
(268,38,o),
(207,38,cs),
(141,38,o),
(101,-7,o),
(101,-83,c),
(108,-83,l),
(109,-55,o),
(125,-15,o),
(152,-15,cs),
(240,-15,o),
(314,-154,o),
(407,-154,cs),
(476,-154,o),
(566,-101,o),
(573,10,c),
(566,10,l),
(560,-45,o),
(536,-84,o),
(499,-84,cs)
);
},
{
closed = 1;
nodes = (
(193,10,o),
(155,140,o),
(155,345,cs),
(155,559,o),
(193,690,o),
(317,690,cs),
(439,690,o),
(478,559,o),
(478,345,cs),
(478,140,o),
(439,10,o),
(317,10,cs)
);
}
);
width = 633;
},
{
associatedMasterId = "C70D92E6-6044-4AAB-ADF3-B84826DC9CB7";
layerId = "2D8B8FF0-DDDF-45D2-A19C-612D59575F74";
name = "Apr 22 19, 16:43";
shapes = (
{
closed = 1;
nodes = (
(996,-15,o),
(1269,143,o),
(1269,345,cs),
(1269,546,o),
(996,715,o),
(681,715,cs),
(364,715,o),
(90,546,o),
(90,345,cs),
(90,143,o),
(364,-15,o),
(681,-15,cs)
);
},
{
closed = 1;
nodes = (
(881,-104,o),
(714,10,o),
(466,10,cs),
(321,10,o),
(264,-28,o),
(264,-103,c),
(274,-103,l),
(274,-56,o),
(306,-14,o),
(389,-14,cs),
(715,-14,o),
(789,-128,o),
(1021,-128,cs),
(1105,-128,o),
(1166,-91,o),
(1166,-15,c),
(1156,-15,l),
(1156,-85,o),
(1097,-104,o),
(1027,-104,cs)
);
},
{
closed = 1;
nodes = (
(319,0,o),
(139,174,o),
(139,349,cs),
(139,524,o),
(321,700,o),
(681,700,cs),
(1039,700,o),
(1219,524,o),
(1219,348,cs),
(1219,174,o),
(1041,0,o),
(681,0,cs)
);
}
);
width = 1359;
},
{
associatedMasterId = "1127FDDC-7967-4E0A-BDB2-81E1CCE90981";
layerId = "48D4D935-4F3C-4787-8BF5-0066A1AF72DF";
name = "Apr 22 19, 16:43";
shapes = (
{
closed = 1;
nodes = (
(956,-15,o),
(1220,143,o),
(1220,345,cs),
(1220,546,o),
(956,715,o),
(651,715,cs),
(345,715,o),
(80,546,o),
(80,345,cs),
(80,143,o),
(345,-15,o),
(651,-15,cs)
);
},
{
closed = 1;
nodes = (
(382,10,o),
(200,150,o),
(200,345,cs),
(200,549,o),
(382,690,o),
(651,690,cs),
(916,690,o),
(1100,549,o),
(1100,345,cs),
(1100,150,o),
(916,10,o),
(651,10,cs)
);
},
{
closed = 1;
nodes = (
(881,-92,o),
(583,24,o),
(466,24,cs),
(340,24,o),
(264,-19,o),
(264,-91,c),
(276,-91,l),
(279,-64,o),
(309,-26,o),
(349,-26,cs),
(529,-26,o),
(672,-158,o),
(876,-158,cs),
(1021,-158,o),
(1156,-108,o),
(1168,-3,c),
(1156,-3,l),
(1144,-55,o),
(1097,-92,o),
(1027,-92,cs)
);
}
);
width = 1300;
},
{
associatedMasterId = "92782D03-6C32-4A0E-AEF4-B0D65DFAA275";
layerId = "ACC7AA90-AD31-491C-94F2-04B93E074F85";
name = "Apr 22 19, 16:43";
shapes = (
{
closed = 1;
nodes = (
(966,-15,o),
(1239,113,o),
(1239,345,cs),
(1239,576,o),
(966,715,o),
(651,715,cs),
(334,715,o),
(60,576,o),
(60,345,cs),
(60,113,o),
(334,-15,o),
(651,-15,cs)
);
},
{
closed = 1;
nodes = (
(450,20,o),
(350,185,o),
(350,350,cs),
(350,515,o),
(450,680,o),
(651,680,cs),
(849,680,o),
(949,514,o),
(949,349,cs),
(949,184,o),
(850,20,o),
(651,20,cs)
);
},
{
closed = 1;
nodes = (
(881,-92,o),
(583,24,o),
(466,24,cs),
(299,24,o),
(264,-119,o),
(264,-191,c),
(286,-191,l),
(289,-164,o),
(309,-126,o),
(349,-126,cs),
(529,-126,o),
(672,-258,o),
(899,-258,cs),
(1084,-258,o),
(1156,-108,o),
(1168,-3,c),
(1146,-3,l),
(1134,-55,o),
(1097,-92,o),
(1027,-92,cs)
);
}
);
width = 1299;
},
{
associatedMasterId = "B6803316-6B37-45A2-910F-F0CA711B465A";
layerId = "94CED2E6-978D-4C2D-A33D-BA9F277BB3E6";
name = "May 11 19, 17:23";
shapes = (
{
closed = 1;
nodes = (
(156,715,o),
(45,546,o),
(45,345,cs),
(45,211,o),
(94,96,o),
(174,34,c),
(128,21,o),
(101,-20,o),
(101,-83,c),
(108,-83,l),
(109,-55,o),
(125,-15,o),
(152,-15,cs),
(240,-15,o),
(314,-154,o),
(407,-154,cs),
(476,-154,o),
(566,-101,o),
(573,10,c),
(566,10,l),
(560,-45,o),
(536,-84,o),
(499,-84,cs),
(457,-84,o),
(392,-48,o),
(332,-15,c),
(485,-5,o),
(588,149,o),
(588,345,cs),
(588,546,o),
(478,715,o),
(317,715,cs)
);
},
{
closed = 1;
nodes = (
(155,559,o),
(193,690,o),
(317,690,cs),
(439,690,o),
(478,559,o),
(478,345,cs),
(478,140,o),
(439,10,o),
(317,10,cs),
(184,10,o),
(155,168,o),
(155,345,cs)
);
}
);
width = 633;
},
{
associatedMasterId = "92782D03-6C32-4A0E-AEF4-B0D65DFAA275";
layerId = "EEB98CC9-AFD2-4AA6-983C-371E3C5F85A4";
name = "May 18 19, 18:27";
shapes = (
{
closed = 1;
nodes = (
(334,715,o),
(60,576,o),
(60,345,cs),
(60,178,o),
(201,65,o),
(399,15,c),
(289,-18,o),
(264,-130,o),
(264,-191,c),
(286,-191,l),
(289,-164,o),
(309,-126,o),
(349,-126,cs),
(529,-126,o),
(672,-258,o),
(899,-258,cs),
(1084,-258,o),
(1156,-108,o),
(1168,-3,c),
(1146,-3,l),
(1134,-55,o),
(1097,-92,o),
(1027,-92,cs),
(938,-92,o),
(792,-49,o),
(665,-15,c),
(974,-11,o),
(1239,116,o),
(1239,345,cs),
(1239,576,o),
(966,715,o),
(651,715,cs)
);
},
{
closed = 1;
nodes = (
(350,515,o),
(450,680,o),
(651,680,cs),
(849,680,o),
(949,514,o),
(949,349,cs),
(949,184,o),
(850,20,o),
(651,20,cs),
(450,20,o),
(350,185,o),
(350,350,cs)
);
}
);
width = 1299;
},
{
associatedMasterId = "52EA2D2A-A4E3-47AA-B963-53B6A9E26FA1";
layerId = "17A64BF7-B20D-44F5-ACCF-1F81C756246D";
name = "Jan 8 20, 17:35";
shapes = (
{
closed = 1;
nodes = (
(153,715,o),
(42,596,o),
(42,345,cs),
(42,182,o),
(89,79,o),
(165,27,c),
(126,-9,o),
(108,-79,o),
(108,-133,c),
(126,-133,l),
(127,-105,o),
(142,-65,o),
(169,-65,cs),
(257,-65,o),
(345,-215,o),
(451,-215,cs),
(543,-215,o),
(590,-102,o),
(590,22,c),
(572,22,l),
(572,-37,o),
(553,-72,o),
(521,-72,cs),
(481,-72,o),
(422,-42,o),
(365,-11,c),
(498,10,o),
(585,121,o),
(585,345,cs),
(585,596,o),
(475,715,o),
(314,715,cs)
);
},
{
closed = 1;
nodes = (
(267,630,o),
(282,680,o),
(314,680,cs),
(345,680,o),
(360,630,o),
(360,352,cs),
(360,64,o),
(345,20,o),
(314,20,cs),
(284,20,o),
(267,64,o),
(267,364,cs)
);
}
);
width = 635;
},
{
anchors = (
{
name = bottom;
pos = (325,0);
},
{
name = top;
pos = (325,700);
}
);
layerId = "52EA2D2A-A4E3-47AA-B963-53B6A9E26FA1";
shapes = (
{
closed = 1;
nodes = (
(153,715,o),
(42,596,o),
(42,345,cs),
(42,189,o),
(85,88,o),
(158,34,c),
(112,1,o),
(91,-75,o),
(91,-133,c),
(109,-133,l),
(110,-105,o),
(125,-65,o),
(152,-65,cs),
(240,-65,o),
(328,-215,o),
(434,-215,cs),
(526,-215,o),
(573,-102,o),
(573,22,c),
(555,22,l),
(555,-37,o),
(536,-72,o),
(504,-72,cs),
(465,-72,o),
(408,-43,o),
(353,-14,c),
(507,-2,o),
(605,108,o),
(605,345,cs),
(605,596,o),
(495,715,o),
(324,715,cs)
);
},
{
closed = 1;
nodes = (
(267,630,o),
(279,680,o),
(324,680,cs),
(368,680,o),
(380,630,o),
(380,352,cs),
(380,74,o),
(368,20,o),
(324,20,cs),
(281,20,o),
(267,74,o),
(267,364,cs)
);
}
);
width = 650;
}
);
metricLeft = O;
unicode = 81;
},
{
glyphname = R;
kernLeft = H;
kernRight = R;
lastChange = "2022-01-30 14:40:57 +0000";
layers = (
{
anchors = (
{
name = bottom;
pos = (300,0);
},
{
name = top;
pos = (300,700);
}
);
background = {
shapes = (
{
closed = 1;
nodes = (
(439,234,o),
(537,472,o),
(361,486,c),
(449,500,o),
(495,539,o),
(495,588,cs),
(495,656,o),
(439,700,o),
(332,700,cs),
(25,700,l),
(25,690,l),
(90,683,o),
(125,664,o),
(125,616,cs),
(125,84,ls),
(125,36,o),
(90,17,o),
(25,10,c),
(25,0,l),
(320,0,l),
(320,10,l),
(255,17,o),
(220,36,o),
(220,84,cs),
(220,475,l),
(261,475,ls),
(440,475,o),
(339,214,o),
(396,64,cs),
(421,-1,o),
(484,-3,o),
(556,-3,cs),
(581,-3,l),
(581,7,l),
(544,7,o),
(518,17,o),
(492,89,cs)
);
},
{
closed = 1;
nodes = (
(221,500,l),
(220,675,l),
(297,675,ls),
(359,675,o),
(390,632,o),
(390,588,cs),
(390,544,o),
(359,500,o),
(297,500,cs)
);
}
);
};
layerId = "B6803316-6B37-45A2-910F-F0CA711B465A";
shapes = (
{
closed = 1;
nodes = (
(436,234,o),
(530,472,o),
(361,486,c),
(449,500,o),
(495,539,o),
(495,588,cs),
(495,656,o),
(439,700,o),
(332,700,cs),
(25,700,l),
(25,690,l),
(90,683,o),
(125,664,o),
(125,616,cs),
(125,84,ls),
(125,36,o),
(90,17,o),
(25,10,c),
(25,0,l),
(320,0,l),
(320,10,l),
(255,17,o),
(220,36,o),
(220,84,cs),
(220,475,l),
(261,475,ls),
(440,475,o),
(339,214,o),
(396,64,cs),
(421,-1,o),
(484,-3,o),
(556,-3,cs),
(581,-3,l),
(581,7,l),
(544,7,o),
(515,17,o),
(489,89,cs)
);
},
{
closed = 1;
nodes = (
(221,500,l),
(220,675,l),
(297,675,ls),
(359,675,o),
(390,632,o),
(390,588,cs),
(390,544,o),
(359,500,o),
(297,500,cs)
);
}
);
width = 599;
},
{
anchors = (
{
name = bottom;
pos = (584,0);
},
{
name = top;
pos = (584,700);
}
);
layerId = "1127FDDC-7967-4E0A-BDB2-81E1CCE90981";
shapes = (
{
closed = 1;
nodes = (
(940,245,o),
(1068,405,o),
(828,423,c),
(962,435,o),
(1005,505,o),
(1005,555,cs),
(1005,626,o),
(940,700,o),
(786,700,cs),
(49,700,l),
(49,690,l),
(132,683,o),
(238,663,o),
(239,576,cs),
(239,124,ls),
(239,37,o),
(133,17,o),
(49,10,c),
(49,0,l),
(529,0,l),
(529,10,l),
(445,17,o),
(339,37,o),
(339,124,cs),
(339,411,l),
(741,411,ls),
(957,411,o),
(852,216,o),
(908,82,cs),
(935,16,o),
(997,-3,o),
(1082,-3,cs),
(1123,-3,l),
(1123,7,l),
(1063,7,o),
(1039,24,o),
(1009,91,cs)
);
},
{
closed = 1;
nodes = (
(339,436,l),
(339,675,l),
(739,675,ls),
(854,675,o),
(895,610,o),
(895,554,cs),
(895,498,o),
(854,436,o),
(739,436,cs)
);
}
);
width = 1167;
},
{
anchors = (
{
name = bottom;
pos = (352,0);
},
{
name = top;
pos = (352,700);
}
);
layerId = "52EA2D2A-A4E3-47AA-B963-53B6A9E26FA1";
shapes = (
{
closed = 1;
nodes = (
(585,263,o),
(670,396,o),
(491,441,c),
(555,441,o),
(627,491,o),
(627,561,cs),
(627,631,o),
(566,700,o),
(445,700,cs),
(25,700,l),
(25,680,l),
(50,679,o),
(85,674,o),
(85,616,cs),
(85,84,ls),
(85,26,o),
(50,21,o),
(25,20,c),
(25,0,l),
(365,0,l),
(365,20,l),
(340,21,o),
(305,26,o),
(305,84,cs),
(305,424,l),
(336,424,ls),
(435,424,o),
(360,219,o),
(405,100,cs),
(440,8,o),
(525,-3,o),
(644,-3,cs),
(704,-3,l),
(704,17,l),
(674,17,o),
(641,58,o),
(623,124,cs)
);
},
{
closed = 1;
nodes = (
(305,460,l),
(305,665,l),
(324,665,ls),
(376,665,o),
(401,615,o),
(401,564,cs),
(401,512,o),
(375,460,o),
(324,460,cs)
);
}
);
width = 704;
},
{
anchors = (
{
name = bottom;
pos = (312,0);
},
{
name = top;
pos = (312,700);
}
);
layerId = "ECEC25EE-2268-427F-924A-A8A033D1E43A";
shapes = (
{
closed = 1;
nodes = (
(444,227,o),
(537,452,o),
(383,489,c),
(462,501,o),
(501,546,o),
(501,592,cs),
(501,646,o),
(445,700,o),
(336,700,cs),
(44,700,l),
(44,690,l),
(120,683,o),
(144,679,o),
(144,631,cs),
(144,69,ls),
(144,21,o),
(119,17,o),
(44,10,c),
(44,0,l),
(289,0,l),
(289,10,l),
(224,17,o),
(189,21,o),
(189,69,cs),
(189,485,l),
(318,485,ls),
(497,485,o),
(396,214,o),
(458,68,cs),
(487,0,o),
(516,-1,o),
(572,-3,cs),
(585,-3,l),
(585,7,l),
(532,7,o),
(516,36,o),
(500,78,cs)
);
},
{
closed = 1;
nodes = (
(189,500,l),
(189,685,l),
(296,685,ls),
(410,685,o),
(454,636,o),
(454,589,cs),
(454,544,o),
(410,500,o),
(306,500,cs)
);
}
);
width = 623;
},
{
anchors = (
{
name = bottom;
pos = (569,0);
},
{
name = top;
pos = (569,700);
}
);
layerId = "92782D03-6C32-4A0E-AEF4-B0D65DFAA275";
shapes = (
{
closed = 1;
nodes = (
(952,248,o),
(1067,398,o),
(822,423,c),
(942,434,o),
(1000,494,o),
(1000,556,cs),
(1000,627,o),
(924,700,o),
(780,700,cs),
(27,700,l),
(27,676,l),
(113,669,o),
(177,676,o),
(177,576,cs),
(177,124,ls),
(177,24,o),
(113,31,o),
(27,24,c),
(27,0,l),
(607,0,l),
(607,24,l),
(533,31,o),
(457,22,o),
(457,124,cs),
(457,406,l),
(565,406,ls),
(781,406,o),
(680,216,o),
(731,82,cs),
(756,16,o),
(849,-4,o),
(977,-4,cs),
(1117,-4,l),
(1117,16,l),
(1075,16,o),
(1041,33,o),
(1017,91,cs)
);
},
{
closed = 1;
nodes = (
(457,441,l),
(457,665,l),
(558,665,ls),
(662,665,o),
(715,608,o),
(715,552,cs),
(715,496,o),
(663,441,o),
(558,441,cs)
);
}
);
width = 1137;
},
{
associatedMasterId = "ECEC25EE-2268-427F-924A-A8A033D1E43A";
layerId = "42F8F982-E34B-4A03-BA3F-48950087E12D";
name = "Mar 26 19, 12:57";
shapes = (
{
closed = 1;
nodes = (
(140,0,l),
(140,69,l),
(140,21,o),
(115,17,o),
(40,10,c),
(40,0,l)
);
},
{
closed = 1;
nodes = (
(285,0,l),
(285,10,l),
(220,17,o),
(185,21,o),
(185,69,c),
(185,0,l)
);
},
{
closed = 1;
nodes = (
(185,0,l),
(185,700,l),
(140,700,l),
(140,0,l)
);
},
{
closed = 1;
nodes = (
(140,700,l),
(40,700,l),
(40,690,l),
(116,683,o),
(140,679,o),
(140,631,c)
);
},
{
closed = 1;
nodes = (
(181,685,l),
(292,685,ls),
(406,685,o),
(450,636,o),
(450,589,cs),
(450,544,o),
(406,500,o),
(302,500,cs),
(164,500,l),
(164,485,l),
(314,485,ls),
(493,485,o),
(398,214,o),
(449,80,cs),
(481,-3,o),
(526,-4,o),
(621,-3,c),
(621,7,l),
(544,7,o),
(518,27,o),
(494,89,cs),
(438,234,o),
(535,477,o),
(361,491,c),
(452,504,o),
(495,549,o),
(495,595,cs),
(495,648,o),
(455,700,o),
(332,700,cs),
(181,700,l)
);
}
);
width = 621;
},
{
associatedMasterId = "B6803316-6B37-45A2-910F-F0CA711B465A";
guides = (
{
angle = -64.8216;
pos = (140,700);
}
);
layerId = "1D63735C-2386-4CC5-B59A-20F6090F6770";
name = "Mar 26 19, 12:57";
shapes = (
{
closed = 1;
nodes = (
(251,675,l),
(312,675,ls),
(384,675,o),
(410,627,o),
(410,587,cs),
(410,547,o),
(382,500,o),
(322,500,cs),
(234,500,l),
(234,475,l),
(281,475,ls),
(461,475,o),
(362,211,o),
(412,80,cs),
(444,-3,o),
(546,-4,o),
(641,-3,c),
(641,7,l),
(564,7,o),
(538,27,o),
(514,89,cs),
(459,234,o),
(554,472,o),
(381,486,c),
(469,500,o),
(515,539,o),
(515,588,cs),
(515,656,o),
(459,700,o),
(352,700,cs),
(251,700,l)
);
},
{
closed = 1;
nodes = (
(251,700,l),
(40,700,l),
(40,690,l),
(105,683,o),
(140,664,o),
(140,616,cs),
(140,84,ls),
(140,36,o),
(105,17,o),
(40,10,c),
(40,0,l),
(340,0,l),
(340,10,l),
(275,17,o),
(240,36,o),
(240,84,cs),
(251,675,l)
);
}
);
width = 641;
},
{
associatedMasterId = "C70D92E6-6044-4AAB-ADF3-B84826DC9CB7";
layerId = "BAF2B991-3225-4DD0-A8FF-17263B8B9B78";
name = "Mar 27 19, 14:31";
shapes = (
{
closed = 1;
nodes = (
(265,699,l),
(50,700,l),
(50,690,l),
(146,683,o),
(220,682,o),
(220,596,cs),
(220,104,ls),
(220,18,o),
(146,17,o),
(50,10,c),
(50,0,l),
(435,0,l),
(435,10,l),
(341,17,o),
(265,16,o),
(265,104,cs)
);
},
{
closed = 1;
nodes = (
(258,675,l),
(774,675,ls),
(889,675,o),
(930,610,o),
(930,554,cs),
(930,498,o),
(889,436,o),
(774,436,cs),
(258,436,l),
(258,421,l),
(776,421,ls),
(992,421,o),
(887,216,o),
(939,90,cs),
(978,-4,o),
(1041,0,o),
(1168,0,c),
(1168,10,l),
(1076,10,o),
(1018,24,o),
(988,91,cs),
(919,245,o),
(1040,396,o),
(831,428,c),
(945,440,o),
(980,505,o),
(980,555,cs),
(980,626,o),
(915,700,o),
(761,700,cs),
(258,700,l)
);
}
);
width = 1168;
},
{
associatedMasterId = "92782D03-6C32-4A0E-AEF4-B0D65DFAA275";
layerId = "AFE8E409-3D6C-49FF-ABF1-A7B41B16C0FE";
name = "Mar 27 19, 15:38";
shapes = (
{
closed = 1;
nodes = (
(470,700,l),
(40,700,l),
(40,686,l),
(126,679,o),
(190,676,o),
(190,576,cs),
(190,124,ls),
(190,24,o),
(126,21,o),
(40,14,c),
(40,0,l),
(620,0,l),
(620,14,l),
(546,21,o),
(470,22,o),
(470,124,cs)
);
},
{
closed = 1;
nodes = (
(451,675,l),
(571,675,ls),
(686,675,o),
(727,610,o),
(727,554,cs),
(727,498,o),
(686,436,o),
(571,436,cs),
(451,436,l),
(451,411,l),
(578,411,ls),
(794,411,o),
(693,216,o),
(741,90,cs),
(773,6,o),
(940,-4,o),
(990,-4,cs),
(1200,-4,l),
(1200,6,l),
(1108,6,o),
(1061,33,o),
(1037,91,cs),
(972,248,o),
(1067,398,o),
(835,423,c),
(969,435,o),
(1012,505,o),
(1012,555,cs),
(1012,626,o),
(947,700,o),
(793,700,cs),
(451,700,l)
);
}
);
width = 1200;
},
{
associatedMasterId = "1127FDDC-7967-4E0A-BDB2-81E1CCE90981";
layerId = "F60082D8-D3DA-4959-84AA-B052F2A51DB5";
name = "Mar 31 19, 15:27";
shapes = (
{
closed = 1;
nodes = (
(935,245,o),
(1051,398,o),
(819,423,c),
(953,435,o),
(996,505,o),
(996,555,cs),
(996,626,o),
(931,700,o),
(777,700,cs),
(40,700,l),
(40,690,l),
(123,683,o),
(229,663,o),
(230,576,cs),
(230,124,ls),
(230,37,o),
(124,17,o),
(40,10,c),
(40,0,l),
(520,0,l),
(520,10,l),
(436,17,o),
(330,37,o),
(330,124,cs),
(330,411,l),
(732,411,ls),
(948,411,o),
(843,216,o),
(895,90,cs),
(926,16,o),
(1008,-3,o),
(1103,-3,cs),
(1184,-3,l),
(1184,7,l),
(1092,7,o),
(1034,24,o),
(1004,91,cs)
);
},
{
closed = 1;
nodes = (
(330,436,l),
(330,675,l),
(730,675,ls),
(845,675,o),
(886,610,o),
(886,554,cs),
(886,498,o),
(845,436,o),
(730,436,cs)
);
}
);
width = 1204;
},
{
associatedMasterId = "52EA2D2A-A4E3-47AA-B963-53B6A9E26FA1";
layerId = "C49ECC77-8ACE-4438-9C5D-D7D391BFB566";
name = "Mar 31 19, 16:04";
shapes = (
{
closed = 1;
nodes = (
(575,264,o),
(660,386,o),
(498,470,c),
(577,487,o),
(617,534,o),
(617,581,cs),
(617,641,o),
(555,700,o),
(435,700,cs),
(15,700,l),
(15,690,l),
(40,683,o),
(75,674,o),
(75,616,cs),
(75,84,ls),
(75,26,o),
(40,17,o),
(15,10,c),
(15,0,l),
(355,0,l),
(355,10,l),
(330,17,o),
(295,26,o),
(295,84,cs),
(295,464,l),
(314,464,l),
(436,464,o),
(348,223,o),
(395,100,cs),
(430,8,o),
(515,-3,o),
(634,-3,cs),
(694,-3,l),
(694,7,l),
(660,7,o),
(631,58,o),
(613,124,cs)
);
},
{
closed = 1;
nodes = (
(295,500,l),
(295,665,l),
(314,665,ls),
(366,665,o),
(391,625,o),
(391,584,cs),
(391,542,o),
(365,500,o),
(314,500,cs)
);
}
);
width = 694;
},
{
associatedMasterId = "52EA2D2A-A4E3-47AA-B963-53B6A9E26FA1";
layerId = "0618BED7-34B7-4775-8D9C-4E615B389D0C";
name = "Mar 31 19, 16:06";
shapes = (
{
closed = 1;
nodes = (
(355,0,l),
(355,10,l),
(330,17,o),
(295,26,o),
(295,84,cs),
(295,424,l),
(435,424,ls),
(557,424,o),
(617,493,o),
(617,561,cs),
(617,631,o),
(556,700,o),
(435,700,cs),
(15,700,l),
(15,690,l),
(40,683,o),
(75,674,o),
(75,616,cs),
(75,84,ls),
(75,26,o),
(40,17,o),
(15,10,c),
(15,0,l)
);
},
{
closed = 1;
nodes = (
(694,-3,l),
(694,7,l),
(660,7,o),
(631,58,o),
(613,124,cs),
(575,263,o),
(655,384,o),
(474,424,c),
(326,424,l),
(435,424,o),
(350,219,o),
(395,100,cs),
(430,8,o),
(515,-3,o),
(634,-3,cs)
);
},
{
closed = 1;
nodes = (
(295,665,l),
(314,665,ls),
(366,665,o),
(391,615,o),
(391,564,cs),
(391,512,o),
(365,460,o),
(314,460,cs),
(295,460,l)
);
}
);
width = 694;
},
{
associatedMasterId = "92782D03-6C32-4A0E-AEF4-B0D65DFAA275";
layerId = "85CEA7CA-7184-491E-B471-7743E84836CF";
name = "Apr 24 19, 15:19";
shapes = (
{
closed = 1;
nodes = (
(952,248,o),
(1047,398,o),
(815,423,c),
(935,434,o),
(993,494,o),
(993,556,cs),
(993,627,o),
(917,700,o),
(773,700,cs),
(20,700,l),
(20,676,l),
(106,669,o),
(170,676,o),
(170,576,cs),
(170,124,ls),
(170,24,o),
(106,31,o),
(20,24,c),
(20,0,l),
(600,0,l),
(600,24,l),
(526,31,o),
(450,22,o),
(450,124,cs),
(450,406,l),
(558,406,ls),
(774,406,o),
(673,216,o),
(721,90,cs),
(753,6,o),
(920,-4,o),
(970,-4,cs),
(1110,-4,l),
(1110,16,l),
(1068,16,o),
(1041,33,o),
(1017,91,cs)
);
},
{
closed = 1;
nodes = (
(450,441,l),
(450,665,l),
(551,665,ls),
(655,665,o),
(708,608,o),
(708,552,cs),
(708,496,o),
(656,441,o),
(551,441,cs)
);
}
);
width = 1110;
},
{
associatedMasterId = "1127FDDC-7967-4E0A-BDB2-81E1CCE90981";
layerId = "875A01FB-F632-4659-BC6C-912078591C57";
name = "Apr 24 19, 15:22";
shapes = (
{
closed = 1;
nodes = (
(934,245,o),
(1051,398,o),
(819,423,c),
(953,435,o),
(996,505,o),
(996,555,cs),
(996,626,o),
(931,700,o),
(777,700,cs),
(40,700,l),
(40,690,l),
(123,683,o),
(229,663,o),
(230,576,cs),
(230,124,ls),
(230,37,o),
(124,17,o),
(40,10,c),
(40,0,l),
(520,0,l),
(520,10,l),
(436,17,o),
(330,37,o),
(330,124,cs),
(330,411,l),
(732,411,ls),
(948,411,o),
(843,216,o),
(895,90,cs),
(926,16,o),
(1008,-3,o),
(1073,-3,cs),
(1114,-3,l),
(1114,7,l),
(1062,7,o),
(1033,24,o),
(1003,91,cs)
);
},
{
closed = 1;
nodes = (
(330,436,l),
(330,675,l),
(730,675,ls),
(845,675,o),
(886,610,o),
(886,554,cs),
(886,498,o),
(845,436,o),
(730,436,cs)
);
}
);
width = 1124;
},
{
anchors = (
{
name = bottom;
pos = (581,0);
},
{
name = top;
pos = (581,700);
}
);
layerId = "C70D92E6-6044-4AAB-ADF3-B84826DC9CB7";
shapes = (
{
closed = 1;
nodes = (
(932,253,o),
(1040,396,o),
(835,428,c),
(949,440,o),
(984,505,o),
(984,555,cs),
(984,626,o),
(919,700,o),
(752,700,cs),
(54,700,l),
(54,690,l),
(150,683,o),
(224,682,o),
(224,596,cs),
(224,104,ls),
(224,18,o),
(150,17,o),
(54,10,c),
(54,0,l),
(439,0,l),
(439,10,l),
(345,17,o),
(269,16,o),
(269,104,cs),
(269,421,l),
(767,421,ls),
(1000,421,o),
(890,216,o),
(944,86,cs),
(975,12,o),
(1025,-3,o),
(1094,-3,cs),
(1112,-3,l),
(1112,7,l),
(1052,7,o),
(1014,24,o),
(990,91,cs)
);
},
{
closed = 1;
nodes = (
(269,436,l),
(269,685,l),
(765,685,ls),
(893,685,o),
(934,616,o),
(934,561,cs),
(934,506,o),
(893,436,o),
(765,436,cs)
);
}
);
width = 1161;
},
{
associatedMasterId = "C70D92E6-6044-4AAB-ADF3-B84826DC9CB7";
layerId = "5DC0051B-5250-402E-9B61-EEC554D5F907";
name = "Apr 24 19, 15:26";
shapes = (
{
closed = 1;
nodes = (
(919,245,o),
(1040,396,o),
(831,428,c),
(945,440,o),
(980,505,o),
(980,555,cs),
(980,626,o),
(915,700,o),
(748,700,cs),
(50,700,l),
(50,690,l),
(146,683,o),
(220,682,o),
(220,596,cs),
(220,104,ls),
(220,18,o),
(146,17,o),
(50,10,c),
(50,0,l),
(435,0,l),
(435,10,l),
(341,17,o),
(265,16,o),
(265,104,cs),
(265,421,l),
(763,421,ls),
(992,421,o),
(887,216,o),
(939,90,cs),
(972,12,o),
(1021,-3,o),
(1110,-3,cs),
(1108,-3,l),
(1108,7,l),
(1048,7,o),
(1018,24,o),
(988,91,cs)
);
},
{
closed = 1;
nodes = (
(265,436,l),
(265,685,l),
(761,685,ls),
(889,685,o),
(930,616,o),
(930,561,cs),
(930,506,o),
(889,436,o),
(761,436,cs)
);
}
);
width = 1140;
},
{
associatedMasterId = "ECEC25EE-2268-427F-924A-A8A033D1E43A";
layerId = "C6DF28E1-8718-4499-AF50-84E0D90AB34F";
name = "Apr 24 19, 15:28";
shapes = (
{
closed = 1;
nodes = (
(449,227,o),
(543,452,o),
(389,489,c),
(468,501,o),
(507,546,o),
(507,592,cs),
(507,646,o),
(451,700,o),
(342,700,cs),
(50,700,l),
(50,690,l),
(126,683,o),
(150,679,o),
(150,631,cs),
(150,69,ls),
(150,21,o),
(125,17,o),
(50,10,c),
(50,0,l),
(295,0,l),
(295,10,l),
(230,17,o),
(195,21,o),
(195,69,cs),
(195,485,l),
(324,485,ls),
(503,485,o),
(407,214,o),
(459,80,cs),
(490,0,o),
(522,-1,o),
(588,-3,cs),
(591,-3,l),
(591,7,l),
(538,7,o),
(524,36,o),
(508,78,cs)
);
},
{
closed = 1;
nodes = (
(195,500,l),
(195,685,l),
(302,685,ls),
(416,685,o),
(460,636,o),
(460,589,cs),
(460,544,o),
(416,500,o),
(312,500,cs)
);
}
);
width = 591;
},
{
associatedMasterId = "B6803316-6B37-45A2-910F-F0CA711B465A";
layerId = "D053E88D-A952-43F7-AF0B-66A15756FD9F";
name = "Apr 24 19, 16:09";
shapes = (
{
closed = 1;
nodes = (
(459,234,o),
(555,472,o),
(381,486,c),
(469,500,o),
(515,539,o),
(515,588,cs),
(515,656,o),
(459,700,o),
(352,700,cs),
(40,700,l),
(40,690,l),
(105,683,o),
(140,664,o),
(140,616,cs),
(140,84,ls),
(140,36,o),
(105,17,o),
(40,10,c),
(40,0,l),
(340,0,l),
(340,10,l),
(275,17,o),
(240,36,o),
(240,84,cs),
(240,475,l),
(281,475,ls),
(460,475,o),
(361,214,o),
(412,80,cs),
(443,-1,o),
(504,-3,o),
(576,-3,cs),
(601,-3,l),
(601,7,l),
(554,7,o),
(541,17,o),
(514,89,cs)
);
},
{
closed = 1;
nodes = (
(241,500,l),
(240,675,l),
(317,675,ls),
(379,675,o),
(410,632,o),
(410,588,cs),
(410,544,o),
(379,500,o),
(317,500,cs)
);
}
);
width = 601;
}
);
unicode = 82;
},
